<?xml version="1.0" encoding="UTF-8" standalone="no"?>
<svg
   width="240"
   height="240"
   version="1.1"
   id="svg40"
   sodipodi:docname="berserk.svg"
   inkscape:version="1.3.2 (091e20e, 2023-11-25, custom)"
   xml:space="preserve"
   xmlns:inkscape="http://www.inkscape.org/namespaces/inkscape"
   xmlns:sodipodi="http://sodipodi.sourceforge.net/DTD/sodipodi-0.dtd"
   xmlns="http://www.w3.org/2000/svg"
   xmlns:svg="http://www.w3.org/2000/svg"><defs
     id="defs40"><filter
       style="color-interpolation-filters:sRGB;"
       inkscape:label="Drop Shadow"
       id="filter4"
       x="-0.20236493"
       y="-0.17708941"
       width="1.4047299"
       height="1.3541788"><feFlood
         result="flood"
         in="SourceGraphic"
         flood-opacity="1.000000"
         flood-color="rgb(58,63,94)"
         id="feFlood3" /><feGaussianBlur
         result="blur"
         in="SourceGraphic"
         stdDeviation="15.000000"
         id="feGaussianBlur3" /><feOffset
         result="offset"
         in="blur"
         dx="0.000000"
         dy="0.000000"
         id="feOffset3" /><feComposite
         result="comp1"
         operator="out"
         in="flood"
         in2="offset"
         id="feComposite3" /><feComposite
         result="comp2"
         operator="atop"
         in="comp1"
         in2="SourceGraphic"
         id="feComposite4" /></filter><filter
       style="color-interpolation-filters:sRGB;"
       inkscape:label="Drop Shadow"
       id="filter6"
       x="-0.20163867"
       y="-0.17783277"
       width="1.4032773"
       height="1.3556655"><feFlood
         result="flood"
         in="SourceGraphic"
         flood-opacity="1.000000"
         flood-color="rgb(58,63,94)"
         id="feFlood4" /><feGaussianBlur
         result="blur"
         in="SourceGraphic"
         stdDeviation="15.000000"
         id="feGaussianBlur4" /><feOffset
         result="offset"
         in="blur"
         dx="0.000000"
         dy="0.000000"
         id="feOffset4" /><feComposite
         result="comp1"
         operator="out"
         in="flood"
         in2="offset"
         id="feComposite5" /><feComposite
         result="comp2"
         operator="atop"
         in="comp1"
         in2="SourceGraphic"
         id="feComposite6" /></filter><filter
       style="color-interpolation-filters:sRGB;"
       inkscape:label="Drop Shadow"
       id="filter8"
       x="-0.2053087"
       y="-0.17966306"
       width="1.4106174"
       height="1.3593261"><feFlood
         result="flood"
         in="SourceGraphic"
         flood-opacity="1.000000"
         flood-color="rgb(58,63,94)"
         id="feFlood6" /><feGaussianBlur
         result="blur"
         in="SourceGraphic"
         stdDeviation="15.000000"
         id="feGaussianBlur6" /><feOffset
         result="offset"
         in="blur"
         dx="0.000000"
         dy="0.000000"
         id="feOffset6" /><feComposite
         result="comp1"
         operator="out"
         in="flood"
         in2="offset"
         id="feComposite7" /><feComposite
         result="comp2"
         operator="atop"
         in="comp1"
         in2="SourceGraphic"
         id="feComposite8" /></filter><filter
       style="color-interpolation-filters:sRGB;"
       inkscape:label="Drop Shadow"
       id="filter11"
       x="-0.100936"
       y="-0.097247314"
       width="1.201872"
       height="1.1944946"><feFlood
         result="flood"
         in="SourceGraphic"
         flood-opacity="1.000000"
         flood-color="rgb(58,63,94)"
         id="feFlood10" /><feGaussianBlur
         result="blur"
         in="SourceGraphic"
         stdDeviation="8.000000"
         id="feGaussianBlur10" /><feOffset
         result="offset"
         in="blur"
         dx="0.000000"
         dy="0.000000"
         id="feOffset10" /><feComposite
         result="comp1"
         operator="out"
         in="flood"
         in2="offset"
         id="feComposite10" /><feComposite
         result="comp2"
         operator="atop"
         in="comp1"
         in2="SourceGraphic"
         id="feComposite11" /></filter></defs><sodipodi:namedview
     id="namedview40"
     pagecolor="#505050"
     bordercolor="#eeeeee"
     borderopacity="1"
     inkscape:showpageshadow="0"
     inkscape:pageopacity="0"
     inkscape:pagecheckerboard="0"
     inkscape:deskcolor="#505050"
     inkscape:zoom="2.3747003"
     inkscape:cx="132.22721"
     inkscape:cy="125.27897"
     inkscape:window-width="1920"
     inkscape:window-height="1017"
     inkscape:window-x="-8"
     inkscape:window-y="-8"
     inkscape:window-maximized="1"
     inkscape:current-layer="svg40" /><path
     style="fill:#1b1f21;stroke:none"
     d="M0 0v240h240V0H0z"
     id="path1" /><path
     style="fill:#e64539;fill-opacity:1;filter:url(#filter11)"
     d="m 77.411933,213.39397 c -1.588623,-2.00976 -1.540872,-2.1016 2.679236,-5.15291 7.937104,-5.73884 14.368242,-11.28081 17.146777,-14.77607 3.201614,-4.02747 4.405144,-7.41678 4.851464,-13.66242 0.13475,-1.88567 0.35741,-3.93005 0.49478,-4.54306 0.33385,-1.48969 1.25727,-3.3984 2.3131,-4.78118 0.6965,-0.91218 0.80796,-1.19929 0.57468,-1.48037 -0.15917,-0.19179 -0.38724,-0.28824 -0.50682,-0.21434 -0.26357,0.1629 -8.280453,0.82443 -8.412038,0.69414 -0.05113,-0.0506 0.157648,-0.76216 0.463944,-1.58119 l 0.5569,-1.48913 4.061704,0.1736 4.0617,0.17361 1.5246,-1.15807 c 4.06893,-3.09074 6.17668,-5.33694 11.56087,-12.32027 3.94702,-5.11931 5.72002,-7.22212 9.32801,-11.06323 1.65503,-1.76197 2.92512,-3.2876 2.82242,-3.3903 -0.1027,-0.10271 -1.05281,-0.60861 -2.11136,-1.12423 -2.33014,-1.13503 -2.84852,-1.66691 -3.71901,-3.81585 -0.50055,-1.2357 -0.79085,-1.66122 -1.13333,-1.66122 -0.75222,0 -7.47521,9.20862 -10.19929,13.97018 -2.53877,4.43765 -2.82379,6.96469 -1.15205,10.21436 l 0.93854,1.82441 -0.57172,0.60856 c -0.31444,0.33471 -0.71212,0.60857 -0.88372,0.60857 -0.4311,0 -2.72849,-2.80691 -3.26624,-3.99063 -0.60967,-1.34203 -0.56797,-3.53372 0.13127,-6.8998 0.31797,-1.53071 0.5283,-2.86479 0.4674,-2.96462 -0.20213,-0.3313 -0.72722,-0.18811 -1.19151,0.32493 -0.25207,0.27854 -0.64766,0.60777 -0.87909,0.73163 -1.72389,0.92259 3.90072,-6.56473 8.02649,-10.68464 2.42092,-2.41748 8.52042,-7.55078 10.45334,-8.79745 0.94745,-0.61108 2.38534,-5.04331 2.38534,-7.35271 0,-2.31904 -1.08901,-4.51699 -3.23065,-6.52039 -1.7978,-1.68176 -2.97129,-2.29595 -4.66092,-2.43948 -1.4883,-0.12643 -3.70037,0.46364 -4.32483,1.15365 -0.24371,0.26931 -0.5321,0.48965 -0.64086,0.48965 -0.10875,0 -0.37644,-0.6262 -0.59485,-1.39156 -0.21841,-0.76535 -0.76458,-2.09943 -1.21371,-2.96462 -1.62108,-3.12275 -2.48643,-12.592706 -1.69608,-18.560923 1.17822,-8.897084 3.83105,-14.714734 10.48985,-23.004221 l 1.79822,-2.238588 h 12.45537 12.45537 L 164.4208,49.186052 c 8.44556,-8.333454 15.35556,-15.193275 15.35556,-15.244047 0,-0.05077 -0.76233,-1.705553 -1.69406,-3.677293 -1.85018,-3.915339 -2.01538,-4.763943 -1.22794,-6.307465 0.25637,-0.502532 1.2499,-1.77782 2.20784,-2.833972 1.63235,-1.799701 1.81962,-1.931549 2.98251,-2.099797 1.99745,-0.288995 2.27577,-0.392824 3.17914,-1.185994 1.05519,-0.926461 1.77834,-0.880908 4.58872,0.289058 2.43321,1.012948 3.81208,2.320696 4.34734,4.123107 0.37478,1.262041 0.50959,4.669883 0.2265,5.726197 -0.1839,0.686226 -0.86236,0.704607 -1.91834,0.05197 l -0.79696,-0.492549 -0.86517,0.759629 c -0.47585,0.417796 -0.86517,0.966876 -0.86517,1.220178 0,0.253302 -0.26618,0.691988 -0.59151,0.974857 -0.32533,0.28287 -0.75917,0.933351 -0.9641,1.445513 -0.35898,0.897175 -0.3504,0.963903 0.23463,1.825993 0.73136,1.077721 0.98517,1.967805 0.65522,2.297757 -0.38119,0.381186 -1.97255,0.677413 -3.67304,0.683723 l -1.55569,0.0058 -1.83244,1.760077 c -1.00785,0.968043 -2.59426,2.448292 -3.52537,3.289444 -1.92562,1.739589 -1.989,1.393807 0.5827,3.178805 0.67119,0.465869 1.22279,0.968477 1.22578,1.116909 0.003,0.148431 -0.22829,0.567011 -0.51395,0.930178 -0.29043,0.369226 -0.53047,1.039746 -0.54452,1.521059 -0.0218,0.747017 -0.18247,0.969219 -1.21587,1.681604 -0.90162,0.621538 -1.35703,0.788997 -1.87558,0.689666 -2.20179,-0.421772 -1.85701,-0.583836 -4.46861,2.100446 -3.94637,4.056188 -4.98689,6.874985 -4.45415,12.066424 0.19311,1.881797 0.37092,2.627472 0.70657,2.963118 0.43668,0.436683 0.50283,0.40006 2.50718,-1.38805 1.13227,-1.010112 2.21448,-1.836567 2.40491,-1.836567 0.33769,0 1.89324,1.440548 1.89324,1.753275 0,0.08644 -0.54358,0.875342 -1.20796,1.753108 -0.66438,0.877767 -1.27516,1.863673 -1.35729,2.190903 -0.37558,1.496446 0.53108,2.636876 3.2195,4.049601 1.6002,0.840882 1.76971,0.875334 5.40731,1.099021 2.06543,0.12701 4.31002,0.14324 4.98799,0.03607 1.31249,-0.207476 3.17301,-1.055534 4.87395,-2.221637 1.00345,-0.687921 1.0811,-0.702369 2.21415,-0.411977 1.72994,0.443373 2.31415,0.09118 5.41174,-3.26255 1.48779,-1.610802 3.54075,-3.745513 4.56215,-4.743803 2.14333,-2.094832 2.50468,-2.720409 2.73501,-4.73495 0.20776,-1.817138 0.3472,-2.04774 1.36401,-2.2557 0.6455,-0.132018 1.30028,-0.727544 3.19514,-2.905975 l 2.38327,-2.739928 -0.50176,-0.534092 c -0.27596,-0.293751 -0.50175,-0.674758 -0.50175,-0.846683 0,-0.509484 1.45879,-2.197598 1.89591,-2.193949 0.43508,0.0036 7.30045,5.942639 7.30045,6.315381 0,0.123852 -0.47765,1.176258 -1.06146,2.33868 -1.04651,2.083741 -1.06516,2.16425 -1.32445,5.71859 -0.26288,3.603489 -0.26346,3.605906 -1.29814,5.429482 -0.56932,1.003414 -1.42666,2.239524 -1.9052,2.746911 -0.76134,0.807249 -1.00829,0.922521 -1.9763,0.922521 -0.92385,0 -1.39887,-0.196614 -2.88109,-1.192487 -0.97616,-0.655868 -2.41317,-1.764435 -3.19335,-2.463482 l -1.41852,-1.270995 -0.86234,1.038141 c -0.47428,0.570978 -1.32722,1.237415 -1.89541,1.480972 -1.19759,0.513344 -1.78651,1.448783 -1.78651,2.837667 0,0.688538 -0.16153,1.089616 -0.60758,1.508665 l -0.60759,0.570794 0.60759,0.634179 c 0.33417,0.348799 0.60758,0.741677 0.60758,0.873061 0,0.131385 -0.49007,0.719848 -1.08905,1.307696 -0.59897,0.587849 -1.08904,1.198419 -1.08904,1.356823 0,0.158404 -1.00736,1.578711 -2.23859,3.156239 -1.87874,2.407174 -2.23859,3.008428 -2.23859,3.740394 0,0.818376 -0.55625,1.449888 -9.01976,10.240082 -4.96086,5.152357 -8.96265,9.460317 -8.89285,9.573257 0.0698,0.11293 -0.24883,4.14143 -0.70806,8.95221 l -0.83497,8.74687 -2.4879,2.83058 c -3.81324,4.33848 -9.77376,10.22778 -12.02304,11.87939 -5.85656,4.30038 -10.28941,4.94702 -22.35304,3.26073 -2.63296,-0.36805 -2.87905,-0.36782 -3.44526,0.003 -1.05018,0.6881 -1.43951,1.53836 -1.45202,3.17108 l -0.0115,1.50369 -7.76096,7.98277 c -7.61536,7.833 -7.75905,7.99909 -7.65934,8.85319 0.19285,1.65195 -0.34337,2.55711 -3.33176,5.62412 -1.55632,1.59726 -3.11578,3.39739 -3.46548,4.00028 -0.9249,1.59459 -2.10424,4.55738 -2.10563,5.28987 -0.002,0.84408 -1.73313,7.42916 -2.55259,9.7076 -2.13436,5.9345 -5.1305,9.54585 -12.94623,15.60451 -2.056857,1.59445 -6.207905,4.83435 -9.224551,7.19978 -3.016646,2.36543 -5.600591,4.30079 -5.7421,4.30079 -0.141509,0 -0.695439,-0.55431 -1.230956,-1.23178 z M 139.70192,106.81946 c 1.98456,-0.47377 6.613,-1.67443 10.28541,-2.66811 9.53853,-2.58096 13.38757,-3.28279 20.07701,-3.66084 1.81946,-0.10283 3.00719,-0.27158 3.05018,-0.43336 0.0387,-0.145726 0.16828,-0.700574 0.2879,-1.232995 l 0.21749,-0.968039 -4.82122,-4.961196 C 158.69733,82.500282 154.49878,77.113681 150.25662,69.106051 c -0.81291,-1.53448 -1.62709,-2.913678 -1.80928,-3.064885 -0.26335,-0.218563 -0.62243,0.06339 -1.75161,1.375355 -6.27467,7.290417 -9.38466,13.113574 -11.42129,21.385282 -0.95648,3.88471 -1.40907,7.094908 -1.74474,12.375427 l -0.2716,4.27251 1.05306,1.22253 c 0.63342,0.73535 1.1984,1.1799 1.41777,1.11557 0.20059,-0.0588 1.98843,-0.4946 3.97299,-0.96838 z m 0.62688,-6.88448 c 0,-0.546706 1.24376,-6.022776 1.95627,-8.613123 0.91408,-3.323138 4.3911,-13.673542 4.59337,-13.673542 0.0823,0 1.48213,1.748309 3.11071,3.885131 3.83743,5.035021 6.02024,7.646649 8.8904,10.636946 1.28252,1.336211 2.28894,2.469002 2.23647,2.517312 -0.0525,0.04831 -1.56561,0.330085 -3.36253,0.626166 -5.39669,0.889216 -12.00053,2.724089 -17.00117,4.72376 -0.2526,0.10101 -0.42352,0.0596 -0.42352,-0.10265 z M 51.753289,211.95096 c -3.213816,-1.73942 -6.761567,-4.13137 -8.460184,-5.70399 -1.221617,-1.131 -3.882305,-4.38085 -3.882305,-4.74197 0,-0.0627 2.041955,-0.18299 4.537679,-0.26726 7.165916,-0.24198 11.093365,-1.00298 15.246615,-2.95426 3.276953,-1.53958 5.350081,-3.03413 7.913935,-5.7053 5.222576,-5.44118 8.535152,-11.97783 16.666946,-32.88861 3.556272,-9.1449 5.319027,-13.25323 7.68407,-17.90871 4.308755,-8.4816 8.941445,-14.60079 16.152705,-21.33565 3.30597,-3.08757 9.10091,-7.77301 10.03112,-8.11056 0.43069,-0.15628 1.41288,-0.29243 2.18266,-0.30256 1.79664,-0.0236 3.28323,0.70612 4.84948,2.38057 2.49802,2.67058 2.96939,5.38852 1.62804,9.38734 -0.44313,1.32106 -0.93337,2.31294 -1.29162,2.61325 -0.31758,0.26621 -1.76587,1.42214 -3.21844,2.56874 -10.64614,8.40363 -16.24108,15.8744 -22.181649,29.61853 -0.862973,1.99658 -3.233082,7.93187 -5.266909,13.18953 -4.535773,11.72545 -6.501711,16.40185 -8.954593,21.3004 -6.917806,13.81527 -14.056609,18.62181 -29.644392,19.95947 -1.688875,0.14493 -1.701114,0.14156 -3.993158,-1.09896 z m 26.512635,-5.20528 c -0.223352,-0.34088 -0.372008,-0.70631 -0.330345,-0.81207 0.04166,-0.10576 0.753464,-0.92844 1.581781,-1.82819 1.2684,-1.37778 1.598156,-1.61278 2.089893,-1.48936 0.85749,0.21521 1.332029,-0.42702 0.772418,-1.04539 -0.399206,-0.44111 -0.375555,-0.52373 0.535644,-1.87103 0.52431,-0.77525 1.419172,-2.26126 1.988583,-3.30224 0.569411,-1.04099 1.116558,-1.80332 1.215882,-1.69407 0.231158,0.25425 1.934948,5.41387 1.934948,5.85963 0,0.39633 0.326598,0.12217 -4.571903,3.83788 -2.149575,1.63054 -4.111378,2.96462 -4.359561,2.96462 -0.248184,0 -0.633987,-0.2789 -0.85734,-0.61978 z m 5.684721,-3.86955 c 0.256494,-0.30905 0.244486,-0.44203 -0.06815,-0.75466 -0.439607,-0.43961 -0.909971,-0.24435 -0.909971,0.37774 0,0.79289 0.479538,0.97768 0.978119,0.37692 z m -46.684038,-3.03141 c -0.580333,-0.11408 -1.774116,-0.56499 -2.652853,-1.00202 -2.905684,-1.44513 -3.9153,-3.49736 -3.9153,-7.95859 0,-6.10868 2.641558,-16.84374 9.39217,-38.16895 l 2.39931,-7.57943 -2.000773,-2.6857 c -2.049047,-2.7505 -3.982546,-6.07398 -3.698753,-6.35778 0.08736,-0.0874 0.399577,-0.03 0.693809,0.12747 0.443888,0.23756 0.643131,0.20592 1.170273,-0.18584 0.874741,-0.65008 0.931748,-1.50613 0.14925,-2.24125 -0.589491,-0.5538 -0.669907,-0.56806 -1.278057,-0.22672 -0.356941,0.20035 -0.772632,0.61228 -0.923757,0.91541 -0.232759,0.46687 -0.298051,0.49047 -0.427017,0.15439 -0.270563,-0.70507 -0.161746,-3.3651 0.193446,-4.72877 0.339071,-1.30179 4.376337,-11.0369 4.746982,-11.44647 0.160263,-0.17709 33.961398,11.88762 34.858731,12.44221 0.245108,0.15148 0.06318,0.97908 -0.831278,3.78148 -2.210103,6.92443 -3.205543,8.95937 -5.050032,10.32364 l -0.658283,0.48689 -0.519247,-0.66011 c -0.694512,-0.88293 -1.855002,-0.81018 -2.391383,0.14992 -0.30658,0.54876 -0.316858,0.74786 -0.05985,1.15939 0.170659,0.27326 0.256284,0.58423 0.190278,0.69103 -0.18074,0.29244 -3.281909,1.16534 -7.290852,2.05219 l -3.579355,0.79181 -1.297372,4.3398 c -1.20941,4.04556 -3.34242,10.43841 -7.181094,21.52248 -2.590019,7.47861 -3.669576,12.36019 -4.254854,19.23976 -0.152873,1.79692 -0.333194,3.72997 -0.400713,4.29567 l -0.122763,1.02854 -2.102755,-0.0265 c -1.156516,-0.0146 -2.577573,-0.11985 -3.157905,-0.23393 z m 27.662482,-54.72958 c 0.207205,-0.29582 0.376737,-0.6972 0.376737,-0.89193 0,-0.47508 -0.96117,-1.47431 -1.418143,-1.47431 -0.539219,0 -1.485972,0.97843 -1.485972,1.53569 0,1.26433 1.807501,1.85832 2.527378,0.83055 z m -5.207049,-2.03587 c 0.275872,-0.35071 0.501585,-0.75208 0.501585,-0.89193 0,-0.47242 -1.048569,-1.37452 -1.597683,-1.37452 -0.486833,0 -1.548442,0.99553 -1.548442,1.45206 0,0.47149 1.062274,1.45205 1.573062,1.45205 0.327416,0 0.783308,-0.27131 1.071478,-0.63766 z m -3.286748,-1.84293 0.494703,-0.66553 -0.495049,-0.66553 c -0.599531,-0.80598 -1.41481,-0.9708 -2.033331,-0.41104 -0.756039,0.6842 -0.818133,1.29568 -0.198548,1.9552 0.711161,0.75699 1.572229,0.67479 2.232225,-0.2131 z m -4.758103,-1.19174 c 0.698267,-0.65598 0.706584,-1.10176 0.03391,-1.81779 -0.615933,-0.65563 -1.097318,-0.7036 -1.840042,-0.18338 -0.642939,0.45033 -0.709002,1.45313 -0.137345,2.08481 0.533996,0.59006 1.259598,0.55883 1.943473,-0.0836 z m -4.114163,-1.45205 c 0.308065,-0.28942 0.560119,-0.69079 0.560119,-0.89194 0,-0.53922 -0.97843,-1.48597 -1.53569,-1.48597 -1.264336,0 -1.858325,1.8075 -0.830557,2.52737 0.726438,0.50882 1.142024,0.47443 1.806128,-0.14946 z m -4.390077,-0.79385 c 0.326713,-0.32671 0.594023,-0.76728 0.594023,-0.97904 0,-0.49824 -1.074825,-1.57306 -1.573062,-1.57306 -0.439913,0 -1.573062,1.05147 -1.573062,1.45967 0,0.35292 1.333533,1.68645 1.686451,1.68645 0.149394,0 0.538937,-0.26731 0.86565,-0.59402 z m 30.769122,-3.32032 c 0.308066,-0.28941 0.56012,-0.65589 0.56012,-0.81439 0,-0.56426 -1.005364,-1.56352 -1.573063,-1.56352 -0.510787,0 -1.573062,0.98057 -1.573062,1.45206 0,0.0972 0.225713,0.46368 0.501584,0.8144 0.609796,0.77523 1.336505,0.81409 2.084421,0.11145 z m -3.954242,-1.95439 0.494704,-0.66553 -0.49505,-0.66552 c -0.645992,-0.86845 -1.430065,-0.96999 -2.16424,-0.28026 -0.713246,0.67006 -0.723838,0.94136 -0.06924,1.77355 0.648743,0.82474 1.548771,0.75937 2.233829,-0.16224 z m -4.924013,-1.39155 c 0.588519,-0.58852 0.622041,-1.38244 0.0835,-1.97753 -0.52564,-0.58082 -1.415564,-0.56256 -2.019573,0.0414 -0.624584,0.62458 -0.612367,1.16324 0.04218,1.85998 0.646313,0.68796 1.257466,0.71252 1.893891,0.0761 z m -3.948253,-1.73626 c 0.655631,-0.61593 0.703606,-1.09732 0.183382,-1.84004 -0.718896,-1.02637 -2.527378,-0.43196 -2.527378,0.83069 0,0.65979 0.784742,1.53556 1.375957,1.53556 0.224356,0 0.659973,-0.23679 0.968039,-0.52621 z m -4.722645,-2.0524 c 0.580825,-0.52564 0.562562,-1.41557 -0.04145,-2.01957 -0.624584,-0.62459 -1.163237,-0.61237 -1.859976,0.0422 -0.687969,0.64631 -0.712526,1.25747 -0.0761,1.89389 0.588519,0.58852 1.382439,0.62204 1.977524,0.0835 z m -4.47372,-0.85171 c 0.308066,-0.28942 0.56012,-0.74368 0.56012,-1.00949 0,-1.26433 -1.807502,-1.85832 -2.527378,-0.83055 -0.508818,0.72643 -0.474425,1.14202 0.149467,1.80612 0.655989,0.69827 1.101767,0.70659 1.817791,0.0339 z m -4.238626,-1.56839 c 0.618179,-0.55944 0.568791,-1.66171 -0.0953,-2.12685 -0.726438,-0.50882 -1.142024,-0.47443 -1.806128,0.14947 -0.698267,0.65598 -0.706584,1.10176 -0.03391,1.81779 0.619416,0.65933 1.319349,0.71705 1.935337,0.15959 z m -5.113284,-1.5411 c 0.799953,-0.42812 1.04506,-1.15609 0.61186,-1.81724 -0.680586,-1.0387 -1.22023,-1.1578 -2.056746,-0.45392 -0.898884,0.75636 -0.92909,1.14514 -0.149541,1.92469 0.656847,0.65685 0.911203,0.71212 1.594427,0.34647 z m 45.239739,72.44659 c -0.137874,-0.37686 -0.303514,-0.83444 -0.368089,-1.01685 -0.06457,-0.1824 0.576899,-1.10809 1.425498,-2.05708 2.168289,-2.42479 3.546465,-4.46491 3.546465,-5.24985 0,-0.62238 0.08967,-0.67668 1.532383,-0.92791 1.858221,-0.3236 2.09776,-0.32906 2.09776,-0.0479 0,0.26757 -7.472641,9.79204 -7.77086,9.90456 -0.116863,0.0441 -0.325284,-0.22816 -0.463157,-0.60502 z m -25.727996,-1.45156 c -0.405063,-0.40506 -0.03585,-1.27048 1.615476,-3.7866 5.027373,-7.66019 6.775259,-11.59685 11.93874,-26.88895 1.794166,-5.31358 3.967161,-11.49496 4.828878,-13.73642 4.860523,-12.64293 9.494718,-20.20304 18.385426,-29.99351 3.490919,-3.8442 12.395719,-12.31463 12.946139,-12.31463 0.24951,0 0.6227,0.51456 1.00926,1.39156 0.51642,1.17163 1.38881,3.83998 1.38881,4.24791 0,0.0659 -1.27962,1.18694 -2.84361,2.49127 -5.83925,4.86981 -11.436646,10.75115 -15.064069,15.82821 -4.862241,6.80537 -7.596411,12.46043 -14.27513,29.52518 -6.040115,15.43304 -8.690075,21.20655 -12.051547,26.25688 -1.684084,2.53019 -5.013776,6.21384 -6.146005,6.79934 -0.704473,0.36429 -1.468548,0.44358 -1.732368,0.17976 z m 28.153783,-8.85105 c 0,-0.20178 0.162705,-0.75628 0.361567,-1.23223 0.3016,-0.72183 0.512325,-0.88866 1.27055,-1.00591 3.355239,-0.51886 5.163835,-1.38591 7.129424,-3.4179 2.084515,-2.15492 2.044455,-2.17852 1.821845,1.07328 -0.10608,1.54958 -0.28013,2.90467 -0.38677,3.01131 -0.10664,0.10664 -0.729258,0.29294 -1.3836,0.414 -0.654343,0.12106 -2.193643,0.44069 -3.420668,0.71028 -1.227025,0.26959 -2.942268,0.56304 -3.811651,0.65211 -1.322344,0.13548 -1.580697,0.10198 -1.580697,-0.20494 z m 1.450861,-3.51766 c -6.59e-4,-0.0965 0.179471,-0.67957 0.400287,-1.2957 0.388301,-1.08347 0.439452,-1.12475 1.557708,-1.25719 3.010781,-0.35659 5.051754,-2.62035 6.139118,-6.80927 0.205931,-0.79332 0.374422,-1.63733 0.374422,-1.87558 0,-0.37497 0.22762,-0.43317 1.69406,-0.43317 0.93174,0 1.69407,0.0568 1.69407,0.12619 0,0.0694 -0.2814,0.55142 -0.62534,1.07115 -0.34393,0.51972 -0.86255,1.69313 -1.15248,2.60758 -0.96927,3.05714 -4.378215,6.5143 -7.305015,7.40834 -1.567471,0.47881 -2.775328,0.67788 -2.77683,0.45765 z m 18.176035,-1.80902 c 0.0546,-1.23213 0.34127,-1.67938 1.28424,-2.00356 1.2382,-0.42567 3.15589,-2.3376 3.93081,-3.91901 0.54007,-1.10212 0.60838,-1.51095 0.5337,-3.1943 l -0.0856,-1.93042 0.95665,-0.98036 c 0.52616,-0.5392 1.04345,-0.98036 1.14954,-0.98036 0.28523,0 0.23413,4.28624 -0.0708,5.93555 -0.5576,3.01633 -2.06676,4.82487 -5.52942,6.62635 -1.04727,0.54485 -1.96918,0.99063 -2.04869,0.99063 -0.0795,0 -0.13369,-0.24503 -0.12043,-0.54452 z m -6.31637,-14.87181 c 0,-0.10794 0.16064,-1.56951 0.35698,-3.24793 0.66776,-5.70857 2.50772,-13.07577 3.41634,-13.67907 0.49596,-0.3293 0.49658,-0.32422 0.19003,1.5464 -0.16916,1.03223 -0.31333,2.44524 -0.32038,3.14001 -0.007,0.69477 -0.18898,2.43724 -0.40429,3.87215 -0.21531,1.43491 -0.51509,3.91578 -0.66617,5.51305 l -0.2747,2.90411 -1.1489,0.0738 c -0.6319,0.0406 -1.14891,-0.0145 -1.14891,-0.12249 z m 76.78468,-90.828312 c -2.64588,-0.182136 -3.1089,-0.284291 -4.39461,-0.969568 -1.87874,-1.001359 -2.4493,-1.557926 -2.4493,-2.38925 0,-0.666647 0.81455,-1.988228 2.23706,-3.629571 l 0.7103,-0.819576 -1.75426,-1.766052 -1.75427,-1.766052 -1.95519,1.799097 c -1.07536,0.989504 -2.02765,1.799098 -2.11622,1.799098 -0.3096,0 -0.48356,-4.942388 -0.22148,-6.29225 0.43252,-2.227638 1.59676,-4.251723 3.71423,-6.457328 l 1.93257,-2.013008 h 1.60453 c 1.31274,0 1.76646,-0.11003 2.49491,-0.605024 0.48971,-0.332763 1.0926,-0.605024 1.33977,-0.605024 0.47454,0 7.07858,4.733749 7.07858,5.0739 0,0.10919 -0.1643,0.261574 -0.36511,0.338632 -0.20081,0.07706 -0.49055,0.415422 -0.64387,0.751921 -0.15332,0.336499 -0.48142,0.611816 -0.72912,0.611816 -0.2477,0 -0.57359,0.270451 -0.7242,0.601002 -0.1811,0.397487 -0.54277,0.651454 -1.06803,0.749994 -1.42517,0.267364 -2.00948,1.541851 -0.90176,1.966922 0.23049,0.08845 0.66198,0.439917 0.95886,0.781042 0.71164,0.817686 1.36675,0.462458 1.53716,-0.8335 0.10774,-0.819435 0.22708,-0.956181 1.08904,-1.247829 0.53242,-0.180148 1.13419,-0.517229 1.33728,-0.74907 0.20308,-0.23184 0.78865,-0.636707 1.30128,-0.899704 l 0.93204,-0.478177 1.27496,1.369746 c 1.15528,1.241173 1.3708,1.660881 2.296,4.471335 1.14362,3.473898 1.82557,4.820935 2.89709,5.722564 0.40193,0.338198 0.73078,0.772621 0.73078,0.965384 0,0.192763 -0.43594,0.744315 -0.96874,1.225672 -1.06409,0.961341 -2.04349,1.132656 -2.97732,0.520788 -0.50132,-0.328475 -0.65242,-0.28389 -2.06509,0.609317 -3.76429,2.380109 -4.62242,2.558944 -10.37787,2.162753 z m 8.5237,-18.148287 c -0.0823,-0.133105 -0.4154,-0.242009 -0.74031,-0.242009 -0.32491,0 -0.59074,-0.05757 -0.59074,-0.127937 0,-0.334899 3.53955,-4.560061 4.73665,-5.654146 2.33413,-2.133261 2.43256,-1.517315 0.2712,1.696989 -3.0978,4.606947 -3.33287,4.883588 -3.6768,4.327103 z"
     id="path8" /></svg>
