<?xml version="1.0" encoding="UTF-8" standalone="no"?>
<!-- Created with Inkscape (http://www.inkscape.org/) -->

<svg
   version="1.1"
   id="svg1"
   width="722.66669"
   height="696"
   viewBox="0 0 722.66669 696"
   sodipodi:docname="gorilla_arms_icon.svg"
   inkscape:export-filename="gorilla_arms_icon.svg"
   inkscape:export-xdpi="96"
   inkscape:export-ydpi="96"
   xmlns:inkscape="http://www.inkscape.org/namespaces/inkscape"
   xmlns:sodipodi="http://sodipodi.sourceforge.net/DTD/sodipodi-0.dtd"
   xmlns="http://www.w3.org/2000/svg"
   xmlns:svg="http://www.w3.org/2000/svg">
  <defs
     id="defs1">
    <filter
       style="color-interpolation-filters:sRGB"
       inkscape:label="Drop Shadow"
       id="filter23"
       x="-0.05580622"
       y="-0.057077092"
       width="1.1116124"
       height="1.1141542">
      <feFlood
         result="flood"
         in="SourceGraphic"
         flood-opacity="1.000000"
         flood-color="rgb(58,63,94)"
         id="feFlood22" />
      <feGaussianBlur
         result="blur"
         in="SourceGraphic"
         stdDeviation="15.000000"
         id="feGaussianBlur22" />
      <feOffset
         result="offset"
         in="blur"
         dx="0.000000"
         dy="0.000000"
         id="feOffset22" />
      <feComposite
         result="comp1"
         operator="out"
         in="flood"
         in2="offset"
         id="feComposite22" />
      <feComposite
         result="comp2"
         operator="atop"
         in="comp1"
         in2="SourceGraphic"
         id="feComposite23" />
    </filter>
  </defs>
  <sodipodi:namedview
     id="namedview1"
     pagecolor="#1b1f21"
     bordercolor="#eeeeee"
     borderopacity="1"
     inkscape:showpageshadow="0"
     inkscape:pageopacity="0"
     inkscape:pagecheckerboard="0"
     inkscape:deskcolor="#505050"
     showgrid="false"
     inkscape:export-bgcolor="#1b1f21ff" />
  <g
     inkscape:groupmode="layer"
     inkscape:label="Image"
     id="g1">
    <g
       inkscape:groupmode="layer"
       id="layer2"
       inkscape:label="Image 1"
       transform="translate(2.1829353,9.5090141)">
      <rect
         style="fill:#1b1f21;fill-opacity:1"
         id="rect38"
         width="787.67389"
         height="767.29266"
         x="-33.569054"
         y="-32.370159" />
    </g>
    <path
       style="fill:#e64539;fill-opacity:1;filter:url(#filter23)"
       d="m 239.03005,650.45135 -5.63663,-1.26307 -3.88593,-3.88593 -3.88593,-3.88593 -1.43107,-8.37488 C 223.4034,628.43536 222.34383,618.96667 221.8359,612 l -0.92352,-12.66667 5.21415,4.6987 5.21414,4.6987 10.32967,3.00141 10.32967,3.00141 -0.0243,1.63322 c -0.0133,0.89828 -1.20242,8.83323 -2.6424,17.63323 -1.43998,8.8 -2.62906,16.45 -2.6424,17 -0.0134,0.55 -0.47427,0.93574 -1.02427,0.85721 -0.55,-0.0785 -3.53648,-0.71117 -6.63662,-1.40586 z m 14.30329,-4.26582 c 0,-0.99796 1.1783,-9.49036 2.61844,-18.87202 1.44015,-9.38165 2.3339,-17.51794 1.98613,-18.08065 -0.34777,-0.56271 -5.27607,-2.57402 -10.95178,-4.46958 l -10.31946,-3.44648 -6.49286,-5.56517 -6.49286,-5.56517 0.90662,-8.75989 c 0.49864,-4.81795 1.43772,-16.2599 2.08684,-25.42657 l 1.18024,-16.66667 2.67698,-6.66666 c 1.47234,-3.66667 2.69792,-6.06667 2.72352,-5.33334 0.0256,0.73334 -0.80083,4.51669 -1.8365,8.40745 l -1.88305,7.07411 5.63442,6.92589 5.63441,6.92589 12.99901,1.88449 12.99902,1.88449 1.74619,-1.88449 c 0.96041,-1.03647 9.9633,-21.28931 20.00642,-45.0063 10.04312,-23.71699 18.07147,-44.10192 17.84077,-45.29983 l -0.41945,-2.17803 -13.32152,-5.84326 c -7.32684,-3.21379 -16.08669,-6.93667 -19.46634,-8.27307 l -6.1448,-2.4298 -3.72024,1.93008 c -2.04613,1.06154 -3.9047,1.74561 -4.13017,1.52014 -0.22547,-0.22546 0.45139,-4.5862 1.50412,-9.69051 C 261.75018,438.17626 264.7385,428.6 267.33815,422 l 4.72665,-12 7.43842,-9.33333 c 4.09113,-5.13334 8.04999,-9.93334 8.79748,-10.66667 l 1.35906,-1.33333 -1.49654,2.91234 c -0.8231,1.60179 -1.49655,6.17832 -1.49655,10.17008 v 7.25772 l 1.66667,1.32895 c 0.91667,0.73092 10.27164,5.90582 20.78882,11.49979 10.51718,5.59396 19.61627,9.86546 20.22019,9.49221 0.60393,-0.37324 16.99527,-23.37741 36.42521,-51.12036 l 35.32717,-50.44175 -0.88069,-7.17322 -0.8807,-7.17322 -18,-11.65027 c -9.9,-6.40764 -18.92124,-11.67696 -20.04721,-11.7096 L 359.23892,292 l -23.06313,28.05483 -23.06312,28.05483 -2.31665,-0.73527 -2.31665,-0.73528 -8.79453,5.68045 -8.79453,5.68044 -13.56085,14.66667 c -7.45846,8.06666 -18.15878,20.36458 -23.77848,27.32869 -5.6197,6.96412 -15.02793,17.46412 -20.90717,23.33334 L 221.95429,434 l -8.25744,15.33333 c -4.5416,8.43334 -11.5083,22.83334 -15.48157,32 -3.97327,9.16667 -9.71589,22.28622 -12.76139,29.15455 l -5.53727,12.48789 0.17938,30.84545 0.17938,30.84545 -1.60156,8.66666 C 177.79297,598.1 175.62267,605.9 173.85093,610.66667 L 170.6296,619.33333 163.64813,624 c -3.8398,2.56667 -8.88975,5.01544 -11.22211,5.44171 l -4.24066,0.77505 -0.94279,-10.10838 C 146.72404,614.54877 145.63233,604.6 144.81656,598 L 143.33334,586 132,578.28405 l -11.33333,-7.71594 -1.36644,-9.87272 c -0.75154,-5.42999 -1.81053,-10.3168 -2.35331,-10.85958 -0.54277,-0.54278 -2.92788,0.87136 -5.30022,3.14253 l -4.31336,4.1294 -5.80126,1.53376 c -3.19069,0.84357 -5.983953,1.34433 -6.20725,1.1128 -0.223297,-0.23153 -2.515182,-10.24342 -5.093078,-22.24863 -2.577896,-12.00522 -5.184633,-22.26312 -5.79275,-22.79533 -0.608116,-0.53221 -5.931998,-4.59258 -11.830849,-9.02305 l -10.725182,-8.0554 -4.82212,-17.81594 c -2.652166,-9.79877 -4.668064,-17.97372 -4.479772,-18.16655 0.188291,-0.19283 3.82897,1.19135 8.090397,3.07595 l 7.748048,3.42656 1.654288,-1.74262 c 0.909857,-0.95844 7.715465,-20.7129 15.123572,-43.8988 7.408107,-23.1859 13.469285,-43.43258 13.469285,-44.99263 v -2.83645 l -13.413452,-8.93073 -13.413451,-8.93073 0.835437,-3.32865 c 0.45949,-1.83076 2.129564,-5.14608 3.711275,-7.36739 1.581711,-2.22131 2.986314,-4.79146 3.12134,-5.71146 0.135027,-0.91999 3.370666,-5.26579 7.190311,-9.65733 3.819644,-4.39154 8.306061,-8.87655 9.969816,-9.96668 l 3.025009,-1.98206 11.590576,9.93014 c 6.37481,5.46158 12.34612,9.93015 13.26958,9.93015 0.92345,0 22.31849,-20.71796 47.54452,-46.03992 l 45.86551,-46.03991 -0.44861,-4.29342 c -0.24673,-2.36138 -0.95406,-5.23974 -1.57184,-6.39636 -0.61778,-1.15661 -5.04267,-5.05661 -9.83308,-8.66666 -4.79042,-3.61005 -8.7248,-6.98546 -8.74306,-7.5009 -0.0183,-0.51545 2.4359,-2.91545 5.45369,-5.33334 3.0178,-2.41789 9.09336,-9.35387 13.50125,-15.41329 l 8.01435,-11.01712 4.32458,-2.05215 4.32458,-2.05215 12.10196,3.40261 c 6.65607,1.87143 13.00571,3.40261 14.1103,3.40261 1.10458,0 24.98708,-16.27502 53.07221,-36.16671 28.08513,-19.89169 52.01112,-36.99169 53.16886,-38 1.15774,-1.00831 4.45774,-1.82995 7.33333,-1.82586 2.87559,0.004 7.54911,0.65183 10.38559,1.43942 l 5.15724,1.43199 -0.72668,4.47801 -0.72668,4.47801 1.56944,1.17268 c 0.86319,0.64497 8.46944,3.762 16.90277,6.92672 8.43334,3.16472 19.53334,7.7346 24.66667,10.15528 5.13334,2.42068 17.09979,9.89799 26.59212,16.61624 9.49233,6.71826 23.64775,17.24468 31.4565,23.39206 l 14.19772,11.17706 17.87683,2.27587 17.87684,2.27587 12.36849,12.03346 12.3685,12.03345 -0.64627,1.68415 c -0.35545,0.92628 -2.81807,9.95023 -5.4725,20.05322 -2.65442,10.10299 -8.67003,29.89569 -13.36802,43.98376 -4.69798,14.08808 -11.13999,31.51836 -14.31557,38.73396 -3.17558,7.2156 -7.8163,16.08798 -10.31272,19.71639 -2.49641,3.62842 -5.7997,10.20522 -7.34064,14.61511 -1.54093,4.40988 -5.66293,13.8609 -9.15999,21.00225 -3.49706,7.14135 -6.91842,12.98427 -7.60303,12.98427 -0.6846,0 -4.514,5.01549 -8.50976,11.14554 -3.99577,6.13005 -7.98203,12.88005 -8.85837,15 -0.87634,2.11995 -1.65281,4.15446 -1.72548,4.52113 -0.0727,0.36667 -0.54063,1.30707 -1.03989,2.08978 -0.49926,0.78271 -2.13025,5.985 -3.62441,11.56065 -1.49417,5.57565 -4.54689,13.33525 -6.78384,17.24356 -2.23695,3.9083 -5.31106,9.80601 -6.83136,13.10601 -1.5203,3.3 -6.37506,13.5 -10.78835,22.66667 -4.4133,9.16666 -8.77605,17.56666 -9.69501,18.66666 -0.91896,1.1 -5.42409,10.4 -10.01141,20.66667 -4.58732,10.26667 -9.98042,23.46667 -11.98467,29.33333 -2.00424,5.86667 -5.56039,14.7019 -7.90254,19.63385 -2.34215,4.93194 -7.49921,13.109 -11.46013,18.17123 -3.96093,5.06223 -8.21037,9.59113 -9.4432,10.06421 -1.23283,0.47308 -2.43111,0.67056 -2.66283,0.43883 -0.23173,-0.23173 1.94897,-7.89585 4.846,-17.03138 2.89703,-9.13554 5.01302,-17.30355 4.7022,-18.15113 -0.31081,-0.84759 -6.54546,-4.89759 -13.85476,-9 C 371.58116,563.35652 364.41383,560 362.96305,560 c -1.45078,0 -3.59847,1.35 -4.77266,3 l -2.13487,3 0.84589,-2.66667 c 0.46524,-1.46666 1.26721,-3.26666 1.78215,-4 0.51494,-0.73333 1.65128,-5.89572 2.52519,-11.47197 0.87391,-5.57625 1.45506,-12.47625 1.29145,-15.33333 -0.16361,-2.85708 0.36392,-6.3947 1.17231,-7.86136 0.80838,-1.46667 2.82064,-5.66667 4.47168,-9.33334 1.65104,-3.66666 4.29037,-8.76666 5.86519,-11.33333 1.57481,-2.56667 5.05644,-10.06667 7.73694,-16.66667 2.6805,-6.6 5.21994,-14.1 5.6432,-16.66666 C 387.81277,468.1 388.77821,463.3 389.53494,460 c 0.75673,-3.3 2.67094,-9.9 4.2538,-14.66667 1.58287,-4.76666 7.62991,-17.36666 13.43787,-28 5.80796,-10.63333 12.24927,-22.69433 14.31401,-26.80222 2.06474,-4.10789 3.91278,-8.86735 4.10674,-10.57658 l 0.35265,-3.10768 -4.66666,-1.09301 -4.66667,-1.09301 -10.66667,1.44538 c -5.86667,0.79496 -12.72491,2.44627 -15.24055,3.66959 -2.51564,1.22331 -8.42222,6.7242 -13.12573,12.2242 -4.70351,5.5 -12.33594,15.74878 -16.96095,22.77508 -4.62501,7.02629 -11.19538,18.42629 -14.60082,25.33333 -3.40545,6.90704 -9.28036,18.55826 -13.05536,25.89159 -3.775,7.33333 -8.47184,16.63333 -10.43742,20.66667 -1.96558,4.03333 -4.61182,9.73333 -5.88053,12.66666 -1.26871,2.93334 -2.09492,5.42034 -1.83603,5.52669 0.2589,0.10634 -0.50723,1.30634 -1.70252,2.66666 -1.19528,1.36033 -4.77699,8.17332 -7.95937,15.13999 -3.18237,6.96666 -7.43474,15.5097 -9.4497,18.98452 -2.01497,3.47481 -4.86462,9.17481 -6.33257,12.66666 l -2.66901,6.34882 -0.54773,9.37755 c -0.30125,5.15766 -1.26821,12.95766 -2.14878,17.33334 -0.88057,4.37567 -2.74307,11.85577 -4.13888,16.62244 -1.39582,4.76667 -3.75439,13.4396 -5.24127,19.27319 -1.48688,5.83358 -4.04653,12.58202 -5.6881,14.99652 l -2.98468,4.39001 -5.65214,2.67014 C 257.2392,646.79844 254.3892,648 254.01454,648 c -0.37466,0 -0.6812,-0.81651 -0.6812,-1.81447 z m 12.27997,-9.45676 c 1.25399,-1.6989 3.57987,-7.80787 5.16864,-13.5755 1.58877,-5.76763 4.22845,-14.9866 5.86596,-20.4866 1.63751,-5.5 3.65703,-14.5 4.48781,-20 0.83077,-5.5 1.89179,-13.6 2.35781,-18 l 0.84731,-8 L 300.21691,524 c 8.73184,-17.96667 17.5158,-35.96667 19.51991,-40 2.00411,-4.03333 6.44258,-12.73333 9.86327,-19.33333 3.42069,-6.6 9.02221,-17.7 12.44783,-24.66667 3.42562,-6.96667 8.71623,-16.74275 11.75691,-21.72462 3.04068,-4.98188 10.21423,-15.02859 15.94122,-22.32602 5.72699,-7.29744 12.47276,-14.83934 14.99059,-16.75979 l 4.57789,-3.49172 11.00941,-1.95771 11.0094,-1.95771 7.94382,0.67414 7.94381,0.67415 1.51803,2.07604 1.51804,2.07604 12.25431,-25.6414 c 6.73986,-14.10277 13.00096,-27.1414 13.91354,-28.97473 l 1.65924,-3.33334 3.42728,-0.40285 3.42729,-0.40286 19.12256,8.78752 c 10.5174,4.83314 19.9062,9.43789 20.86399,10.23278 0.95779,0.7949 1.74143,3.07153 1.74143,5.05919 v 3.61391 l -22.83606,50.55616 c -12.55983,27.80588 -24.06442,51.90615 -25.56575,53.55615 l -2.72969,3 h -4.34515 -4.34515 l -19.42243,-9.24618 -19.42244,-9.24619 v -4.16584 -4.16583 l -1.35239,0.83582 c -0.74381,0.4597 -2.62666,3.33361 -4.1841,6.38645 -1.55745,3.05285 -4.24888,9.71723 -5.98095,14.80974 -1.73207,5.09251 -3.10539,10.20402 -3.0518,11.3589 0.0536,1.15489 1.19018,-0.97119 2.52579,-4.72463 1.3356,-3.75344 3.11288,-8.10344 3.94949,-9.66667 l 1.52112,-2.84223 4.95309,0.0829 4.95308,0.0829 19.33334,7.63992 19.33333,7.63992 0.40431,4.78423 0.40431,4.78424 -18.04393,39.019 c -9.92417,21.46045 -19.01385,40.49928 -20.1993,42.30851 l -2.15537,3.28951 -12.87168,-0.95525 -12.87167,-0.95524 -7,-5.96346 -7,-5.96346 v -5.10542 c 0,-2.80799 2.01916,-10.90076 4.48703,-17.98394 2.46787,-7.08318 4.03508,-12.38935 3.48269,-11.79148 -0.55238,0.59787 -2.84953,4.68704 -5.10476,9.08704 -2.25523,4.4 -4.98163,11.6 -6.05866,16 -1.07703,4.4 -2.2957,12.2 -2.70815,17.33333 l -0.74991,9.33333 10.81149,5.26212 c 5.94632,2.89417 13.44297,6.93096 16.65921,8.97064 l 5.84772,3.70851 v 3.79583 c 0,2.08771 -1.49189,8.25092 -3.31531,13.69603 l -3.31531,9.90021 L 394.61459,596 c 2.15153,-2.56667 5.95674,-8.86667 8.45602,-14 2.49928,-5.13333 5.59032,-12.63333 6.86899,-16.66667 C 411.21826,561.3 417.00353,547.2 422.79575,534 c 5.79222,-13.2 13.53449,-29.1 17.20506,-35.33333 3.67056,-6.23334 7.72197,-14.02914 9.00314,-17.32401 1.28117,-3.29487 5.10578,-11.39487 8.49914,-18 3.39335,-6.60513 7.79153,-17.40933 9.77371,-24.00933 1.98219,-6.6 6.04159,-16.5 9.02089,-22 2.9793,-5.5 8.1442,-13.6 11.47755,-18 3.33335,-4.4 8.86714,-14.3 12.29731,-22 3.43016,-7.7 6.96447,-16.25259 7.85403,-19.00575 0.88955,-2.75316 4.05253,-8.65244 7.02884,-13.10949 2.97631,-4.45706 8.24942,-15.10447 11.71802,-23.66092 3.4686,-8.55644 9.34313,-24.85717 13.05451,-36.22384 3.71138,-11.36666 8.90839,-28.16666 11.54891,-37.33333 2.64051,-9.16667 5.12919,-17.73343 5.53039,-19.03725 l 0.72945,-2.37058 -9.76834,-10.08652 c -5.37259,-5.54758 -10.70788,-10.59281 -11.85621,-11.21162 -1.14833,-0.61881 -9.71433,-2.14712 -19.03555,-3.39625 -9.32123,-1.24912 -17.16735,-2.03712 -17.43583,-1.75112 -0.26848,0.286 -8.22235,13.72001 -17.67528,29.85334 l -17.18715,29.33333 -10.6225,13.5995 -10.62249,13.59949 -4.70185,0.0672 -4.70184,0.0672 -25.29816,-17 -25.29816,-17 v -4.58397 -4.58397 l 12.75629,-11.41603 12.75628,-11.41603 32.10858,-19.90979 32.10858,-19.90979 -0.61857,-1.61195 c -0.34021,-0.88658 -7.6115,-6.56114 -16.15842,-12.61014 -8.54691,-6.04899 -19.20757,-13.01421 -23.69035,-15.47825 -4.48278,-2.46405 -8.7807,-4.48008 -9.55094,-4.48008 -0.77023,0 -1.71273,1.05 -2.09443,2.33333 -0.3817,1.28333 -10.28709,14.51247 -22.01197,29.39809 l -21.31797,27.06476 -15.14354,11.92312 -15.14354,11.92312 -4.66666,0.002 -4.66667,0.002 -22,-13.67449 -22,-13.67448 -0.38101,-4.64832 -0.38101,-4.64831 15.04768,-14.92245 15.04767,-14.92244 30.66667,-15.74422 30.66667,-15.74423 -0.66667,-5.25487 -0.66667,-5.25488 -4.48522,-1.15594 -4.48523,-1.15594 -3.58515,1.24979 c -1.97184,0.68739 -22.45349,14.63185 -45.51478,30.9877 -23.06129,16.35586 -46.42548,32.92832 -51.92041,36.8277 l -9.9908,7.08978 h -4.19147 c -2.30531,0 -9.06966,-1.41293 -15.03189,-3.13983 l -10.84041,-3.13983 -5.81886,5.47316 c -3.20038,3.01024 -8.003,8.91439 -10.67249,13.12032 l -4.85361,7.64717 -4.28955,2.21821 -4.28955,2.21821 5.2827,4.13463 c 2.90548,2.27404 6.94859,5.73847 8.9847,7.69873 l 3.70202,3.5641 v 7.76219 7.76218 l -46.32619,46.34038 -46.32619,46.34038 -3.34048,-0.007 c -1.83726,-0.004 -4.95437,-1.05386 -6.92691,-2.33334 -1.97254,-1.27947 -7.22288,-5.53597 -11.66743,-9.45889 l -8.080979,-7.13258 -4.332579,4.69696 c -2.382919,2.58333 -5.83258,6.69299 -7.665913,9.13258 -1.833333,2.43959 -4.833333,7.32336 -6.666667,10.85282 l -3.333333,6.41719 2,1.19783 c 1.1,0.65881 6.8,4.37763 12.666667,8.26404 L 102,371.36247 l 0.40944,5.64063 0.40944,5.64063 -10.820698,33.67814 c -5.951381,18.52297 -12.351543,38.3781 -14.22258,44.12251 L 74.373715,470.88875 66.716921,470.44438 59.060127,470 l 2.31763,7.33333 c 1.274696,4.03334 3.003384,9.86041 3.84153,12.94906 l 1.523901,5.61573 11.221762,8.15315 11.221762,8.15315 1.556098,7.56446 c 0.855854,4.16045 2.850545,13.56445 4.432647,20.89779 L 98.052007,554 l 2.841723,0.40873 2.84173,0.40874 4.64162,-4.0754 4.64163,-4.0754 h 3.32739 c 1.83006,0 3.94236,0.75 4.694,1.66666 0.75164,0.91667 2.1955,5.85525 3.20856,10.97463 l 1.84194,9.30795 10.61932,7.41428 10.61931,7.41428 2.26026,19.94443 c 1.24315,10.96944 2.29407,20.39443 2.33539,20.94443 0.0413,0.55 0.71702,1 1.50156,1 0.78454,0 3.98648,-1.76136 7.11543,-3.91413 l 5.689,-3.91413 2.96698,-7.75254 c 1.63184,-4.26389 3.85479,-13.45253 4.9399,-20.4192 L 176.11066,576.66667 176.87503,548 177.63939,519.33333 186.95403,498 c 5.12306,-11.73333 10.78292,-24.63333 12.57748,-28.66667 1.79455,-4.03333 6.97381,-14.23333 11.50947,-22.66666 l 8.24664,-15.33334 10.68953,-10.6713 c 5.87924,-5.86922 15.28746,-16.36922 20.90716,-23.33333 5.6197,-6.96412 16.31217,-19.24451 23.76105,-27.28976 7.44888,-8.04525 16.95095,-16.89491 21.1157,-19.6659 4.16476,-2.77099 9.52195,-5.68493 11.90488,-6.47543 l 4.3326,-1.43726 20.33407,-24.88361 c 11.18374,-13.68598 21.38407,-25.93956 22.6674,-27.23017 C 356.28334,289.05596 358.99407,288 361.02384,288 h 3.69049 l 19.30951,12.35781 19.3095,12.35781 0.38955,10.31604 0.38955,10.31603 -35.48567,50.65949 -35.48568,50.65949 -4.90387,-0.0614 -4.90388,-0.0614 -19.33333,-10.38929 -19.33334,-10.38929 -1.27572,-4.21594 c -0.70165,-2.31876 -1.7108,-4.21594 -2.24255,-4.21594 -0.53174,0 -2.14679,1.65713 -3.58899,3.68252 -1.4422,2.02538 -4.72856,9.07538 -7.30303,15.66666 -2.57446,6.59129 -5.10211,14.23416 -5.617,16.98416 l -0.93615,5 h 4.43267 4.43267 l 17.38238,7.5081 c 9.56032,4.12945 18.13239,8.10292 19.04906,8.82992 0.91667,0.72701 1.66667,3.24445 1.66667,5.59432 v 4.27248 l -18.6367,43.72486 c -10.25018,24.04867 -19.32365,44.55258 -20.16326,45.56425 -0.83961,1.01167 -3.4031,1.83712 -5.69664,1.83433 -2.29354,-0.003 -9.57007,-0.87331 -16.17007,-1.93447 l -12,-1.92939 -3.49455,-4.14233 -3.49455,-4.14233 -0.83878,2.18585 c -0.46134,1.20221 -0.88259,5.58677 -0.93613,9.74346 -0.0535,4.15669 -0.56159,10.82941 -1.12901,14.82828 l -1.03168,7.27067 4.79568,5.12479 4.79568,5.12479 12,4.29111 12,4.2911 0.38344,6.64677 c 0.2109,3.65572 -0.43276,12.13545 -1.43034,18.84384 l -1.81378,12.19708 2.76367,-1.28824 c 1.52003,-0.70854 3.78967,-2.67825 5.04365,-4.37714 z M 128,524.67582 c -7.7,-3.30204 -14.75,-7.01961 -15.66666,-8.26127 l -1.66667,-2.25756 0.0102,-8.74516 0.0102,-8.74516 2.57381,-8.46399 2.57381,-8.46398 -1.25066,-3.28948 c -0.68787,-1.80922 -1.25066,-8.82853 -1.25066,-15.59847 v -12.30899 l 5.13764,-15.27088 c 2.8257,-8.39898 7.08117,-19.11365 9.45659,-23.81037 2.37543,-4.69672 6.33039,-11.59672 8.78881,-15.33333 2.45841,-3.73662 5.71552,-10.16223 7.23801,-14.27915 1.52249,-4.11692 3.80559,-8.37959 5.07356,-9.47261 1.26796,-1.09302 5.38568,-3.63205 9.15049,-5.64229 3.7648,-2.01025 7.9648,-3.44266 9.33333,-3.18314 l 2.48823,0.47185 0.42477,4.41571 0.42477,4.41571 -7.41677,12.24004 C 159.35357,389.82532 153.349,399.23333 150.0893,404 l -5.92671,8.66667 1.58539,1.45281 c 0.87196,0.79905 9.7539,6.68157 19.73763,13.07228 l 18.15225,11.61947 1.51442,3.32379 c 0.83293,1.82808 1.47705,5.84556 1.43137,8.92772 l -0.083,5.60393 L 169.5143,493.33333 152.52787,530 147.26394,530.33976 142,530.67952 Z M 152.65968,519 c 2.0012,-4.21667 9.87284,-21.24004 17.49255,-37.82971 l 13.85401,-30.16304 -1.9063,-4.56241 -1.9063,-4.56242 -18.31982,-11.79319 c -10.07591,-6.48626 -19.26948,-11.8598 -20.43016,-11.94121 L 139.33334,418 l -2.78772,8.64233 -2.78772,8.64234 -1.46312,-2.73388 c -0.80472,-1.50363 -1.29244,-3.59268 -1.08383,-4.64233 0.20862,-1.04965 1.10903,-3.69625 2.00093,-5.88132 0.89189,-2.18508 2.07766,-4.28508 2.63505,-4.66667 0.55739,-0.38159 4.33001,-5.4938 8.3836,-11.36047 4.05359,-5.86667 10.76001,-16.15792 14.90315,-22.86946 4.14315,-6.71153 7.53299,-13.06153 7.53299,-14.11111 0,-1.04958 -0.37308,-2.2814 -0.82906,-2.73738 -0.45598,-0.45598 -3.74519,0.64866 -7.30935,2.45475 -3.56416,1.8061 -7.32421,4.62918 -8.35567,6.27351 -1.03146,1.64433 -2.63116,5.38969 -3.55488,8.32302 -0.92373,2.93334 -3.89633,8.63334 -6.60579,12.66667 -2.70946,4.03333 -6.584,10.63333 -8.61009,14.66667 -2.0261,4.03333 -6.32036,14.92027 -9.54282,24.19321 L 116,451.71975 l 0.0144,8.47346 c 0.008,4.6604 0.90752,11.41745 1.99908,15.01566 l 1.98465,6.5422 -3.52749,11.75397 -3.52749,11.75397 1.88416,4.95045 1.88416,4.95046 13.31091,5.6592 c 7.32101,3.11256 14.59068,5.70158 16.15482,5.75337 l 2.84391,0.0942 z M 131,509.2919 l -11,-5.16014 0.012,-1.73255 c 0.007,-0.9529 5.03076,-18.40671 11.16482,-38.78625 6.13405,-20.37954 11.50037,-37.40125 11.92515,-37.82603 0.42478,-0.42478 7.67969,3.64939 16.12201,9.05371 8.44233,5.40431 15.34527,10.42603 15.33986,11.15936 -0.005,0.73333 -6.73447,16.28524 -14.95349,34.5598 -8.21902,18.27456 -15.54367,33.37627 -16.277,33.55936 C 142.6,514.30224 137.05,512.12998 131,509.2919 Z m 66.33334,-122.67412 c -10.63333,-6.56158 -20.08334,-12.94953 -21,-14.19546 l -1.66667,-2.26533 v -8.75517 -8.75517 L 220.072,295.32332 265.47733,238 l 4.49453,-0.40785 4.49454,-0.40785 20.81903,11.07452 20.81904,11.07451 0.76057,3.00636 c 0.41832,1.6535 0.21345,6.7535 -0.45526,11.33333 L 315.19393,282 270.06782,339.33333 c -24.81936,31.53334 -45.78799,57.77415 -46.59696,58.31292 -0.80897,0.53877 -2.67085,0.96205 -4.13752,0.94062 -1.46667,-0.0214 -11.36667,-5.40752 -22,-11.96909 z M 266.92611,336 l 45.68881,-58 0.0259,-7.78667 0.0259,-7.78666 -20.00001,-10.55241 c -11,-5.80383 -21.03096,-10.39983 -22.29102,-10.21333 L 268.08462,242 l -45.41425,57.28735 -45.41425,57.28735 0.85464,6.04598 c 0.47005,3.32529 1.53742,6.77063 2.37194,7.65631 0.83452,0.88567 9.61731,6.6807 19.51731,12.87783 9.9,6.19712 18.72839,11.17248 19.61864,11.05634 C 220.5089,394.09502 241.79726,367.9 266.92611,336 Z m -65.59277,30.88406 c -8.43333,-5.01237 -15.33333,-9.81967 -15.33333,-10.68289 0,-0.86323 19.2,-25.82521 42.66666,-55.47108 l 42.66667,-53.90158 16.66667,8.7649 c 9.16667,4.82069 17.09095,9.13856 17.60951,9.59526 0.51857,0.4567 -18.57708,25.42608 -42.43477,55.48751 -23.85769,30.06144 -44.08197,54.80658 -44.94285,54.98921 -0.86087,0.18264 -8.46523,-3.76896 -16.89856,-8.78133 z M 494.36107,306.8878 476.05547,294 l -0.92669,-3.33333 -0.92669,-3.33334 6.56563,-12.24105 6.56563,-12.24104 20.45427,-21.42562 L 528.2419,220 h 4.25411 4.25411 l 7.62495,4.76944 7.62495,4.76943 v 5.30915 c 0,2.92004 -3.00739,15.32379 -6.68307,27.5639 -3.67569,12.24011 -8.851,27.35475 -11.50069,33.58808 -2.64969,6.23333 -6.25242,14.18333 -8.00606,17.66667 L 522.62176,320 l -4.97754,-0.1122 -4.97754,-0.11219 z m 33.41255,-8.22113 c 3.64558,-8.43334 9.68789,-25.66323 13.42736,-38.28866 3.73947,-12.62543 6.79904,-24.16329 6.79904,-25.63969 v -2.68438 l -7,-4.0421 c -3.85,-2.22315 -7.91216,-3.88529 -9.02701,-3.69363 -1.11486,0.19165 -10.94513,9.76308 -21.84506,21.26985 l -19.81805,20.9214 -5.93887,10.93104 -5.93888,10.93103 3.11727,2.99814 c 1.71449,1.64897 10.57022,8.19098 19.6794,14.5378 l 16.56214,11.53968 1.67717,-1.72358 c 0.92244,-0.94796 4.65991,-8.62357 8.30549,-17.0569 z m -8.67352,2.66666 c 0.45493,-1.83333 1.86955,-7.75259 3.14361,-13.15392 l 2.31646,-9.82059 -5.94674,-5.13962 c -3.27071,-2.82679 -6.83422,-5.15753 -7.9189,-5.17941 -1.08468,-0.0219 -6.86041,4.82308 -12.83496,10.76659 -5.97455,5.94351 -11.19896,10.26249 -11.6098,9.59774 -0.41084,-0.66476 1.46489,-5.24022 4.1683,-10.1677 l 4.91528,-8.95906 18.66666,-19.80852 18.66667,-19.80853 3.33334,1.78773 c 1.83333,0.98324 4.11906,2.31716 5.07939,2.96426 l 1.74606,1.17655 -6.95158,23.20557 c -3.82336,12.76307 -9.03362,28.00558 -11.57834,33.87225 -2.54473,5.86666 -4.94084,10.96666 -5.32469,11.33333 -0.38385,0.36667 -0.3257,-0.83333 0.12924,-2.66667 z m -110.06907,245 c 0.74665,-0.91666 9.52011,-19.34574 19.49659,-40.95351 9.97648,-21.60776 18.13906,-40.25013 18.13906,-41.42747 v -2.14064 l -19.28636,-7.67933 c -10.6075,-4.22364 -20.29232,-7.48127 -21.52184,-7.23919 l -2.23548,0.44014 -15.04125,43.16088 c -8.27268,23.73848 -14.76273,43.83848 -14.42233,44.66666 0.3404,0.82819 3.3832,3.6058 6.76177,6.17246 3.37857,2.56667 8.00344,5.03769 10.2775,5.49115 2.27406,0.45346 6.91119,0.90346 10.30473,1 L 407.67349,548 Z m -14.55909,-4.60261 -4.86141,-0.54184 -4.90427,-4.2611 -4.90428,-4.26111 12.25981,-35.33334 c 6.7429,-19.43333 12.68069,-35.79656 13.19508,-36.36272 0.5144,-0.56617 7.79204,1.88904 16.17254,5.45601 8.3805,3.56698 15.10177,7.13671 14.93616,7.93273 -0.16562,0.79603 -7.19626,16.34082 -15.62366,34.54399 L 405.41937,542 l -3.04301,0.13627 c -1.67366,0.075 -5.23065,-0.10755 -7.90442,-0.40555 z m -13.1386,-42.39739 c 0,-0.36666 -0.3,-0.66666 -0.66666,-0.66666 -0.36667,0 -0.66667,0.3 -0.66667,0.66666 0,0.36667 0.3,0.66667 0.66667,0.66667 0.36666,0 0.66666,-0.3 0.66666,-0.66667 z m 1.33334,-2.66666 c 0,-0.36667 -0.3,-0.66667 -0.66667,-0.66667 -0.36667,0 -0.66667,0.3 -0.66667,0.66667 0,0.36666 0.3,0.66666 0.66667,0.66666 0.36667,0 0.66667,-0.3 0.66667,-0.66666 z m 10.62583,-33.33334 c 0,-0.73333 -0.58162,-0.43333 -1.2925,0.66667 -0.71087,1.1 -1.2925,2.6 -1.2925,3.33333 0,0.73334 0.58163,0.43334 1.2925,-0.66666 0.71088,-1.1 1.2925,-2.6 1.2925,-3.33334 z m 86.34498,-68.12308 23.37899,-51.69097 -1.1749,-1.85411 c -0.64619,-1.01976 -9.55947,-5.71674 -19.80728,-10.43773 -10.24781,-4.721 -19.08189,-8.42849 -19.63129,-8.23887 -0.54939,0.18962 -12.14308,23.12554 -25.76375,50.96872 l -24.76485,50.62395 0.39613,3.67619 0.39614,3.67618 19.16305,9.32793 19.16305,9.32793 2.63286,-1.84413 2.63286,-1.84412 z m -44.65042,36.3663 -16.34628,-8.27675 22.81771,-46.6499 c 12.54974,-25.65744 22.926,-46.77034 23.05836,-46.91754 0.13236,-0.14721 6.82022,2.73554 14.86191,6.40609 8.04168,3.67056 15.11329,7.16304 15.71468,7.76107 l 1.09343,1.08734 -21.29004,47.12766 c -11.70952,25.92022 -21.80157,47.26516 -22.42677,47.43322 -0.6252,0.16805 -8.49255,-3.41898 -17.483,-7.97119 z M 451.6675,268.2624 462.66832,254 479.33417,225.45005 c 9.16621,-15.70247 16.66584,-28.98199 16.66584,-29.51005 0,-0.52806 -3.79183,-3.43059 -8.42629,-6.45006 C 482.93926,186.47048 478.50119,184 477.71133,184 c -0.78985,0 -16.04802,9.10826 -33.90704,20.24057 l -32.47095,20.24056 -12,10.70874 c -6.6,5.88981 -12.15173,11.63156 -12.33719,12.75944 L 386.65896,250 l 25.5186,16.88854 c 14.03524,9.2887 26.18697,16.60678 27.00386,16.2624 0.81689,-0.34437 6.43563,-7.04421 12.48608,-14.88854 z m -19.41583,5.30728 -3.08167,-2.37103 9.47204,-16.4891 c 5.20963,-9.069 9.18002,-17.2501 8.8231,-18.18022 -0.35692,-0.93012 -3.82458,-3.82972 -7.7059,-6.44356 -3.88133,-2.61384 -7.88388,-4.75244 -8.89455,-4.75244 -1.01068,0 -9.32485,5.44384 -18.47595,12.09741 -9.15109,6.65358 -17.03219,11.68777 -17.51354,11.18709 -0.48135,-0.50068 3.76639,-5.12574 9.43942,-10.27793 l 10.31461,-9.36761 31.65353,-19.67612 31.65352,-19.67611 5.65445,3.89036 5.65445,3.89036 -6.42617,10.96628 c -3.5344,6.03145 -10.66462,18.19274 -15.84495,27.02509 -5.18033,8.83236 -13.68765,21.58236 -18.90515,28.33334 -5.2175,6.75098 -10.21744,12.26117 -11.11097,12.24486 -0.89353,-0.0163 -3.01135,-1.09661 -4.70627,-2.40067 z M 358.97538,214.33333 374.53978,202 395.96314,174.74639 c 11.78284,-14.98949 21.23609,-27.88949 21.00722,-28.66667 -0.22888,-0.77718 -5.49083,-3.92095 -11.69324,-6.98616 -6.20241,-3.06521 -12.06413,-5.61521 -13.02604,-5.66667 -0.96192,-0.0514 -16.26192,7.38538 -34,16.5263 l -32.25107,16.61987 -14.65368,14.72325 -14.65368,14.72325 1.32035,1.99971 c 0.72619,1.09983 10.92034,7.98492 22.65368,15.30019 11.73333,7.31527 21.6508,13.31101 22.03881,13.32385 0.38802,0.0128 7.70947,-5.52664 16.26989,-12.30998 z m -20.21014,3.33334 -2.86354,-2.33334 12.75577,-18.63358 c 7.01566,-10.24848 12.58778,-19.45499 12.38248,-20.45893 -0.2053,-1.00394 -3.7379,-3.695 -7.85023,-5.98015 l -7.47696,-4.15482 -20.52304,15.07812 -20.52304,15.07811 12.66666,-12.90707 12.66667,-12.90708 29.33333,-14.88487 c 16.13334,-8.18667 30.36939,-15.07736 31.63568,-15.31264 1.2663,-0.23527 5.93603,1.20293 10.37719,3.19601 4.44117,1.99307 7.90511,4.13191 7.69766,4.75298 -0.20746,0.62106 -8.95845,12.14149 -19.44664,25.60095 l -19.06946,24.47175 -13.84906,10.86395 C 349.06173,215.11123 342.55945,220 342.22921,220 c -0.33025,0 -1.88903,-1.05 -3.46397,-2.33333 z m -206.57393,409.62303 -4.0133,-3.37697 -1.52361,-4.95636 C 125.81641,616.23036 124.79702,613.1 124.38909,612 c -0.40793,-1.1 -0.90976,-3.24053 -1.11516,-4.75674 -0.20541,-1.51621 -0.97125,-5.11621 -1.70188,-8 -0.73063,-2.88379 -1.7419,-8.23935 -2.24728,-11.90124 l -0.91886,-6.65797 2.46371,2.17789 c 1.35505,1.19784 5.59922,3.51158 9.4315,5.14164 l 6.96779,2.96375 0.66964,4.183 c 0.36831,2.30065 1.28112,9.583 2.02846,16.183 0.74735,6.6 1.36051,13.65 1.36257,15.66667 l 0.004,3.66667 h -2.56437 c -1.4104,0 -4.37035,-1.51964 -6.57766,-3.37697 z m 235.55403,-12.46631 c -3.44007,-1.1862 -7.78072,-3.35672 -9.64589,-4.82339 l -3.39122,-2.66667 -0.22915,-6 c -0.12603,-3.3 0.85141,-10.95 2.17209,-17 l 2.40125,-11 h 1.49761 c 0.82369,0 3.66613,1.47354 6.31653,3.27454 2.65041,1.80099 7.73969,3.98951 11.30952,4.86337 3.56983,0.87387 6.68387,1.7436 6.92009,1.93274 0.23622,0.18914 -1.41378,6.31713 -3.66667,13.61775 -2.25288,7.30061 -4.09616,14.18388 -4.09616,15.29613 0,1.11226 -0.75,2.61628 -1.66666,3.34227 l -1.66667,1.31998 z M 77.980257,558.53775 c -2.922474,-1.53757 -6.016146,-3.48757 -6.874828,-4.33334 -0.858681,-0.84576 -4.008681,-9.87539 -7,-20.06585 -2.991318,-10.19046 -5.438761,-20.51181 -5.438761,-22.93634 V 506.794 l 3.33204,3.08803 c 1.832622,1.69841 6.033755,4.11982 9.33585,5.3809 l 6.00381,2.29288 0.669666,2.88876 c 0.368316,1.58882 2.171041,10.08876 4.006055,18.88876 1.835015,8.8 3.643964,17.35 4.019888,19 l 0.683498,3 H 85.00566 c -0.941499,0 -4.10293,-1.25801 -7.025403,-2.79558 z m 174.822033,-5.77165 -9.19771,-1.43277 -3.98925,-4.94291 -3.98925,-4.94291 7.61298,-29.72376 c 4.18714,-16.34806 8.12719,-31.22375 8.75565,-33.05708 0.62847,-1.83334 1.88725,-6.43281 2.79728,-10.22105 l 1.6546,-6.88772 2.77671,-1.2532 2.77671,-1.25321 15.87832,7.13036 c 8.73308,3.92169 16.17098,7.42301 16.52867,7.7807 0.35769,0.35768 -0.67368,4.11244 -2.29193,8.34389 -1.61825,4.23146 -8.6763,21.79356 -15.68454,39.02689 -7.00825,17.23334 -13.12213,31.67808 -13.5864,32.09944 -0.46427,0.42136 -4.98309,0.12136 -10.04184,-0.66667 z m -19.46895,-28.09943 c 0,-0.36667 0.3,-0.66667 0.66667,-0.66667 0.36666,0 0.66666,0.3 0.66666,0.66667 0,0.36666 -0.3,0.66666 -0.66666,0.66666 -0.36667,0 -0.66667,-0.3 -0.66667,-0.66666 z m -176.000005,-20 c 0,-0.36667 0.3,-0.66667 0.666667,-0.66667 0.366666,0 0.666666,0.3 0.666666,0.66667 0,0.36666 -0.3,0.66666 -0.666666,0.66666 -0.366667,0 -0.666667,-0.3 -0.666667,-0.66666 z m -0.666667,-47.32321 -6.666667,-2.42471 -0.4074,-4.68502 c -0.22407,-2.57676 2.040433,-15.38348 5.032228,-28.45937 2.991796,-13.0759 6.973141,-30.47859 8.847434,-38.67265 l 3.407805,-14.8983 1.776562,-0.68173 1.776561,-0.68173 9.313715,7.23678 9.313715,7.23677 -4.407194,13.67659 c -2.423956,7.52212 -8.097866,25.22658 -12.608689,39.34324 -4.510823,14.11667 -8.316225,25.61451 -8.45645,25.55075 -0.140224,-0.0637 -3.254953,-1.20703 -6.92162,-2.54062 z M 309.33334,406.44655 c -9.16666,-5.20565 -16.82752,-9.59656 -17.02411,-9.75757 -0.1966,-0.16102 5.26861,-10.21797 12.1449,-22.34879 l 12.50235,-22.05602 21.8551,-26.74901 c 12.0203,-14.71195 22.31659,-26.77589 22.88063,-26.80875 0.56404,-0.0329 7.90983,4.29026 16.32396,9.60692 8.41414,5.31667 15.30265,10.10962 15.3078,10.65101 0.005,0.54138 -15.03537,22.59138 -33.42338,49 -18.38802,26.40861 -33.53802,47.99572 -33.66667,47.97134 -0.12865,-0.0244 -7.73391,-4.30348 -16.90058,-9.50913 z M 509.73219,380 c 0.42771,-1.1 2.67678,-6.78468 4.99793,-12.63262 2.32115,-5.84793 6.06763,-13.31765 8.32552,-16.59937 2.25788,-3.28172 6.65537,-11.76121 9.77219,-18.84331 3.11683,-7.08211 9.2846,-23.61239 13.70616,-36.73396 4.42156,-13.12157 9.59655,-29.10741 11.49997,-35.52407 L 561.49472,248 h 2.52873 2.52872 l 4.13095,-13.38661 4.13096,-13.38661 -3.56703,-4.28006 c -1.96187,-2.35403 -6.64503,-7.55553 -10.40703,-11.55888 l -6.84,-7.27883 -6,-1.00211 c -3.3,-0.55116 -14.33964,-2.22284 -24.53252,-3.71485 l -18.53252,-2.71273 -4.50286,-3.4345 -4.50287,-3.4345 0.31765,-4.71665 0.31765,-4.71665 -1.98825,-1.52184 c -1.09354,-0.83702 -8.3925,-6.49589 -16.21992,-12.57527 l -14.23168,-11.05342 0.68286,-1.77949 c 0.37557,-0.97872 3.05097,-2.84737 5.94533,-4.15254 2.89435,-1.30517 5.82469,-3.05048 6.51186,-3.87847 0.68716,-0.82798 0.83371,-2.0853 0.32566,-2.79404 -0.50805,-0.70874 -5.26654,-4.13862 -10.57442,-7.62195 -5.30787,-3.48333 -10.29664,-6.33333 -11.08615,-6.33333 -0.78951,0 -4.54671,1.28455 -8.34932,2.85455 -3.80261,1.57001 -7.90324,3.96164 -9.11251,5.31474 l -2.19866,2.46018 -5.86854,-3.27998 c -3.22769,-1.80399 -8.53478,-4.2207 -11.79352,-5.37045 l -5.925,-2.09046 -4.99477,2.25233 -4.99477,2.25233 -4.34637,-1.24142 -4.34637,-1.24142 -0.40374,-8.62187 c -0.22205,-4.74203 -0.84615,-9.06596 -1.38688,-9.60875 -0.54073,-0.54279 -6.01794,-0.10168 -12.17158,0.98024 -6.15364,1.08191 -11.42476,1.7308 -11.7136,1.44196 -0.28884,-0.28884 0.87006,-0.96764 2.57532,-1.50844 1.70526,-0.54081 8.01385,-3.29559 14.01909,-6.12175 C 390.92385,98.312309 396.25015,96 396.75482,96 c 0.50468,0 21.18762,-10.167603 45.96209,-22.594673 24.77448,-12.42707 53.34819,-27.518982 63.49714,-33.537583 10.14895,-6.018602 20.69348,-12.694169 23.4323,-14.834595 l 4.97966,-3.891683 73.38942,1.429267 C 648.37961,23.35683 684.38876,24 688.03577,24 h 6.63092 v 76.12362 76.12362 l -7.46763,8.20972 c -4.10719,4.51534 -9.24873,10.77818 -11.42563,13.91743 -2.17691,3.13924 -9.40561,16.63924 -16.06378,30 -6.65818,13.36075 -15.07947,29.09228 -18.71398,34.95894 C 637.36115,269.2 631.91735,276.7 628.89832,280 c -3.01902,3.3 -10.30619,9.94986 -16.19372,14.77748 -5.88752,4.82761 -17.60458,13.36867 -26.03792,18.98012 -8.43333,5.61146 -20.8271,14.11903 -27.54172,18.90571 l -12.20838,8.70306 -11.35604,12.98348 c -6.24583,7.14092 -14.78728,16.28348 -18.98102,20.31682 C 512.38578,378.7 509.30449,381.1 509.73219,380 Z M 125.33334,331.33333 c 0,-0.36666 0.3,-0.66666 0.66666,-0.66666 0.36667,0 0.66667,0.3 0.66667,0.66666 0,0.36667 -0.3,0.66667 -0.66667,0.66667 -0.36666,0 -0.66666,-0.3 -0.66666,-0.66667 z M 113,320.84323 c -4.21666,-3.79509 -7.66666,-7.48811 -7.66666,-8.20672 0,-0.7186 3.15,-4.64988 7,-8.73617 3.85,-4.08629 21.67201,-22.98553 39.60448,-41.99831 17.93247,-19.01278 34.13247,-35.91796 36,-37.56707 1.86754,-1.6491 3.84552,-2.9991 4.39552,-3 0.55,-8.9e-4 1,0.57251 1,1.27424 0,0.70172 4.22618,4.69046 9.3915,8.86385 l 9.39151,7.58799 -33.72484,32.76528 c -18.54866,18.02091 -39.12484,37.97444 -45.72484,44.34118 l -12,11.57589 z M 252.96008,183.5642 247.92015,182 265.29341,164.6859 c 9.5553,-9.52275 17.37326,-18.25275 17.37326,-19.4 0,-1.14724 -0.67141,-2.75732 -1.49203,-3.57794 l -1.49204,-1.49203 25.82537,-8.19132 c 14.20396,-4.50523 29.42537,-9.29766 33.82537,-10.64985 4.4,-1.35219 9.43643,-2.78111 11.19207,-3.17538 l 3.19207,-0.71685 -1.2775,1.2775 c -0.70262,0.70262 -21.93905,15.95226 -47.19206,33.88809 -25.25302,17.93583 -46.21458,32.58128 -46.58125,32.54544 -0.36666,-0.0358 -2.93463,-0.76905 -5.70659,-1.62936 z m 196.7066,-42.59718 c -3.85,-2.35201 -7,-4.96758 -7,-5.81238 0,-0.8448 0.75,-1.84571 1.66667,-2.22424 0.91666,-0.37853 3.82166,-1.61108 6.45554,-2.739 l 4.78888,-2.05076 7.10447,4.78443 7.10447,4.78442 -4.80695,2.46612 c -2.64382,1.35636 -5.18124,3.07173 -5.63871,3.81192 -0.45746,0.74019 -1.24634,1.32557 -1.75306,1.30084 -0.50672,-0.0247 -4.07131,-1.96934 -7.92131,-4.32135 z"
       id="path1" />
  </g>
</svg>
