<?xml version="1.0" encoding="UTF-8" standalone="no"?>
<svg
   style="height: 512px; width: 512px;"
   viewBox="0 0 512 512"
   version="1.1"
   id="svg3"
   sodipodi:docname="interfaceplugs.svg"
   inkscape:version="1.3.2 (091e20e, 2023-11-25, custom)"
   xml:space="preserve"
   xmlns:inkscape="http://www.inkscape.org/namespaces/inkscape"
   xmlns:sodipodi="http://sodipodi.sourceforge.net/DTD/sodipodi-0.dtd"
   xmlns="http://www.w3.org/2000/svg"
   xmlns:svg="http://www.w3.org/2000/svg"><sodipodi:namedview
     id="namedview3"
     pagecolor="#505050"
     bordercolor="#eeeeee"
     borderopacity="1"
     inkscape:showpageshadow="0"
     inkscape:pageopacity="0"
     inkscape:pagecheckerboard="0"
     inkscape:deskcolor="#505050"
     inkscape:zoom="0.80175781"
     inkscape:cx="175.23995"
     inkscape:cy="312.43849"
     inkscape:window-width="1920"
     inkscape:window-height="1017"
     inkscape:window-x="-8"
     inkscape:window-y="-8"
     inkscape:window-maximized="1"
     inkscape:current-layer="svg3" /><defs
     id="defs2"><filter
       id="shadow-1"
       height="1.161164"
       width="1.1535856"
       x="-0.076792785"
       y="-0.080581981"><feFlood
         flood-color="rgba(58, 63, 94, 1)"
         result="flood"
         id="feFlood1" /><feComposite
         in="flood"
         in2="SourceGraphic"
         operator="atop"
         result="composite"
         id="feComposite1" /><feGaussianBlur
         in="composite"
         stdDeviation="15"
         result="blur"
         id="feGaussianBlur1" /><feOffset
         dx="0"
         dy="0"
         result="offset"
         id="feOffset1" /><feComposite
         in="SourceGraphic"
         in2="offset"
         operator="over"
         id="feComposite2" /></filter><filter
       style="color-interpolation-filters:sRGB;"
       inkscape:label="Drop Shadow"
       id="filter4"
       x="-0.076792785"
       y="-0.080581981"
       width="1.1535856"
       height="1.161164"><feFlood
         result="flood"
         in="SourceGraphic"
         flood-opacity="1.000000"
         flood-color="rgb(58,63,94)"
         id="feFlood3" /><feGaussianBlur
         result="blur"
         in="SourceGraphic"
         stdDeviation="15.000000"
         id="feGaussianBlur3" /><feOffset
         result="offset"
         in="blur"
         dx="0.000000"
         dy="0.000000"
         id="feOffset3" /><feComposite
         result="comp1"
         operator="out"
         in="flood"
         in2="offset"
         id="feComposite3" /><feComposite
         result="comp2"
         operator="atop"
         in="comp1"
         in2="SourceGraphic"
         id="feComposite4" /></filter><filter
       style="color-interpolation-filters:sRGB;"
       inkscape:label="Drop Shadow"
       id="filter14"
       x="-0.026908938"
       y="-0.026124475"
       width="1.0538179"
       height="1.0522489"><feFlood
         result="flood"
         in="SourceGraphic"
         flood-opacity="1.000000"
         flood-color="rgb(58,63,94)"
         id="feFlood13" /><feGaussianBlur
         result="blur"
         in="SourceGraphic"
         stdDeviation="5.000000"
         id="feGaussianBlur13" /><feOffset
         result="offset"
         in="blur"
         dx="0.000000"
         dy="0.000000"
         id="feOffset13" /><feComposite
         result="comp1"
         operator="out"
         in="flood"
         in2="offset"
         id="feComposite13" /><feComposite
         result="comp2"
         operator="atop"
         in="comp1"
         in2="SourceGraphic"
         id="feComposite14" /></filter><filter
       style="color-interpolation-filters:sRGB;"
       inkscape:label="Drop Shadow"
       id="filter17"
       x="-0.075578386"
       y="-0.080673279"
       width="1.1511568"
       height="1.1613466"><feFlood
         result="flood"
         in="SourceGraphic"
         flood-opacity="1.000000"
         flood-color="rgb(58,63,94)"
         id="feFlood16" /><feGaussianBlur
         result="blur"
         in="SourceGraphic"
         stdDeviation="15.000000"
         id="feGaussianBlur16" /><feOffset
         result="offset"
         in="blur"
         dx="0.000000"
         dy="0.000000"
         id="feOffset16" /><feComposite
         result="comp1"
         operator="out"
         in="flood"
         in2="offset"
         id="feComposite16" /><feComposite
         result="comp2"
         operator="atop"
         in="comp1"
         in2="SourceGraphic"
         id="feComposite17" /></filter></defs><path
     d="M0 0h512v512H0z"
     fill="#1b1f21"
     fill-opacity="1"
     id="path2" /><path
     style="fill:#e64539;fill-opacity:1;filter:url(#filter17)"
     d="m 18.151739,445.00092 c 0.322994,-22.91312 0.845684,-65.38537 1.161533,-94.38277 l 0.574271,-52.72255 2.635553,-4.70737 c 1.603899,-2.86473 3.047891,-7.41271 3.688948,-11.61865 2.473673,-16.22968 10.226886,-29.00727 24.091548,-39.70378 8.233094,-6.35178 15.492107,-18.76259 20.642801,-35.29318 2.790579,-8.95607 8.657237,-18.78329 17.438514,-29.21121 6.866537,-8.15414 10.986427,-15.4363 13.792803,-24.37964 1.50008,-4.78044 2.34576,-5.95374 5.92941,-8.22642 11.14154,-7.06576 20.12471,-2.8776 27.45304,12.79923 2.86172,6.12182 3.7705,9.50603 4.68988,17.46473 2.55182,22.08996 -1.23734,39.79078 -11.24044,52.50913 -8.34251,10.60701 -13.1656,31.64388 -9.62201,41.96832 1.57594,4.59158 6.01655,9.66719 10.36575,11.84804 1.86136,0.93335 9.4257,3.69873 16.80963,6.14529 15.17024,5.02644 14.59243,5.02013 31.28583,0.34186 13.87878,-3.88948 27.59719,-9.43004 35.66559,-14.40455 3.78843,-2.33572 7.0678,-4.24676 7.2875,-4.24676 2.2959,0 -9.2658,22.9825 -19.18174,38.1297 -15.12981,23.11172 -40.63309,51.88346 -60.77647,68.56548 -14.07765,11.65861 -11.96215,11.07045 -24.71818,6.87213 -10.14764,-3.33983 -18.555883,-4.52731 -21.067133,-2.97527 -0.487092,0.30104 -8.853224,2.88384 -18.591403,5.73956 -9.738179,2.85572 -19.096143,5.63661 -20.795474,6.17975 -2.543676,0.813 -3.688731,2.17912 -6.479399,7.73032 -3.610092,7.1812 -5.04642,9.25837 -10.521679,15.21608 -6.875406,7.48122 -8.623687,10.04686 -8.549637,12.54676 0.041,1.38425 4.807216,11.62558 10.591584,22.75851 10.474912,20.16063 10.530228,20.24278 13.812191,20.51147 2.306046,0.18879 5.564098,-0.83056 10.853961,-3.3959 6.900503,-3.34643 8.478897,-3.72531 18.123625,-4.35041 l 10.564823,-0.68473 21.992421,-9.14244 c 19.52992,-8.11876 22.61334,-9.69949 27.53787,-14.11741 6.66876,-5.98272 7.76496,-6.58072 19.19682,-10.47239 10.35028,-3.52348 12.23916,-4.41099 12.23916,-5.75072 0,-1.21905 -8.41209,-13.08619 -9.26201,-13.06614 -3.29915,0.0778 -11.76295,2.95071 -13.07874,4.43935 -0.91676,1.03719 -4.20882,2.85746 -7.31568,4.04506 -3.10686,1.1876 -6.3177,2.72678 -7.13519,3.42039 -2.16943,1.84071 -3.41487,1.55106 -4.03997,-0.93956 -0.30379,-1.21037 -1.49772,-2.62252 -2.6532,-3.13811 -1.94043,-0.86585 -1.45671,-1.37141 6.33449,-6.62055 31.89488,-21.48842 63.97568,-54.4782 86.33222,-88.77838 7.95553,-12.20565 11.30214,-18.47292 23.12904,-43.31435 4.56248,-9.5831 10.60031,-21.02201 13.4174,-25.4198 7.20414,-11.24644 18.3339,-24.9776 26.41338,-32.58709 3.78269,-3.56265 9.43695,-9.23135 12.56502,-12.59712 12.68071,-13.6443 24.80335,-23.86107 44.05475,-37.12866 10.38927,-7.16003 11.67164,-7.31799 18.60935,-2.29233 4.2349,3.06774 7.48562,8.9698 7.45228,13.53045 -0.0367,5.01711 -2.17026,9.14292 -17.80868,34.43737 l -15.37939,24.8755 -13.28974,13.18063 c -11.41497,11.32126 -14.14978,14.63586 -19.38635,23.49629 -7.0064,11.85504 -11.87171,16.3866 -25.23569,23.50456 -8.38894,4.46814 -19.40155,13.23913 -18.4849,14.7223 0.28339,0.45854 2.13255,1.2692 4.10923,1.80147 6.49991,1.75024 15.87297,-1.20962 29.74886,-9.39422 6.71173,-3.95887 19.19759,-9.07651 29.08361,-11.92064 7.43729,-2.13964 11.55089,-4.34202 33.01395,-17.67534 24.04074,-14.93462 24.738,-15.45621 35.81574,-26.79239 18.35368,-18.78184 30.60382,-26.52196 43.12186,-27.24607 8.21018,-0.47492 13.40672,1.44861 18.98581,7.0277 6.74637,6.74637 6.65275,12.79878 -0.36596,23.65808 -7.40627,11.45894 -16.64748,20.18995 -54.50208,51.49304 -12.49192,10.32994 -22.60237,18.89192 -22.46767,19.02662 0.1347,0.1347 4.25161,-0.97684 9.14869,-2.47011 4.89708,-1.49326 13.19544,-4.02053 18.44081,-5.61615 7.83816,-2.38434 10.60536,-3.75906 15.53432,-7.71733 13.56369,-10.89248 28.5632,-19.97384 39.41962,-23.86635 15.70597,-5.63129 29.17632,-1.85566 33.46751,9.38068 3.48209,9.11771 -1.53323,19.17296 -15.62838,31.33347 -7.82734,6.75299 -7.93221,6.90131 -8.0244,11.34904 -0.2022,9.75525 -9.79569,22.72551 -37.10516,50.1656 -20.04301,20.13889 -26.13089,24.76838 -51.11932,38.87334 -14.5437,8.20933 -19.11334,9.96604 -34.45113,13.24406 -6.01863,1.28632 -14.01754,3.60417 -17.77537,5.15079 -9.02875,3.71599 -29.33343,9.43536 -46.83162,13.19142 -28.07743,6.02694 -60.95044,16.13373 -77.95914,23.9685 l -7.34858,3.385 H 107.07365 17.564477 Z m 35.673449,19.77096 c -1.428255,-1.8075 -19.073448,-36.94444 -19.057895,-37.95005 0.0075,-0.48717 3.18956,-4.39943 7.071166,-8.69392 4.361311,-4.82522 8.456001,-10.57995 10.718275,-15.06359 L 56.217542,395.8089 70.67,391.66005 c 7.948852,-2.28187 18.131907,-5.33192 22.62901,-6.7779 l 8.17655,-2.62904 10.59602,3.54737 c 5.82781,1.95106 10.71963,3.94195 10.87071,4.42421 0.15108,0.48227 -1.03952,1.79541 -2.64578,2.9181 l -2.92047,2.04125 -8.23905,-2.92293 -8.23905,-2.92292 -14.007321,4.00422 c -28.598663,8.17541 -26.018205,7.01911 -28.934604,12.96554 -1.414929,2.88498 -5.538231,8.76717 -9.162893,13.07152 l -6.590294,7.82609 7.578617,15.13495 c 4.168239,8.32422 7.797256,15.13495 8.064481,15.13495 0.267226,0 3.145314,-1.20586 6.395752,-2.67967 5.293897,-2.40037 6.690097,-2.6371 13.395333,-2.27123 l 7.485447,0.40845 22.319412,-9.45361 c 18.87062,-7.99284 23.38261,-10.29683 29.20013,-14.91068 4.501,-3.56972 9.07361,-6.22543 13.22124,-7.67872 3.60343,-1.26261 6.34051,-2.77101 6.34051,-3.49424 0,-0.69992 1.75832,-1.74605 3.90738,-2.32473 3.69684,-0.99546 4.02657,-0.91344 6.11958,1.52236 1.21671,1.41597 2.21221,2.88039 2.21221,3.25426 0,1.2939 -2.39691,2.49827 -12.15715,6.10861 -8.25864,3.05489 -10.70653,4.4633 -15.53432,8.93776 -5.32909,4.93906 -7.36432,5.98806 -29.03052,14.963 l -23.299663,9.65157 -8.71046,-0.25425 c -8.412747,-0.24556 -8.942951,-0.1355 -15.512644,3.22007 -7.353804,3.75606 -8.942398,4.10791 -10.372975,2.29747 z m -1.435602,-23.55224 c -3.504379,-6.85253 -6.364107,-13.02671 -6.354951,-13.72041 0.0092,-0.6937 2.343077,-3.87118 5.186489,-7.06106 2.843413,-3.18988 6.482719,-8.26085 8.087347,-11.26881 1.801818,-3.37761 3.810471,-5.80853 5.252596,-6.35682 4.086398,-1.55365 34.979232,-10.29879 36.381193,-10.29879 2.52439,0 11.07758,4.04026 10.75773,5.08162 -0.57165,1.86119 -6.62934,4.23088 -23.689347,9.26699 l -16.773725,4.9516 -1.749605,4.47065 -1.749605,4.47065 4.727534,8.00388 4.727534,8.00389 h 4.457794 c 3.347592,0 9.598227,-1.99301 25.09817,-8.00253 11.35221,-4.40139 21.16738,-8.00253 21.8115,-8.00253 0.64411,0 1.44525,0.44356 1.78031,0.98569 0.70383,1.13883 -2.55422,8.52086 -4.4184,10.0111 -1.09464,0.87508 -35.50272,16.12965 -39.433983,17.48277 -0.802292,0.27615 -4.403431,0.16859 -8.00253,-0.23902 -6.048401,-0.685 -6.997297,-0.53472 -12.533732,1.98497 -3.294454,1.49935 -6.260098,2.71916 -6.590319,2.71069 -0.330221,-0.008 -3.467622,-5.622 -6.972,-12.47453 z m 34.336807,-16.39236 c -1.706889,-2.91956 -2.905648,-5.82372 -2.663908,-6.45369 0.24174,-0.62996 5.451256,-3.77384 11.576702,-6.98639 13.833823,-7.25529 28.580423,-16.1868 28.075233,-17.00422 -0.20869,-0.33766 0.1774,-0.61394 0.85796,-0.61394 2.9155,0 22.07194,-16.11961 37.82381,-31.82767 30.00222,-29.9188 44.05839,-49.69237 63.10398,-88.77175 6.88006,-14.1171 14.7861,-29.15715 17.56898,-33.42233 8.58598,-13.15931 20.19619,-26.82517 37.39109,-44.01137 17.55343,-17.54456 26.99013,-25.30881 51.79917,-42.61892 26.76766,-18.67671 52.8132,-39.23856 61.12435,-48.25509 2.39643,-2.59983 4.36853,-3.9951 5.05919,-3.57942 0.62252,0.37468 3.82326,2.82324 7.11276,5.44124 l 5.9809,4.76001 -5.9809,5.54336 c -13.68944,12.68796 -38.04779,31.66311 -61.99861,48.2969 -23.00798,15.97897 -30.8542,22.50527 -49.48932,41.16397 -29.03633,29.07308 -34.56867,36.85768 -53.58696,75.40257 -8.53993,17.30811 -16.22912,31.43846 -21.00486,38.60044 -22.06363,33.08791 -54.60274,66.46858 -83.86405,86.03303 -13.7684,9.20572 -40.767344,23.66743 -44.115689,23.63014 -1.020206,-0.0114 -2.869829,-2.077 -4.769828,-5.32687 z M 421.9043,108.65931 c 8.9584,-10.765704 36.03797,-40.539666 37.09669,-40.787782 3.64744,-0.85479 -0.47574,4.108616 -19.07403,22.960972 -11.20511,11.35818 -19.31531,19.38025 -18.02266,17.82681 z m -8.67812,-0.1542 c -4.67212,-2.47353 -17.41727,-14.06478 -17.41727,-15.84038 0,-2.736076 35.36427,-45.536273 37.68651,-45.61072 1.06782,-0.03423 6.58268,3.722097 12.50324,8.516324 9.26386,7.50149 10.44152,8.77118 9.3872,10.120846 -2.38286,3.05038 -38.50682,43.39603 -39.14904,43.72426 -0.36133,0.18467 -1.71611,-0.22498 -3.01064,-0.91033 z m 36.40086,-54.117527 -10.20211,-8.534353 2.61109,-2.725393 c 1.4361,-1.498966 3.27324,-2.718945 4.08253,-2.711064 2.0552,0.02001 18.35868,13.037516 18.68612,14.919924 0.14748,0.847849 -0.91167,2.901375 -2.35368,4.563391 l -2.62184,3.021848 z"
     id="path14" /></svg>
