<?xml version="1.0" encoding="UTF-8" standalone="no"?>
<!-- Created with Inkscape (http://www.inkscape.org/) -->

<svg
   version="1.1"
   id="svg1"
   width="683.92993"
   height="616.85895"
   viewBox="0 0 683.92993 616.85895"
   sodipodi:docname="sandevistan.svg"
   inkscape:export-filename="..\..\..\Foundry VTT\Foundry Data\Data\Cyberpunk\Custom SVGs\Inkscape\sandevistan.svg"
   inkscape:export-xdpi="96"
   inkscape:export-ydpi="96"
   xml:space="preserve"
   xmlns:inkscape="http://www.inkscape.org/namespaces/inkscape"
   xmlns:sodipodi="http://sodipodi.sourceforge.net/DTD/sodipodi-0.dtd"
   xmlns="http://www.w3.org/2000/svg"
   xmlns:svg="http://www.w3.org/2000/svg"><defs
     id="defs1"><filter
       style="color-interpolation-filters:sRGB"
       inkscape:label="Drop Shadow"
       id="filter29"
       x="-0.058830264"
       y="-0.066072154"
       width="1.1176605"
       height="1.1321443"><feFlood
         result="flood"
         in="SourceGraphic"
         flood-opacity="1.000000"
         flood-color="rgb(58,63,94)"
         id="feFlood27" /><feGaussianBlur
         result="blur"
         in="SourceGraphic"
         stdDeviation="15.000000"
         id="feGaussianBlur27" /><feOffset
         result="offset"
         in="blur"
         dx="0.000000"
         dy="0.000000"
         id="feOffset27" /><feComposite
         result="comp1"
         operator="out"
         in="flood"
         in2="offset"
         id="feComposite28" /><feComposite
         result="comp2"
         operator="atop"
         in="comp1"
         in2="SourceGraphic"
         id="feComposite29" /></filter></defs><sodipodi:namedview
     id="namedview1"
     pagecolor="#1b1f21"
     bordercolor="#eeeeee"
     borderopacity="1"
     inkscape:showpageshadow="0"
     inkscape:pageopacity="0"
     inkscape:pagecheckerboard="0"
     inkscape:deskcolor="#505050"
     showgrid="false"
     inkscape:export-bgcolor="#1b1f21ff"
     inkscape:zoom="0.83410153"
     inkscape:cx="288.3342"
     inkscape:cy="279.94194"
     inkscape:window-width="1920"
     inkscape:window-height="1017"
     inkscape:window-x="-8"
     inkscape:window-y="-8"
     inkscape:window-maximized="1"
     inkscape:current-layer="g1" /><g
     inkscape:groupmode="layer"
     inkscape:label="Image"
     id="g1"
     transform="translate(-18.870176,-44.503017)"><g
       inkscape:groupmode="layer"
       id="layer2"
       inkscape:label="Image 1"
       transform="translate(5.185076,5.243336)"><rect
         style="fill:#1b1f21;fill-opacity:1"
         id="rect38"
         width="787.67389"
         height="767.29266"
         x="-33.569054"
         y="-32.370159" /></g><path
       style="fill:#e64539;fill-opacity:1;filter:url(#filter29)"
       d="m 96.133448,624.23672 c -4.033333,-0.56425 -9.629327,-1.85995 -12.435542,-2.87933 l -5.102209,-1.85343 -2.763301,-4.8352 -2.763302,-4.8352 2.766589,-5.88566 c 1.521624,-3.23712 5.061104,-7.77659 7.86551,-10.08772 2.804407,-2.31114 6.003443,-4.96238 7.108968,-5.89165 1.105526,-0.92927 5.60272,-4.08959 9.993759,-7.02292 4.39105,-2.93333 9.48653,-6.08283 11.32329,-6.99889 1.83677,-0.91605 5.13957,-2.8447 7.33957,-4.28589 2.2,-1.44118 7,-4.08403 10.66667,-5.87301 3.66667,-1.78897 11.76667,-5.63308 18,-8.54246 6.23333,-2.90937 18.89824,-8.96702 28.14423,-13.46143 9.246,-4.49441 17.66249,-8.17165 18.70333,-8.17165 1.04083,0 3.10657,-0.85042 4.59052,-1.88983 1.48396,-1.0394 4.89609,-2.30216 7.58251,-2.80614 2.68642,-0.50397 5.57925,-1.75355 6.4285,-2.77684 0.84925,-1.02329 2.22063,-1.86422 3.0475,-1.86874 0.82688,-0.005 3.11689,-0.84999 5.08892,-1.87883 l 3.58552,-1.87061 5.45252,1.384 5.45253,1.384 -3.68039,1.90941 c -2.02421,1.05018 -7.59133,3.41018 -12.37137,5.24446 -4.78004,1.83427 -11.1567,4.49771 -14.17036,5.91875 -3.01366,1.42103 -6.43488,2.5837 -7.60273,2.5837 -1.16784,0 -8.00212,2.92251 -15.18729,6.49446 -7.18517,3.57195 -18.76394,9.19585 -25.73061,12.49755 -6.96666,3.30171 -14.16666,6.67485 -16,7.49587 -1.83333,0.82102 -4.23333,2.0025 -5.33333,2.62552 -1.1,0.62301 -3.2,1.80713 -4.66667,2.63139 -1.46666,0.82425 -6.09204,3.29724 -10.27862,5.49552 -4.18658,2.19829 -10.63042,6.11852 -14.31966,8.71163 -3.68924,2.5931 -7.217465,4.71473 -7.840507,4.71473 -0.623042,0 -4.874264,3.50543 -9.44716,7.78984 l -8.314356,7.78984 0.433485,4.54349 0.433486,4.54349 6.666667,2.22644 c 3.666666,1.22454 8.796667,2.27454 11.400005,2.33333 2.60333,0.0588 5.36045,-0.52022 6.12693,-1.28671 0.76649,-0.76648 5.83649,-1.6945 11.26667,-2.06226 5.43019,-0.36776 13.17306,-1.48363 17.2064,-2.47972 4.03333,-0.99609 13.93333,-2.85239 22,-4.12512 8.06666,-1.27273 19.16666,-3.07166 24.66666,-3.99762 5.5,-0.92596 14.2,-2.38941 19.33334,-3.25211 5.13333,-0.8627 12.63333,-2.35919 16.66666,-3.32553 4.03334,-0.96633 14.83334,-2.81324 24.00001,-4.10424 l 16.66666,-2.34726 6.33334,0.95877 6.33333,0.95876 v 2.50327 2.50328 l -6.33333,0.84966 c -3.48334,0.46732 -9.33334,1.3936 -13,2.0584 -3.66667,0.6648 -15.36667,2.75624 -26,4.64764 -10.63334,1.89141 -23.15254,4.00925 -27.82046,4.70633 -4.66791,0.69707 -8.91552,1.53217 -9.43913,1.85578 -0.5236,0.32361 -5.1044,1.22923 -10.17955,2.01249 -5.07514,0.78326 -13.12753,2.2911 -17.8942,3.35074 -4.76667,1.05965 -13.16667,2.58902 -18.66667,3.39861 -5.5,0.80959 -12.7,1.99386 -16,2.63171 -3.3,0.63786 -9.6,1.11683 -14,1.06439 -4.4,-0.0524 -11.3,-0.557 -15.333332,-1.12125 z m 500.666682,0.0734 c -2.93333,-0.63208 -9.83333,-1.81771 -15.33333,-2.63472 -5.5,-0.81701 -13.90001,-2.35245 -18.66667,-3.4121 -4.76667,-1.05964 -12.81906,-2.56748 -17.89421,-3.35074 -5.07514,-0.78326 -9.65305,-1.6871 -10.17313,-2.00853 -0.52008,-0.32142 -7.16769,-1.50938 -14.77247,-2.63989 -7.60477,-1.13052 -20.12686,-3.24836 -27.82686,-4.70631 -7.7,-1.45796 -19.4,-3.54073 -26,-4.62837 -6.6,-1.08764 -12.75,-1.69778 -13.66667,-1.35585 l -1.66667,0.62168 v -3.19554 -3.19555 l 7.58712,-0.94795 7.58711,-0.94794 15.41289,2.30331 c 8.47709,1.26682 18.68895,3.15022 22.69302,4.18534 4.00407,1.03511 9.59352,1.88202 12.42099,1.88202 2.82747,0 6.28528,0.61248 7.68403,1.36107 1.39874,0.74858 8.4093,2.20914 15.57901,3.24568 7.16971,1.03654 19.33584,2.88271 27.03584,4.10261 7.7,1.2199 17.3,3.03133 21.33333,4.0254 4.03334,0.99406 11.77621,2.10828 17.2064,2.47604 5.43018,0.36776 10.50018,1.29578 11.26666,2.06226 0.76649,0.76649 3.52361,1.34551 6.12694,1.28671 2.60334,-0.0588 7.73334,-1.10879 11.4,-2.33333 l 6.66667,-2.22644 0.43349,-4.54349 0.43348,-4.54349 -8.31435,-7.78984 c -4.5729,-4.28441 -8.82412,-7.78984 -9.44716,-7.78984 -0.62305,0 -4.15127,-2.12163 -7.84051,-4.71473 -3.68924,-2.59311 -10.13308,-6.51334 -14.31966,-8.71163 -4.18658,-2.19828 -8.66196,-4.57665 -9.94529,-5.28526 -1.28333,-0.70861 -3.38333,-1.89274 -4.66667,-2.63139 -1.28333,-0.73866 -3.83333,-2.01005 -5.66666,-2.82531 -1.83334,-0.81527 -7.53334,-3.47442 -12.66667,-5.90922 -5.13334,-2.4348 -14.73334,-6.60941 -21.33334,-9.27692 -6.6,-2.66751 -14.50684,-6.30401 -17.57076,-8.08111 -3.06391,-1.77711 -6.68041,-3.2311 -8.03665,-3.2311 -1.35625,0 -3.64941,-0.79852 -5.09591,-1.77449 -1.44651,-0.97597 -5.33001,-2.83027 -8.63001,-4.12066 -3.3,-1.29039 -9.24564,-3.88068 -13.21253,-5.75621 l -7.21252,-3.41004 4.54586,-1.50638 4.54586,-1.50638 3.33333,1.69553 c 1.83333,0.93255 4.00987,1.69923 4.83674,1.70375 0.82687,0.005 2.25034,0.90821 3.16326,2.00821 0.91292,1.1 2.94527,2 4.51634,2 1.57107,0 5.09542,1.2 7.83191,2.66667 2.73648,1.46667 5.63665,2.66667 6.44482,2.66667 0.80816,0 6.36034,2.31373 12.33816,5.14163 5.97782,2.8279 17.31877,7.6939 25.2021,10.81334 7.88334,3.11943 14.33334,6.22055 14.33334,6.89136 0,0.67082 1.65,1.83985 3.66667,2.59785 2.01666,0.758 6.66666,2.8645 10.33333,4.68111 3.66667,1.81661 8.46667,4.48208 10.66667,5.92326 2.2,1.44119 5.5028,3.36984 7.33957,4.28589 1.83676,0.91606 6.93224,4.06556 11.32328,6.99889 4.39105,2.93333 8.88824,6.09365 9.99377,7.02292 1.10552,0.92927 4.30456,3.58051 7.10896,5.89165 2.80441,2.31113 6.34389,6.8506 7.86552,10.08772 l 2.76658,5.88566 -2.76719,4.84201 -2.76719,4.842 -6.97105,2.36954 -6.97105,2.36953 -14.12727,0.60135 c -7.77,0.33074 -16.52727,0.0842 -19.4606,-0.54791 z m -293.48807,-2.76397 -2.8214,-1.04909 -0.97157,-15.10904 c -0.53437,-8.30997 -1.43201,-15.70904 -1.99476,-16.44237 -0.56274,-0.73333 -1.40073,-2.91715 -1.86218,-4.85293 -0.46146,-1.93578 -1.74419,-3.86695 -2.85052,-4.29149 l -2.01151,-0.77189 -0.14904,12.29149 c -0.082,6.76032 -0.38186,14.32987 -0.66642,16.82123 -0.28455,2.49136 -1.19094,5.34136 -2.01421,6.33333 -0.82327,0.99198 -2.02338,1.80359 -2.66692,1.80359 -0.64354,0 -2.37008,-1.2 -3.83674,-2.66666 l -2.66667,-2.66667 V 593.3519 575.75819 l -3.3995,-3.54831 -3.3995,-3.54831 10.3995,-4.27831 10.3995,-4.27831 22.52477,-1.46228 22.52478,-1.46227 3.47522,4.22796 3.47523,4.22796 14.77961,-0.012 14.7796,-0.012 3.56401,-4 3.56402,-4 6.98972,0.0495 c 3.84434,0.0272 14.67804,0.57525 24.07488,1.21779 l 17.08518,1.16826 10.66511,4.29912 10.66512,4.29911 -4.08362,4.21323 -4.08363,4.21323 v 17.39654 17.39654 l -2.56746,2.32353 c -1.4121,1.27793 -3.65748,2.1136 -4.98972,1.85703 l -2.42227,-0.46649 -0.85252,-3.98371 c -0.46889,-2.19105 -0.92351,-10.13372 -1.01027,-17.65039 l -0.15776,-13.66667 h -1.36666 c -0.75167,0 -1.72398,1.78655 -2.16069,3.9701 -0.43671,2.18356 -1.62171,4.65702 -2.63333,5.4966 l -1.83932,1.52649 -0.0768,10.17007 c -0.0423,5.59354 -0.50244,12.57008 -1.02261,15.50341 l -0.94578,5.33333 h -4.64405 -4.64405 l -1.33333,-15.33333 -1.33334,-15.33333 -47.10938,-0.0413 -47.10939,-0.0413 -1.22395,2.28696 c -0.67317,1.25783 -1.23313,7.27641 -1.24436,13.37462 -0.0112,6.09821 -0.46123,11.73142 -1,12.51824 -0.53877,0.78683 -1.87959,1.75799 -2.97959,2.15813 -1.1,0.40015 -3.26962,0.25545 -4.82139,-0.32155 z m -36.92393,-73.38619 -2.24453,-16.11902 -2.12033,-3.58943 c -1.16618,-1.97418 -4.01846,-4.73112 -6.3384,-6.12654 -2.31995,-1.39541 -8.9316,-3.94055 -14.69257,-5.65586 -5.76097,-1.71531 -13.07805,-4.30481 -16.26018,-5.75444 -3.18213,-1.44963 -6.56862,-2.63938 -7.52552,-2.6439 -0.9569,-0.005 -3.34078,-0.84349 -5.29751,-1.86439 -1.95672,-1.0209 -5.869,-2.24667 -8.69394,-2.72394 -2.82493,-0.47727 -5.84778,-1.30752 -6.71744,-1.845 l -1.58119,-0.97723 2.47063,-9.60498 2.47064,-9.60498 -5.29313,-13.64936 c -2.91122,-7.50715 -5.34369,-15.42778 -5.40549,-17.60141 l -0.11236,-3.95206 4.54332,-3.80999 c 2.49883,-2.0955 7.07589,-5.23142 10.17124,-6.96871 l 5.62792,-3.1587 0.82479,4.88448 c 0.45363,2.68647 2.06298,9.6315 3.57632,15.43341 1.51334,5.80191 5.89273,16.73111 9.73197,24.28711 3.83925,7.556 8.86036,16.11176 11.15802,19.0128 2.29767,2.90104 6.754,6.52184 9.90295,8.04623 3.14896,1.52438 7.59061,2.7716 9.87033,2.7716 2.27973,0 8.60158,-1.78452 14.04857,-3.9656 5.44698,-2.18107 13.44232,-4.89377 17.76741,-6.0282 l 7.8638,-2.06261 13.81865,-0.042 c 7.60026,-0.0231 14.03371,0.17303 14.29656,0.43588 0.26285,0.26285 0.94446,7.04446 1.51469,15.07024 l 1.03677,14.59233 h 36.66667 36.66667 l 1.03677,-14.59233 c 0.57023,-8.02578 1.25184,-14.80739 1.51469,-15.07024 0.26285,-0.26285 6.6963,-0.45899 14.29655,-0.43588 l 13.81865,0.042 7.86381,2.06261 c 4.32509,1.13443 12.32042,3.84713 17.76741,6.0282 5.44698,2.18108 11.76884,3.9656 14.04856,3.9656 2.27973,0 6.72138,-1.24722 9.87033,-2.7716 3.14896,-1.52439 7.60529,-5.14519 9.90295,-8.04623 2.29767,-2.90104 7.31878,-11.4568 11.15802,-19.0128 3.83925,-7.556 8.21864,-18.4852 9.73198,-24.28711 1.51334,-5.80191 3.12269,-12.74694 3.57632,-15.43341 l 0.82479,-4.88448 5.80748,3.24587 c 3.19412,1.78522 7.37668,4.81506 9.29459,6.73296 1.9179,1.91791 3.4871,4.66575 3.4871,6.10632 0,1.44057 -1.86696,9.00875 -4.14881,16.81818 l -4.1488,14.19897 0.82838,9.03872 c 0.45561,4.9713 0.97257,9.74947 1.14881,10.61816 l 0.32042,1.57944 -6,1.81099 c -3.3,0.99605 -8.4,2.77402 -11.33333,3.95105 -2.93334,1.17703 -8.03334,3.26667 -11.33334,4.64365 -3.3,1.37697 -7.2,3.06924 -8.66666,3.76058 -1.46667,0.69134 -5.96667,2.03758 -10,2.99164 -4.03334,0.95407 -9.23147,2.88686 -11.55142,4.2951 -2.31994,1.40824 -5.1809,4.19036 -6.35768,6.18249 l -2.1396,3.62205 -1.93541,15.60171 c -1.06447,8.58094 -2.14875,15.81505 -2.4095,16.0758 -0.26075,0.26075 -5.67017,-1.62114 -12.02095,-4.18198 -6.35077,-2.56084 -12.90554,-4.66426 -14.56615,-4.67428 -1.66061,-0.01 -4.3693,-0.37999 -6.0193,-0.82217 l -3,-0.80397 v -4.3479 c 0,-2.39134 -0.75748,-4.97655 -1.68329,-5.74491 l -1.68329,-1.39701 -19.31671,0.23375 -19.31671,0.23375 -0.4196,6.65702 -0.41961,6.65701 -2.12038,2.34299 -2.12037,2.34298 H 359.4234 347.12664 l -1.41675,-1.70708 c -0.77922,-0.9389 -1.60269,-4.9889 -1.82993,-9 l -0.41317,-7.29292 -11.33334,-1.03982 c -6.23333,-0.5719 -15.23333,-0.8719 -20,-0.66667 l -8.66666,0.37316 -0.42522,5.9781 c -0.23386,3.28795 -1.13386,6.42876 -2,6.97958 -0.86613,0.55082 -3.23347,1.01067 -5.26075,1.0219 -2.02727,0.0112 -8.89387,2.12042 -15.2591,4.68709 -6.36522,2.56666 -11.64422,4.66666 -11.7311,4.66666 -0.0869,0 -1.168,-7.25356 -2.40249,-16.11902 z m -11.57942,13.29068 c -1.8286,-0.72929 -13.5286,-1.90229 -26,-2.60667 -12.47139,-0.70438 -27.77526,-2.04333 -34.00859,-2.97545 l -11.33334,-1.69476 6.98995,-3.63142 6.98994,-3.63142 5.01006,0.68268 c 2.75553,0.37548 14.63941,1.2635 26.40862,1.97339 l 21.39857,1.29069 4.93477,2.06188 4.93476,2.06188 v 3.9821 c 0,2.19016 -0.45,3.94408 -1,3.8976 -0.55,-0.0465 -2.49613,-0.68121 -4.32474,-1.4105 z m 208.7079,-2.83832 c 0.51059,-2.38334 1.00827,-4.36185 1.10594,-4.39669 0.0977,-0.0349 1.86965,-0.79116 3.93775,-1.68069 2.06809,-0.88953 12.86809,-2.21235 24,-2.9396 11.1319,-0.72725 21.88643,-1.60526 23.89895,-1.95114 l 3.65912,-0.62886 8.26917,3.58623 8.26918,3.58624 -10.59497,1.69368 c -5.82722,0.93152 -20.57567,2.29054 -32.77432,3.02005 -12.19866,0.7295 -23.78772,1.93786 -25.75347,2.68524 -1.96576,0.74738 -3.88271,1.35887 -4.25991,1.35887 -0.37719,0 -0.26804,-1.95 0.24256,-4.33333 z m -154.49427,-5.88889 c -0.48889,-0.48889 -0.88889,-2.37436 -0.88889,-4.18994 v -3.30106 l 8.19559,0.85661 c 4.50758,0.47114 11.10758,0.85661 14.66667,0.85661 h 6.47108 v 3.33333 3.33334 h -13.77778 c -7.57778,0 -14.17778,-0.4 -14.66667,-0.88889 z m 73.84485,-1.65247 -1.40761,-2.63014 1.38628,-0.85677 c 0.76245,-0.47122 7.99284,-0.42858 16.06754,0.0948 l 14.68126,0.95153 -0.41308,2.15765 -0.41307,2.15765 -14.24686,0.37773 -14.24685,0.37772 z m -259.83004,-1.55745 -8.42963,-1.094 -5.57037,-3.36377 c -3.0637,-1.85008 -7.07037,-4.5493 -8.9037,-5.99828 l -3.333335,-2.6345 1.666008,-1.67133 1.666007,-1.67133 6.03633,2.93268 c 3.31998,1.61297 7.97027,2.94699 10.33399,2.96448 2.36372,0.0175 6.69767,0.6763 9.631,1.46401 2.93333,0.78771 10.43333,1.84305 16.66667,2.3452 l 11.33333,0.913 -7.83257,3.62299 c -4.30792,1.99264 -9.40792,3.54691 -11.33334,3.45392 -1.92542,-0.093 -7.29409,-0.66137 -11.93039,-1.26307 z m 455.76298,-2.33326 -8.66667,-3.56793 10.66667,-0.87654 c 5.86667,-0.4821 13.06667,-1.51779 16,-2.30153 2.93333,-0.78374 7.26298,-1.4393 9.62143,-1.45679 2.35845,-0.0175 6.3874,-1.03289 8.9532,-2.25644 l 4.66511,-2.22464 2.92609,1.30566 2.92609,1.30566 -8.25079,5.50967 -8.25079,5.50967 -6.29517,0.81327 c -3.46235,0.44731 -8.39517,1.03706 -10.96184,1.31057 l -4.66666,0.4973 z m -521.075355,0.8234 -1.591328,-1.59133 v -12.3132 c 0,-6.77226 0.539719,-13.73277 1.199376,-15.4678 l 1.199375,-3.1546 16.467292,-8.2789 c 9.05701,-4.5534 17.076177,-8.27289 17.82037,-8.26554 0.744194,0.007 3.71389,-1.25195 6.599325,-2.79845 2.885435,-1.5465 10.676555,-4.86804 17.313585,-7.38121 6.63704,-2.51316 14.61634,-5.75045 17.73178,-7.19396 3.11544,-1.44351 11.81544,-4.76303 19.33333,-7.3767 7.5179,-2.61367 15.51972,-5.31188 17.78183,-5.99603 2.26211,-0.68415 5.86211,-3.02642 8,-5.20506 2.13789,-2.17863 4.25123,-3.97781 4.6963,-3.99818 0.44508,-0.0204 2.79249,5.09289 5.21648,11.3628 l 4.40726,11.39983 -1.93919,8.26683 -1.9392,8.26683 -3.84568,-0.42064 c -2.11513,-0.23136 -5.61344,-1.33479 -7.77403,-2.45208 l -3.92834,-2.03142 -6.16993,2.27984 c -3.39346,1.25391 -12.46993,4.95992 -20.16993,8.23558 -7.7,3.27566 -18.3729,8.00316 -23.71754,10.50557 -5.34465,2.5024 -10.05887,4.54982 -10.47605,4.54982 -0.41717,0 -4.74428,1.87379 -9.61579,4.16399 -4.871508,2.29019 -15.757289,8.3184 -24.190622,13.39602 -8.433334,5.07762 -16.567237,10.09992 -18.07534,11.16067 l -2.742006,1.92864 z m 602.263845,-0.78228 c -1.75367,-1.32254 -7.08849,-4.80779 -11.85516,-7.74501 -4.76666,-2.93722 -12.11666,-6.76863 -16.33333,-8.51424 -4.21667,-1.74561 -7.66667,-3.59302 -7.66667,-4.10535 0,-0.51234 -3.2098,-2.50193 -7.13289,-4.42132 -3.9231,-1.91939 -7.5002,-3.4898 -7.94913,-3.4898 -0.44892,0 -5.18912,-2.0312 -10.53377,-4.51379 -5.34465,-2.48259 -13.24005,-6.08259 -17.54533,-8 -4.30529,-1.91741 -8.38821,-3.48621 -9.07315,-3.48621 -0.68495,0 -3.76245,-1.09386 -6.83888,-2.43079 -3.07643,-1.33694 -8.14352,-3.52806 -11.26018,-4.86917 l -5.66667,-2.43837 -5,2.12525 c -2.75,1.16889 -6.27894,2.47789 -7.8421,2.9089 l -2.8421,0.78365 -0.77649,-2.02349 c -0.42707,-1.11293 -1.16209,-4.93031 -1.63338,-8.48307 l -0.85689,-6.45956 2.84678,-10.55668 c 1.56573,-5.80617 3.14999,-11.40862 3.52058,-12.4499 l 0.67379,-1.89323 4.95491,4.80439 c 2.72519,2.64242 7.6549,5.79619 10.9549,7.00839 3.3,1.2122 10.21868,3.27553 15.37484,4.58517 5.15616,1.30964 12.45233,3.94064 16.21372,5.84668 3.76138,1.90604 13.2685,5.8806 21.12692,8.83236 7.85843,2.95176 16.16226,6.50732 18.45295,7.90124 2.2907,1.39392 9.86491,4.94955 16.83157,7.90142 6.96667,2.95186 15.45042,6.92774 18.85279,8.83529 l 6.18612,3.46828 0.79567,2.96829 c 0.43762,1.63256 0.80387,8.44482 0.81388,15.13836 l 0.0182,12.17007 -1.81151,1.50342 -1.81151,1.50342 z M 338.21538,509.31056 c -0.28892,-0.93406 -0.88221,-7.99828 -1.31842,-15.69828 l -0.7931,-14 -2.24004,-1.66667 -2.24004,-1.66667 -17.41183,0.0232 -17.41183,0.0231 -9.33333,1.96769 c -5.13334,1.08222 -14.80063,4.60597 -21.48288,7.83054 -6.68225,3.22457 -13.94749,6.25775 -16.14498,6.74039 l -3.99543,0.87755 -5.33826,-2.13595 -5.33825,-2.13595 -7.43999,-14.92862 -7.43998,-14.92862 -2.74345,-10.88882 c -1.5089,-5.98885 -2.74345,-13.66864 -2.74345,-17.06621 0,-3.39757 0.90684,-7.93105 2.01521,-10.07439 1.10837,-2.14335 3.48151,-6.05769 5.27364,-8.69855 1.79213,-2.64085 5.57508,-7.00741 8.40655,-9.70346 2.83148,-2.69605 6.90834,-6.14691 9.0597,-7.66859 2.15136,-1.52167 7.51157,-4.3987 11.91157,-6.39341 4.4,-1.9947 9.5,-4.43794 11.33333,-5.42942 1.83333,-0.99147 12.40185,-3.66444 23.48559,-5.93992 l 20.15225,-4.13723 h 10.18108 10.18108 v 21.89095 c 0,12.04002 0.36419,22.84002 0.80932,24 l 0.80932,2.10905 h 33.04803 33.04803 l 0.80932,-2.10905 c 0.44512,-1.15998 0.80932,-11.95998 0.80932,-24 v -21.89095 h 10.62007 10.62007 l 19.04659,3.9784 c 10.47563,2.18812 20.8466,4.84935 23.0466,5.91385 2.2,1.0645 7.6,3.57922 12,5.58826 4.4,2.00904 9.76021,4.8978 11.91157,6.41947 2.15136,1.52168 6.22822,4.97254 9.05969,7.66859 2.83148,2.69605 6.61443,7.06261 8.40656,9.70346 1.79213,2.64086 4.16527,6.5552 5.27364,8.69855 1.10836,2.14334 2.01521,6.67682 2.01521,10.07439 0,3.39757 -1.23455,11.07736 -2.74345,17.06621 l -2.74345,10.88882 -7.43999,14.92862 -7.43998,14.92862 -5.33826,2.13595 -5.33825,2.13595 -3.99543,-0.87755 c -2.19749,-0.48264 -9.46273,-3.51582 -16.14498,-6.74039 -6.68225,-3.22457 -16.34955,-6.74832 -21.48288,-7.83054 l -9.33333,-1.96769 -17.41183,-0.0231 -17.41183,-0.0232 -2.24594,1.66667 -2.24594,1.66667 -1.0089,15.33333 -1.0089,15.33333 -23.02971,0.36495 -23.02972,0.36495 z m -94.08193,-63.55563 c 0,-1.38821 -0.98988,-2.90387 -2.19973,-3.36813 l -2.19973,-0.84412 2.77758,-2.9652 c 1.52767,-1.63086 3.45736,-4.75896 4.28819,-6.95133 l 1.51061,-3.98612 -0.83377,-4.44434 -0.83376,-4.44435 3.04577,0.43047 3.04577,0.43047 0.43315,-2.1733 0.43315,-2.17331 -9.1178,-2.23443 -9.11779,-2.23443 -3.61521,1.3745 c -1.98836,0.75598 -4.81324,3.33945 -6.2775,5.74107 -1.46426,2.40161 -2.66454,6.11385 -2.66728,8.24942 -0.003,2.13557 1.52144,6.4875 3.38707,9.67095 l 3.39205,5.7881 6.27461,3.26696 c 3.45104,1.79684 6.72462,3.29491 7.27462,3.32905 0.55,0.0342 1,-1.07372 1,-2.46193 z M 230.20906,433.3156 c -1.14159,-1.62984 -2.07561,-4.79633 -2.07561,-7.03666 0,-2.24032 0.93402,-5.40682 2.07561,-7.03665 1.14158,-1.62984 3.24158,-2.96335 4.66666,-2.96335 1.42509,0 3.79107,1.2 5.25773,2.66667 l 2.66667,2.66667 v 4.36999 c 0,2.40349 -0.93402,5.70349 -2.07561,7.33333 l -2.0756,2.96334 h -3.18212 -3.18213 z m 256.57417,11.63857 6.56112,-3.32477 3.39455,-5.79237 c 1.86701,-3.1858 3.39232,-7.53966 3.38958,-9.67523 -0.003,-2.13557 -1.20302,-5.84781 -2.66728,-8.24942 -1.46427,-2.40162 -4.28914,-4.98509 -6.2775,-5.74107 l -3.61521,-1.3745 -9.1178,2.23443 -9.11779,2.23443 0.43315,2.17331 0.43314,2.1733 3.04578,-0.43047 3.04577,-0.43047 -0.83376,4.44435 -0.83377,4.44434 1.51061,3.98612 c 0.83083,2.19237 2.76052,5.32047 4.28818,6.95133 l 2.77758,2.9652 -2.19973,0.84412 c -1.20985,0.46426 -2.19972,1.97992 -2.19972,3.36813 0,1.38821 0.31994,2.52401 0.71099,2.52401 0.39104,0 3.66349,-1.49614 7.27211,-3.32477 z m -4.57417,-11.63857 c -1.14158,-1.62984 -2.0756,-4.92984 -2.0756,-7.33333 v -4.36999 l 2.66667,-2.66667 c 1.46666,-1.46667 3.83264,-2.66667 5.25772,-2.66667 1.42509,0 3.52509,1.33351 4.66667,2.96335 1.14158,1.62983 2.07561,4.79633 2.07561,7.03665 0,2.24033 -0.93403,5.40682 -2.07561,7.03666 l -2.0756,2.96334 h -3.18213 -3.18212 z m 157.59107,62.13669 -3.66667,-1.92518 v -3.91636 c 0,-2.15399 -1.24774,-6.48483 -2.77276,-9.62408 -1.52502,-3.13925 -3.17502,-6.37356 -3.66666,-7.18737 -0.49165,-0.8138 -2.05262,-3.1244 -3.46882,-5.13465 l -2.57491,-3.65501 1.29,-2.04507 c 0.70949,-1.12479 1.8682,-2.04687 2.5749,-2.04908 0.70671,-0.002 1.93819,1.27453 2.73663,2.8372 0.79844,1.56268 2.30507,3.89536 3.34808,5.18374 1.04301,1.28838 2.8433,4.14251 4.00066,6.34251 1.15735,2.2 3.17445,8.07627 4.48244,13.05837 1.30799,4.98209 2.15443,9.27926 1.88097,9.54925 -0.27346,0.27 -2.14719,-0.37543 -4.16386,-1.43427 z m -561.000016,0.10126 c 0,-0.35293 1.143798,-4.6841 2.541773,-9.62482 1.397974,-4.94071 3.510424,-10.86998 4.694332,-13.17615 1.183907,-2.30617 3.04011,-4.92964 4.124894,-5.82993 1.084784,-0.90029 1.972335,-2.38996 1.972335,-3.31037 0,-0.92042 0.774722,-2.31645 1.721605,-3.10229 l 1.721605,-1.4288 1.692347,2.70987 1.692346,2.70988 -2.413952,3.40936 c -1.327673,1.87515 -2.816208,4.0752 -3.307857,4.889 -0.491648,0.81381 -2.141648,4.04812 -3.666667,7.18737 -1.525018,3.13925 -2.77276,7.11578 -2.77276,8.83674 0,1.72096 -0.75,3.70934 -1.666667,4.41863 -0.916667,0.70929 -2.716667,1.66392 -4,2.12141 -1.283334,0.45749 -2.333334,0.54304 -2.333334,0.1901 z m 512.334706,-21.23968 -5.66531,-2.70159 8.99864,-4.33172 c 4.94926,-2.38245 10.92444,-5.50891 13.2782,-6.9477 l 4.27955,-2.61597 2.89956,-5.71897 c 1.59476,-3.14544 3.29575,-6.01898 3.77999,-6.38564 0.48423,-0.36667 2.10008,-2.77546 3.59078,-5.35288 1.49069,-2.57742 4.06245,-9.9872 5.71502,-16.46618 l 3.00466,-11.77996 -0.44122,-8.47932 -0.44123,-8.47932 2.66667,1.79862 2.66667,1.79862 -0.14215,13.31519 -0.14215,13.3152 -2.19118,3.12835 c -1.20516,1.7206 -2.19119,4.34963 -2.19119,5.84229 0,1.49267 -1.58704,5.70916 -3.52675,9.37 -1.93971,3.66083 -7.10188,11.2895 -11.47147,16.9526 l -7.94473,10.29655 -5.52853,3.07171 -5.52852,3.07171 z M 120.02019,473.6344 c -2.62896,-1.38968 -6.42287,-4.68069 -8.43091,-7.31337 -2.00804,-2.63267 -4.71685,-5.81915 -6.01959,-7.08105 -1.30273,-1.2619 -4.59135,-6.13202 -7.308046,-10.82248 -2.716692,-4.69046 -5.308165,-10.39046 -5.75883,-12.66667 -0.450664,-2.2762 -2.218134,-6.77792 -3.927711,-10.0038 l -3.108322,-5.86526 v -10.99209 -10.9921 l 2.10905,-0.80932 c 1.159978,-0.44512 2.271165,-0.80932 2.469306,-0.80932 0.19814,0 0.706133,5.33867 1.128871,11.86371 l 0.768616,11.86371 2.762079,6.06314 c 1.519143,3.33473 2.762079,6.66966 2.762079,7.41095 0,0.7413 1.730579,4.28288 3.845728,7.87019 2.11515,3.5873 4.22206,7.70807 4.68201,9.15725 0.45995,1.44918 2.47937,4.19261 4.4876,6.09651 2.00823,1.9039 8.9232,6.11968 15.36659,9.36839 l 11.71527,5.90675 -5.75984,2.1997 c -3.16792,1.20984 -6.03979,2.17319 -6.38193,2.14078 -0.34215,-0.0324 -2.77306,-1.19594 -5.40202,-2.58562 z m -7.71381,-29.03233 -1.39994,-2.61582 2.9853,-4.04635 c 1.64191,-2.22549 6.26799,-6.71557 10.28017,-9.97796 4.01218,-3.26239 12.10367,-9.17568 17.98109,-13.14064 5.87741,-3.96496 11.63766,-7.80902 12.80054,-8.54236 1.16288,-0.73333 4.56505,-2.96621 7.56037,-4.96196 2.99533,-1.99575 11.03508,-6.49575 17.86613,-10 6.83104,-3.50425 12.72008,-6.67537 13.08674,-7.04693 0.36667,-0.37156 6.66667,-3.60108 14,-7.17672 7.33334,-3.57563 15.84434,-7.74991 18.91335,-9.27617 l 5.58001,-2.77503 2.70535,2.44831 2.70536,2.44831 -6.28537,3.04436 c -3.45695,1.6744 -14.38536,7.05474 -24.28536,11.95633 -9.9,4.90158 -21.60767,10.8196 -26.01705,13.15115 -4.40937,2.33154 -10.88945,6.17774 -14.40017,8.5471 -3.51073,2.36936 -6.77081,4.30792 -7.24463,4.30792 -0.47381,0 -3.29374,1.64103 -6.26649,3.64674 -2.97275,2.00571 -8.70468,6.05571 -12.73762,9 -4.03294,2.94429 -8.13492,5.95326 -9.1155,6.68659 -0.98059,0.73334 -5.27701,4.8446 -9.54761,9.13615 l -7.76472,7.8028 z m 487.78365,-5.65397 c -4.74278,-4.33588 -9.52323,-8.67931 -10.62323,-9.65207 -1.1,-0.97276 -4.7,-3.54786 -8,-5.72245 -3.3,-2.17459 -6.3,-4.25718 -6.66667,-4.62797 -0.36667,-0.37079 -3.06667,-2.23768 -6,-4.14865 -2.93334,-1.91096 -8.33334,-5.32447 -12,-7.58558 -3.66667,-2.26111 -10.26667,-6.01101 -14.66667,-8.33313 -4.4,-2.32212 -10.86487,-5.80692 -14.36639,-7.744 -3.50151,-1.93708 -11.60151,-6.1326 -18,-9.32336 -6.39848,-3.19077 -16.33232,-8.14077 -22.07519,-11 l -10.44157,-5.19861 h -4.28783 -4.28783 l -5.20786,5.33333 -5.20786,5.33333 h -2.68405 c -1.47622,0 -8.59092,-1.26469 -15.81044,-2.81042 l -13.1264,-2.81043 -6.10141,-6.52291 -6.10142,-6.5229 h -10.95529 c -6.02541,0 -14.6433,-0.38548 -19.15088,-0.85661 l -8.19558,-0.85661 v -9.81006 -9.81006 h 9.81428 9.81427 l 0.8408,-7 c 0.46244,-3.85 0.84602,-10.23815 0.85239,-14.19589 l 0.0116,-7.1959 12.71208,0.75841 12.71208,0.75841 9.62126,4.96437 c 5.29168,2.7304 12.92125,7.19282 16.95458,9.91648 4.03333,2.72366 9.85943,6.23657 12.94688,7.80645 3.08746,1.56989 6.98746,2.84116 8.66667,2.82506 1.67922,-0.0161 5.45827,-1.12192 8.39789,-2.45736 2.93962,-1.33544 7.29659,-4.65108 9.68215,-7.36808 2.38556,-2.717 6.44137,-9.11797 9.01291,-14.22438 2.57155,-5.10641 5.90769,-12.5776 7.41366,-16.60264 1.50596,-4.02504 3.30692,-7.31826 4.00214,-7.31826 0.69521,0 3.51091,1.4184 6.25711,3.15199 2.74619,1.7336 5.68603,3.98695 6.53297,5.00746 0.84695,1.02051 1.91818,3.36262 2.38051,5.2047 l 0.8406,3.34922 -5.5771,8.62886 -5.5771,8.62886 0.81757,11.51789 0.81756,11.5179 -5.04554,3.49656 c -2.77505,1.92311 -5.91329,3.49934 -6.97388,3.50274 -1.06058,0.003 -5.52833,1.46808 -9.92833,3.25485 l -8,3.24868 -0.41221,2.63939 -0.41221,2.63939 9.07888,4.18786 c 4.99338,2.30333 14.62692,7.00092 21.40786,10.43909 6.78094,3.43818 12.33094,6.65355 12.33333,7.14529 0.002,0.49173 1.79747,1.28789 3.98906,1.76925 2.19159,0.48135 4.33262,1.43811 4.75784,2.12614 0.42522,0.68802 2.6821,2.13627 5.01529,3.21832 2.33319,1.08205 8.11349,4.15143 12.84512,6.82085 4.73162,2.66941 9.42448,5.67501 10.42857,6.67909 1.00409,1.00409 2.27439,1.82562 2.8229,1.82562 0.54851,0 4.04637,2.25 7.77303,5 3.72666,2.75 8.10563,5.9 9.73104,7 1.62541,1.1 6.33893,4.7 10.47449,8 4.13556,3.3 9.16496,7.4582 11.17644,9.24045 2.01148,1.78224 3.64805,4.18224 3.63682,5.33333 -0.0112,1.15109 -0.48077,2.81722 -1.04343,3.7025 l -1.02301,1.60962 z M 55.348209,407.61455 c -0.459823,-1.83208 -0.61531,-10.28452 -0.345526,-18.78318 l 0.490517,-15.45213 3.933507,-2.88348 c 2.163428,-1.58591 7.557484,-5.08585 11.98679,-7.77763 4.429306,-2.69178 15.853284,-8.84181 25.386618,-13.66672 9.533335,-4.82492 18.147555,-8.77255 19.142715,-8.77252 0.99515,3e-5 5.75598,-1.88349 10.57962,-4.1856 4.82364,-2.30211 11.50942,-4.95531 14.85729,-5.89599 3.34787,-0.94069 11.18704,-3.50178 17.42038,-5.69133 6.23333,-2.18954 14.82558,-5.03177 19.09388,-6.31606 l 7.76055,-2.33507 3.3977,-4.45461 c 1.86874,-2.45004 3.94482,-4.45462 4.61352,-4.45462 0.6687,0 3.14749,2.1917 5.50842,4.87044 2.36093,2.67874 5.08424,5.98962 6.0518,7.35751 l 1.7592,2.48707 -2.11329,10.2188 c -1.16231,5.62034 -2.40486,10.51037 -2.76121,10.86672 -0.35636,0.35636 -2.05638,-0.10586 -3.77782,-1.02715 l -3.1299,-1.67507 -18.32938,6.18612 c -10.08116,3.40236 -19.3218,6.68477 -20.53476,7.29423 -1.21296,0.60947 -5.80538,2.45009 -10.20538,4.09027 -4.4,1.64018 -16.1,6.87771 -26,11.63896 -9.9,4.76125 -21.403843,11.13975 -25.564093,14.17446 -4.16025,3.0347 -10.06885,7.01764 -13.130221,8.85097 -3.061372,1.83334 -9.557532,6.78127 -14.43591,10.99541 -4.878378,4.21414 -9.308348,7.66414 -9.844376,7.66667 -0.536029,0.003 -1.350817,-1.49439 -1.810641,-3.32647 z m 600.785251,-3.29914 c -4.03333,-3.61353 -10.50325,-8.54999 -14.37759,-10.96992 -3.87434,-2.41994 -10.47434,-6.8633 -14.66667,-9.87415 -4.19232,-3.01085 -15.74079,-9.46085 -25.66326,-14.33333 -9.92246,-4.87249 -18.50538,-8.85907 -19.07315,-8.85907 -0.56776,0 -3.54938,-1.09385 -6.62581,-2.43079 -3.07644,-1.33694 -7.99352,-3.36109 -10.92685,-4.49811 -2.93334,-1.13702 -8.63334,-3.27528 -12.66667,-4.75168 -4.03333,-1.47639 -11.15461,-4.05206 -15.82507,-5.72369 l -8.49173,-3.03934 -2.49018,1.55514 c -1.36959,0.85533 -2.72782,1.55514 -3.01828,1.55514 -0.29046,0 -0.94789,-4.47971 -1.46096,-9.9549 l -0.93285,-9.95491 5.02673,-8.14393 5.02672,-8.14394 4.08281,4.68266 4.08281,4.68266 6.37993,2.08285 c 3.50896,1.14556 7.01828,2.08284 7.7985,2.08284 0.78021,0 3.30924,0.87319 5.62007,1.94042 2.31082,1.06723 6.9015,2.90618 10.2015,4.08655 3.3,1.18038 8.73917,2.92365 12.08704,3.87393 3.34787,0.95029 9.94787,3.56106 14.66667,5.80173 4.71879,2.24066 13.88206,6.25997 20.36282,8.93179 6.48075,2.67183 15.18075,6.65135 19.33333,8.84338 4.15258,2.19203 11.49492,6.50626 16.31632,9.58719 4.8214,3.08092 10.2174,6.66043 11.99111,7.95446 l 3.22493,2.35278 0.4862,15.31616 c 0.26741,8.42389 0.10998,16.81514 -0.34984,18.64722 -0.45983,1.83208 -1.27462,3.31753 -1.81065,3.30099 -0.53602,-0.0165 -4.27459,-2.98659 -8.30793,-6.60013 z m -304,-31.84088 c 0,-10.89242 -0.38548,-23.49242 -0.85661,-28 l -0.85661,-8.19559 h 11.04655 11.04655 l -0.85661,8.19559 c -0.47113,4.50758 -0.85661,17.10758 -0.85661,28 v 19.80441 h -9.33333 -9.33333 z m -92.66667,-1.52892 -5.20786,-5.33333 h -4.67319 -4.67319 l -4.72288,-4.40637 c -2.59759,-2.4235 -8.02288,-5.66737 -12.05622,-7.20859 -4.03333,-1.54123 -8.83333,-3.16313 -10.66667,-3.60422 -1.83333,-0.44109 -4.74864,-1.99629 -6.47847,-3.45599 l -3.14514,-2.654 2.14514,-9.49897 c 1.17983,-5.22443 2.14514,-11.07979 2.14514,-13.0119 v -3.51292 l -7.28162,-8.34923 -7.28162,-8.34924 0.82193,-2.30762 c 0.45207,-1.26919 1.46999,-3.13922 2.26205,-4.15563 0.79206,-1.0164 3.687,-3.2664 6.43319,-5 2.74619,-1.73359 5.56189,-3.15199 6.25711,-3.15199 0.69522,0 2.49618,3.29322 4.00214,7.31826 1.50596,4.02504 4.84211,11.49623 7.41365,16.60264 2.57155,5.10641 6.62736,11.50738 9.01292,14.22438 2.38556,2.717 6.74253,6.03264 9.68215,7.36808 2.93962,1.33544 6.71867,2.44125 8.39789,2.45736 1.67921,0.0161 5.57921,-1.25517 8.66666,-2.82506 3.08746,-1.56988 8.91355,-5.08279 12.94689,-7.80645 4.03333,-2.72366 11.66289,-7.18608 16.95458,-9.91648 l 9.62125,-4.96437 12.71209,-0.75841 12.71208,-0.75841 0.0116,7.1959 c 0.006,3.95774 0.38995,10.34589 0.85239,14.19589 l 0.84079,7 h 9.81428 9.81428 v 10.47274 10.47275 l -18.33333,0.9218 -18.33334,0.92181 -2.23878,2.93879 c -1.23133,1.61633 -3.03133,3.96877 -4,5.22765 l -1.76122,2.28886 -16,3.37095 c -8.8,1.85402 -17.22823,3.37403 -18.7294,3.3778 l -2.7294,0.007 z m 346.33334,-38.63076 c -3.11667,-1.41471 -5.66667,-3.09914 -5.66667,-3.74319 0,-0.64404 -5.85,-7.14999 -13,-14.45766 -7.15,-7.30768 -16,-15.67841 -19.66667,-18.60164 -3.66666,-2.92323 -9.35477,-7.09661 -12.64023,-9.27419 -3.28546,-2.17757 -7.08599,-4.85923 -8.44561,-5.95923 -1.35963,-1.1 -3.71333,-3.05 -5.23045,-4.33333 -1.51712,-1.28333 -3.43027,-2.33333 -4.25146,-2.33333 -0.82118,0 -4.47937,-1.95 -8.12932,-4.33334 -3.64994,-2.38333 -8.13626,-5.07897 -9.96959,-5.99032 -1.83334,-0.91134 -4.23334,-2.16442 -5.33334,-2.78462 -1.1,-0.6202 -3.8,-2.11117 -6,-3.31327 -2.2,-1.20209 -5.65,-2.8577 -7.66666,-3.67914 l -3.66667,-1.49351 v -4.07622 -4.07622 l 2.43832,2.20665 c 1.34108,1.21366 3.36016,2.20665 4.48686,2.20665 1.12669,0 3.47945,1.0793 5.22834,2.39844 1.7489,1.31914 7.07981,4.34985 11.84648,6.73493 4.76667,2.38507 10.46667,5.50627 12.66667,6.93601 2.2,1.42973 5.50221,3.34901 7.33824,4.26507 1.83603,0.91605 6.20448,3.76555 9.70767,6.33222 3.50319,2.56667 9.80098,7.21991 13.9951,10.34055 4.19411,3.12063 9.97763,7.62063 12.85226,10 2.87463,2.37936 8.27463,7.38747 12,11.12913 3.72537,3.74165 8.71088,9.14165 11.07892,12 2.36804,2.85834 6.11804,7.52949 8.33333,10.38033 2.2153,2.85083 4.02781,5.40083 4.02781,5.66666 0,0.26583 -0.15,0.47015 -0.33333,0.45405 -0.18333,-0.0161 -2.88333,-1.18677 -6,-2.60148 z m -495.00001,0.54384 c 0,-0.43416 3.72329,-5.39221 8.27398,-11.01789 4.55069,-5.62569 10.40069,-12.23384 13,-14.68479 2.59931,-2.45094 6.52602,-6.06151 8.72602,-8.02349 2.2,-1.96197 7,-6.02799 10.66666,-9.0356 3.66667,-3.00761 11.46667,-8.70351 17.33334,-12.65756 5.86666,-3.95405 12.16666,-7.93908 14,-8.85563 1.83333,-0.91654 5.13333,-2.82935 7.33333,-4.25069 2.2,-1.42133 7.9,-4.53566 12.66667,-6.92073 4.76666,-2.38508 10.09758,-5.41579 11.84648,-6.73493 1.74889,-1.31914 4.22543,-2.39844 5.5034,-2.39844 1.27798,0 3.0941,-0.9284 4.03583,-2.06311 l 1.71223,-2.06311 1.09728,1.72978 c 0.6035,0.95138 1.10647,2.47506 1.11769,3.38595 0.0112,0.9109 -2.22958,2.82952 -4.97958,4.26361 -2.75,1.43409 -6.5,3.3029 -8.33333,4.15292 -1.83334,0.85002 -4.23334,2.08575 -5.33334,2.74607 -1.1,0.66032 -3.5,1.94623 -5.33333,2.85757 -1.83333,0.91135 -6.31965,3.60699 -9.96959,5.99032 -3.64995,2.38334 -7.35709,4.33334 -8.2381,4.33334 -0.88101,0 -2.39469,0.75458 -3.36374,1.67685 -0.96905,0.92227 -6.2619,4.65339 -11.7619,8.29137 -5.5,3.63799 -12.7,8.72084 -16,11.29523 -3.3,2.57439 -11.11507,9.79328 -17.36681,16.04196 -6.25175,6.24869 -12.64281,13.01725 -14.20237,15.04124 -1.55956,2.02398 -4.99449,4.58204 -7.63319,5.68456 -2.6387,1.10251 -4.79763,1.64936 -4.79763,1.2152 z M 242.13345,319.5716 c -2.2,-1.08897 -6.1389,-3.94295 -8.75312,-6.34216 l -4.75312,-4.3622 -4.41572,-10.60704 c -2.42865,-5.83387 -4.70397,-12.7561 -5.05628,-15.38275 l -0.64056,-4.77571 4.30301,-8.52421 4.30301,-8.52421 8.83972,-8.43537 c 4.86185,-4.63946 13.15558,-11.35724 18.43051,-14.92839 5.27492,-3.57116 18.64716,-11.08025 29.71608,-16.68687 l 20.1253,-10.19386 11.28392,-0.79632 11.28392,-0.79632 0.20309,9.86471 c 0.11169,5.42559 0.34248,10.46471 0.51286,11.19804 0.17038,0.73334 0.379,5.38334 0.46359,10.33334 l 0.15379,9 h 33.33334 33.33333 l 0.1538,-9 c 0.0846,-4.95 0.2932,-9.6 0.46358,-10.33334 0.17038,-0.73333 0.40117,-5.7679 0.51287,-11.18794 l 0.20309,-9.85461 11.09875,0.69243 11.09875,0.69243 20.31047,10.28765 c 11.17076,5.65821 24.62633,13.2095 29.90125,16.78066 5.27493,3.57115 13.56866,10.28893 18.43051,14.92839 l 8.83972,8.43537 4.30301,8.52421 4.30301,8.52421 -0.64056,4.77571 c -0.35231,2.62665 -2.62763,9.54888 -5.05628,15.38275 l -4.41572,10.60704 -4.75312,4.36904 c -2.61422,2.40297 -6.78944,5.33972 -9.27828,6.5261 l -4.52515,2.15706 -4.87353,-1.46015 c -2.68044,-0.80308 -9.317,-4.82653 -14.74791,-8.94099 -5.43091,-4.11447 -13.8015,-9.44945 -18.60132,-11.85551 l -8.72694,-4.37466 -11.52635,-1.6984 -11.52635,-1.69841 -8.6678,0.69577 c -4.76729,0.38267 -9.27675,1.07213 -10.02104,1.53212 -0.74428,0.45999 -1.7711,5.85277 -2.28183,11.98396 l -0.92859,11.14761 -10.82027,0.74164 c -5.95115,0.4079 -16.02305,0.40457 -22.38199,-0.007 l -11.56172,-0.74905 -0.92797,-11.1402 c -0.51039,-6.12711 -1.53694,-11.51656 -2.28122,-11.97655 -0.74428,-0.45999 -5.25374,-1.14945 -10.02103,-1.53212 l -8.6678,-0.69577 -11.52636,1.69841 -11.52635,1.6984 -8.83139,4.42726 c -4.85727,2.43499 -12.84726,7.50525 -17.75554,11.26724 -4.90827,3.76199 -10.96487,7.69266 -13.45911,8.73481 -2.49424,1.04216 -5.30425,1.88118 -6.24447,1.86448 -0.94022,-0.0167 -3.50949,-0.92134 -5.70949,-2.01032 z m 0.7678,-47.10369 -1.47924,-2.76399 4.08135,-2.11055 c 2.24474,-1.16081 5.13401,-3.8415 6.42058,-5.95711 l 2.33923,-3.84655 1.87148,1.15664 c 1.02931,0.63615 2.35013,0.86082 2.93514,0.49926 0.58502,-0.36156 1.05904,-1.37197 1.05339,-2.24535 -0.006,-0.87339 -2.37452,-2.93798 -5.26415,-4.58798 -2.88964,-1.65 -6.63502,-2.99776 -8.32307,-2.99502 -1.68805,0.003 -4.95732,1.15631 -7.26505,2.56348 l -4.19587,2.55849 -1.57606,4.77549 -1.57605,4.7755 2.90253,4.69639 c 1.59639,2.58302 3.82519,5.61905 4.95288,6.74675 l 2.05035,2.05035 1.2759,-1.27591 1.2759,-1.2759 z m -5.43446,-10.13703 c 0,-1.07143 1.31313,-3.17143 2.91808,-4.66666 1.60494,-1.49524 3.96953,-2.71861 5.25464,-2.71861 1.28511,0 2.70428,0.59497 3.1537,1.32216 0.44943,0.72718 -0.68789,2.82718 -2.52737,4.66667 -1.83948,1.83948 -4.57178,3.3445 -6.07178,3.3445 h -2.72727 z m 249.77995,7.9518 3.77324,-5.9642 -1.58072,-4.78963 -1.58072,-4.78962 -4.19587,-2.55849 c -2.30773,-1.40717 -5.57701,-2.56074 -7.26505,-2.56348 -1.68805,-0.003 -5.43343,1.34502 -8.32307,2.99502 -2.88964,1.65 -5.25851,3.71459 -5.26416,4.58798 -0.006,0.87338 0.46838,1.88379 1.0534,2.24535 0.58501,0.36156 1.90582,0.13689 2.93514,-0.49926 l 1.87148,-1.15664 2.33923,3.84655 c 1.28657,2.11561 4.17583,4.7963 6.42058,5.95711 l 4.08135,2.11055 -1.41738,2.6484 c -0.77956,1.45662 -1.07042,3.2098 -0.64636,3.89595 0.42407,0.68615 1.50332,0.96654 2.39835,0.62308 0.89503,-0.34345 3.32528,-3.30835 5.40056,-6.58867 z m -10.579,-9.34824 c -1.83948,-1.83949 -2.9768,-3.93949 -2.52737,-4.66667 0.44942,-0.72719 1.86859,-1.32216 3.1537,-1.32216 1.28511,0 3.6497,1.22337 5.25464,2.71861 1.60495,1.49523 2.91808,3.59523 2.91808,4.66666 v 1.94806 h -2.72727 c -1.5,0 -4.2323,-1.50502 -6.07178,-3.3445 z M 55.386487,302.43373 c -0.438771,-1.74821 -0.464297,-11.98105 -0.05672,-22.73966 l 0.741042,-19.56111 3.031321,-2.60277 c 1.667227,-1.43153 6.631321,-5.3631 11.031322,-8.73684 4.4,-3.37373 12.2,-8.87009 17.333333,-12.21412 5.133334,-3.34404 14.433335,-8.64561 20.666665,-11.78128 6.23333,-3.13566 13.73333,-6.55347 16.66667,-7.59513 2.93333,-1.04166 9.53333,-3.39637 14.66666,-5.2327 5.13334,-1.83633 13.23334,-4.54426 18,-6.01763 4.76667,-1.47337 13.16667,-3.91355 18.66667,-5.42261 5.5,-1.50907 12.1,-3.15803 14.66667,-3.66437 l 4.66666,-0.9206 5.16665,-4.64673 5.16664,-4.64673 5.3134,5.31339 5.31339,5.3134 -2.17847,13.75434 c -1.19817,7.56489 -2.47418,14.05005 -2.8356,14.41147 -0.36141,0.36141 -1.36712,-0.0529 -2.23489,-0.92066 -0.86778,-0.86778 -4.39458,-1.57778 -7.83734,-1.57778 -3.44275,0 -10.07275,1.14794 -14.73333,2.55097 -4.66058,1.40304 -10.4642,2.95959 -12.89693,3.459 -2.43273,0.49942 -6.03273,1.74778 -8,2.77415 -1.96727,1.02637 -4.49326,1.86982 -5.61331,1.87433 -1.12006,0.005 -8.41711,2.64481 -16.21569,5.86732 -7.79857,3.22251 -17.98216,7.86562 -22.6302,10.31803 -4.64804,2.45241 -10.33234,5.71241 -12.63178,7.24445 -2.29944,1.53204 -9.201761,6.70618 -15.33849,11.49809 -6.13673,4.7919 -14.012457,11.84949 -17.501617,15.68353 -3.48916,3.83404 -8.878937,10.21679 -11.977282,14.18389 -3.098345,3.9671 -6.079826,7.21291 -6.625514,7.21291 -0.545688,0 -1.351155,-1.43035 -1.789926,-3.17855 z m 602.094523,-4.48812 c -3.27286,-4.21667 -8.64247,-10.56521 -11.93246,-14.10788 -3.29,-3.54266 -11.1043,-10.49864 -17.36512,-15.45771 -6.26081,-4.95908 -15.18293,-11.22078 -19.82692,-13.91489 -4.64399,-2.69412 -13.04399,-7.06067 -18.66667,-9.70345 -5.62267,-2.64278 -13.52304,-5.94861 -17.55638,-7.3463 -4.03333,-1.39769 -14.53333,-4.97778 -23.33333,-7.95575 l -16,-5.41451 -8.77271,-0.71265 -8.7727,-0.71265 -2.26864,-11.83445 -2.26864,-11.83445 3.04135,-5.32572 c 1.67273,-2.92914 3.67908,-5.33034 4.45855,-5.33599 0.77946,-0.006 3.05592,1.70018 5.05878,3.79072 l 3.64157,3.80098 7.60789,1.6696 c 4.18433,0.91828 13.00788,3.36835 19.60788,5.44458 6.6,2.07624 18.16449,5.69522 25.69887,8.04218 7.53438,2.34695 13.97775,4.71843 14.31861,5.26995 0.34085,0.55152 2.66607,1.38665 5.16715,1.85586 2.50108,0.4692 5.28117,1.73722 6.17799,2.81781 0.89681,1.0806 2.19426,1.96472 2.88321,1.96472 0.68895,0 4.66549,1.60849 8.83674,3.57442 4.17125,1.96593 10.4341,5.56593 13.91743,8 3.48334,2.43407 9.48334,6.61661 13.33334,9.29454 3.85,2.67793 10,7.29897 13.66666,10.26898 3.66667,2.97001 6.82563,5.48794 7.01992,5.5954 0.19428,0.10745 0.6851,8.71765 1.09069,19.13376 0.4056,10.41612 0.34896,20.70716 -0.12585,22.86898 -0.47482,2.16182 -1.27353,3.93059 -1.77493,3.93059 -0.50139,0 -3.58941,-3.45 -6.86228,-7.66667 z m -421.73052,-57.52704 0.69662,-5.19371 -2.49016,-0.70675 c -1.36959,-0.38871 -4.29016,-1.08111 -6.49016,-1.53867 -2.2,-0.45755 -5.34544,-1.94482 -6.98986,-3.30505 l -2.98985,-2.47313 2.2605,-15.37988 2.2605,-15.37989 -7.16466,-8.23738 -7.16466,-8.23739 3.22735,-2.51524 c 1.77504,-1.38338 5.7296,-3.94421 8.78791,-5.69072 l 5.56056,-3.17549 0.77271,2.84684 c 0.42499,1.56576 2.81939,5.61529 5.32089,8.99897 l 4.54819,6.15213 9.29785,6.1812 c 5.11382,3.39966 9.66963,6.1812 10.12403,6.1812 0.4544,0 6.04383,-4.84578 12.42095,-10.76839 6.37713,-5.92262 16.28436,-14.30211 22.01608,-18.62108 l 10.4213,-7.85269 5.3532,-1.44147 c 2.94426,-0.7928 9.08456,-1.26332 13.6451,-1.04558 l 8.29191,0.39588 0.66666,9.33333 0.66667,9.33333 7.66667,0.39988 7.66667,0.39987 v 5.93346 5.93346 h -13.31972 -13.31971 l -4.86906,7.33333 c -2.67799,4.03334 -5.69211,7.33334 -6.69806,7.33334 -1.00595,0 -10.19884,4.1929 -20.42865,9.31757 -10.22981,5.12466 -22.67181,11.78648 -27.6489,14.80406 -4.97708,3.01757 -11.85688,7.82466 -15.28845,10.68243 -3.43156,2.85777 -6.52447,5.19594 -6.87312,5.19594 -0.34866,0 -0.32044,-2.33717 0.0627,-5.19371 z m 245.04964,0.36659 c -2.93334,-2.59386 -10.13334,-7.61359 -16,-11.15495 -5.86667,-3.54136 -19.30252,-10.70141 -29.85744,-15.91122 l -19.19077,-9.47237 -3.08123,-6.65051 -3.08122,-6.6505 h -13.28562 c -7.3071,0 -14.2347,-0.36419 -15.39468,-0.80932 l -2.10905,-0.80932 v -5.12414 -5.12414 l 7.66667,-0.39987 7.66667,-0.39988 0.66666,-9.33333 0.66667,-9.33333 8.2919,-0.39588 c 4.56055,-0.21774 10.70085,0.25278 13.64511,1.04558 l 5.3532,1.44147 10.4213,7.85269 c 5.73172,4.31897 15.63895,12.69846 22.01608,18.62108 6.37712,5.92261 11.96655,10.76839 12.42095,10.76839 0.45439,0 5.01021,-2.78154 10.12403,-6.1812 l 9.29785,-6.1812 4.54819,-6.15213 c 2.5015,-3.38368 4.907,-7.47741 5.34554,-9.0972 l 0.79736,-2.94506 3.53592,2.15859 c 1.94475,1.18723 5.78591,3.64411 8.53591,5.45973 2.75,1.81563 5,3.77654 5,4.35758 0,0.58104 -2.20962,4.76573 -4.91026,9.29931 l -4.91026,8.24288 2.69249,13.85268 2.69248,13.85269 h -1.32304 c -0.72767,0 -3.24767,1.46798 -5.59999,3.26219 -2.35233,1.79421 -6.00896,3.64997 -8.12586,4.12393 -2.11689,0.47395 -4.96573,1.16761 -6.33074,1.54146 l -2.48184,0.67972 0.83093,5.19635 c 0.45701,2.85799 0.37384,5.17137 -0.18482,5.14085 -0.55867,-0.0305 -3.41576,-2.17776 -6.34909,-4.77162 z M 349.46679,204.94561 v -26 h 12 12 v 26 26 h -12 -12 z M 239.03067,181.84283 c -2.80653,-2.80654 -6.40653,-7.79597 -8,-11.08764 l -2.89722,-5.98484 v -6.37753 c 0,-3.50764 0.92445,-8.26821 2.05434,-10.57904 1.12988,-2.31082 4.61619,-7.1096 7.74734,-10.66393 l 5.693,-6.46244 -0.54953,4.70706 -0.54952,4.70705 3.62711,4.75538 c 1.9949,2.61546 4.50356,4.75538 5.57479,4.75538 h 1.94769 l -0.8532,-3.88457 -0.85319,-3.88458 2.71019,-0.86018 c 1.49061,-0.4731 4.8096,-3.31285 7.37552,-6.31056 l 4.66532,-5.45038 1.98,1.64326 c 1.089,0.90378 2.60628,1.25618 3.37174,0.78311 0.76545,-0.47308 1.38653,-1.27474 1.38017,-1.78146 -0.006,-0.50672 -2.14415,-3.17131 -4.75064,-5.92131 l -4.73907,-5 -3.5827,-0.0498 -3.58269,-0.0498 8,-7.42369 c 4.4,-4.08304 11.9,-10.35554 16.66667,-13.938896 4.76666,-3.583355 13.1073,-8.717065 18.53474,-11.408244 l 9.86807,-4.893054 6.13193,-0.56864 c 3.37256,-0.312752 7.76206,0.06163 9.75446,0.831962 l 3.62253,1.400602 0.37747,15.04978 0.37746,15.04978 h 31.33334 31.33333 l 0.37747,-15.04978 0.37747,-15.04978 3.62253,-1.400602 c 1.99239,-0.770331 6.3819,-1.144714 9.75446,-0.831962 l 6.13193,0.56864 9.86807,4.893054 c 5.42744,2.691179 13.76807,7.824889 18.53474,11.408244 4.76667,3.583356 12.26667,9.855856 16.66667,13.938896 l 8,7.42369 -3.5827,0.0498 -3.58269,0.0498 -4.73908,5 c -2.60649,2.75 -4.74427,5.41459 -4.75063,5.92131 -0.006,0.50672 0.61471,1.30838 1.38017,1.78146 0.76546,0.47307 2.28274,0.12067 3.37174,-0.78311 l 1.98,-1.64326 4.66532,5.45038 c 2.56592,2.99771 5.8849,5.83746 7.37551,6.31056 l 2.7102,0.86018 -0.85319,3.88458 -0.8532,3.88457 h 1.94769 c 1.07123,0 3.57989,-2.13992 5.57479,-4.75538 l 3.62711,-4.75538 -0.54953,-4.70705 -0.54952,-4.70706 5.693,6.46244 c 3.13115,3.55433 6.61745,8.35311 7.74734,10.66393 1.12988,2.31083 2.05434,7.0714 2.05434,10.57904 v 6.37753 l -2.89722,5.98484 c -1.59347,3.29167 -5.19347,8.2811 -8,11.08764 l -5.10278,5.10278 -4.33334,-0.0315 -4.33333,-0.0315 -3.98062,-5.37917 c -2.18934,-2.95854 -6.38934,-7.59802 -9.33333,-10.30995 -2.944,-2.71193 -8.35272,-7.38678 -12.01939,-10.38856 -3.66666,-3.00177 -9.15278,-7.08557 -12.19136,-9.0751 -3.03859,-1.98953 -8.43859,-4.34027 -12,-5.22387 l -6.4753,-1.60655 -16.41878,0.47006 -16.41878,0.47007 -0.48169,1.55305 c -0.26493,0.85418 -0.86324,4.40305 -1.32958,7.88638 l -0.8479,6.33334 h -17.16994 -17.16994 l -0.8479,-6.33334 c -0.46634,-3.48333 -1.06465,-7.0322 -1.32958,-7.88638 l -0.48169,-1.55305 -16.41878,-0.47007 -16.41878,-0.47006 -6.4753,1.60655 c -3.56141,0.8836 -8.96141,3.23434 -12,5.22387 -3.03858,1.98953 -8.5247,6.07333 -12.19137,9.0751 -3.66666,3.00178 -9.07538,7.67663 -12.01938,10.38856 -2.94399,2.71193 -7.14399,7.35141 -9.33333,10.30995 l -3.98062,5.37917 -4.33333,0.0315 -4.33334,0.0315 z m 9.10278,-46.63566 c 0,-1.32281 1.97857,-4.32281 4.39681,-6.66667 2.41825,-2.34386 5.41825,-4.26156 6.66667,-4.26156 h 2.26986 v 2.52855 c 0,1.3907 -2.12088,4.3907 -4.71307,6.66666 -2.59218,2.27597 -5.59218,4.13813 -6.66666,4.13813 h -1.95361 z m 218.0464,-1.73302 c -2.59218,-2.27596 -4.71306,-5.27596 -4.71306,-6.66666 v -2.52855 h 2.40511 c 1.32281,0 4.32281,1.97857 6.66667,4.39681 2.34386,2.41825 4.26156,5.41825 4.26156,6.66667 0,1.24842 -0.87913,2.26986 -1.95361,2.26986 -1.07448,0 -4.07448,-1.86216 -6.66667,-4.13813 z M 335.4634,108.49778 c -0.3648,-0.36481 -0.66328,-3.79948 -0.66328,-7.63262 v -6.969335 l 5.44865,1.383014 c 2.99676,0.760658 5.76095,2.19686 6.14265,3.19156 l 0.69401,1.808541 h 14.38136 14.38136 l 0.69401,-1.808541 c 0.3817,-0.9947 3.17415,-2.438073 6.20543,-3.207496 l 5.51143,-1.39895 -0.39611,7.540827 -0.39612,7.54083 -25.67006,0.10772 c -14.11853,0.0592 -25.96853,-0.19075 -26.33333,-0.55555 z"
       id="path27" /></g></svg>
