<?xml version="1.0" encoding="UTF-8" standalone="no"?>
<!-- Created with Inkscape (http://www.inkscape.org/) -->

<svg
   version="1.1"
   id="svg1"
   width="690.49921"
   height="721.98383"
   viewBox="0 0 690.49921 721.98383"
   sodipodi:docname="mantis_blades_icon.svg"
   inkscape:export-filename="..\..\..\Foundry VTT\Foundry Data\Data\Cyberpunk\Custom SVGs\Inkscape\gorilla_arms_icon.svg"
   inkscape:export-xdpi="96"
   inkscape:export-ydpi="96"
   xml:space="preserve"
   xmlns:inkscape="http://www.inkscape.org/namespaces/inkscape"
   xmlns:sodipodi="http://sodipodi.sourceforge.net/DTD/sodipodi-0.dtd"
   xmlns="http://www.w3.org/2000/svg"
   xmlns:svg="http://www.w3.org/2000/svg"><defs
     id="defs1"><filter
       style="color-interpolation-filters:sRGB"
       inkscape:label="Drop Shadow"
       id="filter25"
       x="-0.058205414"
       y="-0.055385995"
       width="1.1164108"
       height="1.110772"><feFlood
         result="flood"
         in="SourceGraphic"
         flood-opacity="1.000000"
         flood-color="rgb(58,63,94)"
         id="feFlood23" /><feGaussianBlur
         result="blur"
         in="SourceGraphic"
         stdDeviation="15.000000"
         id="feGaussianBlur23" /><feOffset
         result="offset"
         in="blur"
         dx="0.000000"
         dy="0.000000"
         id="feOffset23" /><feComposite
         result="comp1"
         operator="out"
         in="flood"
         in2="offset"
         id="feComposite24" /><feComposite
         result="comp2"
         operator="atop"
         in="comp1"
         in2="SourceGraphic"
         id="feComposite25" /></filter></defs><sodipodi:namedview
     id="namedview1"
     pagecolor="#1b1f21"
     bordercolor="#eeeeee"
     borderopacity="1"
     inkscape:showpageshadow="0"
     inkscape:pageopacity="0"
     inkscape:pagecheckerboard="0"
     inkscape:deskcolor="#505050"
     showgrid="false"
     inkscape:export-bgcolor="#1b1f21ff" /><g
     inkscape:groupmode="layer"
     inkscape:label="Image"
     id="g1"
     transform="translate(-37.495132,11.002561)"><g
       inkscape:groupmode="layer"
       id="layer2"
       inkscape:label="Image 1"
       transform="translate(18.914167,3.468146)"><rect
         style="fill:#1b1f21;fill-opacity:1"
         id="rect38"
         width="787.67389"
         height="767.29266"
         x="-33.569054"
         y="-32.370159" /></g><path
       style="fill:#e64539;fill-opacity:1;filter:url(#filter25)"
       d="m 209.93994,653.29676 c 12.36395,-11.92646 33.81212,-30.83749 47.6626,-42.0245 l 25.18268,-20.34002 24.08434,-15.414 24.08435,-15.414 1.85589,0.71217 c 1.02073,0.3917 1.85588,1.424 1.85588,2.294 v 1.58183 l 2.68064,-2.42594 2.68064,-2.42594 3.44179,3.21929 c 1.89299,1.77061 3.95131,4.16373 4.57406,5.31805 l 1.13227,2.09875 -15.6219,22.75859 -15.6219,22.75859 -23.29946,18.2171 c -12.81471,10.01941 -23.47893,19.00811 -23.69826,19.97489 -0.21934,0.96678 0.45786,2.08651 1.50489,2.48829 1.04702,0.40178 4.20963,0.21044 7.02802,-0.42521 2.81839,-0.63565 5.33716,-0.94292 5.59726,-0.68282 0.26011,0.26011 -1.00308,4.57695 -2.80707,9.59299 l -3.27999,9.12007 -45.75832,0.35116 -45.75833,0.35115 z m 75.39241,19.80079 c 0,-1.01644 2.43177,-5.48967 5.40394,-9.94053 2.97216,-4.45085 9.60623,-11.98314 14.74236,-16.73841 l 9.33843,-8.64595 26.25764,-13.41154 c 14.44169,-7.37634 32.68993,-17.46243 40.55163,-22.41352 7.8617,-4.95109 19.47668,-13.13762 25.81107,-18.19229 6.33439,-5.05466 14.60209,-12.98561 18.37267,-17.62433 l 6.8556,-8.43404 1.78296,2.291 1.78297,2.291 -0.75148,7.56099 c -0.41331,4.15854 -1.73628,10.02225 -2.93992,13.03045 l -2.18845,5.46947 -5.33272,4.56461 c -2.933,2.51054 -7.21237,4.94695 -9.50971,5.41425 -2.29735,0.4673 -6.57699,2.51317 -9.51032,4.54638 l -5.33334,3.69674 -8.47426,0.7449 -8.47426,0.7449 -8.1924,4.09755 c -4.50583,2.25365 -12.18462,7.35761 -17.06399,11.34214 l -8.87158,7.24459 -9.41115,3.95415 c -5.17613,2.17478 -12.35435,6.11465 -15.95159,8.75527 -3.59724,2.64061 -10.39854,8.89091 -15.114,13.88955 -4.71547,4.99864 -9.36783,11.00595 -10.3386,13.34958 l -1.76502,4.26115 h -5.83824 -5.83824 z m 17.33333,0.71478 c 0,-0.62331 1.71115,-3.47331 3.80254,-6.33333 2.0914,-2.86003 7.12479,-8.32103 11.18532,-12.13555 4.06052,-3.81452 10.26685,-8.76452 13.79183,-11 3.52498,-2.23548 7.09598,-4.06451 7.93554,-4.06451 0.83956,0 -3.58545,7.8 -9.83336,17.33334 l -11.35984,17.33333 h -7.76101 c -4.26856,0 -7.76102,-0.50998 -7.76102,-1.13328 z m 31.26375,-14.20005 c 1.34368,-2.2 5.02266,-7.65657 8.17552,-12.1257 3.15286,-4.46914 9.21883,-11.3217 13.47994,-15.22793 4.2611,-3.90622 11.14873,-9.30804 15.30583,-12.00403 4.1571,-2.69599 10.32431,-5.67622 13.7049,-6.62273 3.3806,-0.9465 6.44468,-1.42277 6.80908,-1.05837 0.36441,0.3644 -4.9028,4.9452 -11.7049,10.17955 -6.8021,5.23435 -15.36745,11.98442 -19.03412,15.00016 -3.66666,3.01573 -9.96666,8.4954 -14,12.17703 -4.03333,3.68164 -9.09867,8.26621 -11.25631,10.18795 l -3.92298,3.49407 z m -42.6306,-10.05424 -0.85757,-1.38757 -2.55445,0.81075 c -1.40496,0.44592 -2.55446,0.51209 -2.55446,0.14706 0,-0.36504 8.18849,-7.01805 18.19664,-14.78446 l 18.19664,-14.12075 9.01675,-13.01582 9.01674,-13.01582 12.45328,-6.22381 12.45328,-6.2238 14.25293,-11.12039 c 7.83911,-6.11622 19.98748,-16.04581 26.99638,-22.06577 7.00891,-6.01996 13.20491,-10.94538 13.7689,-10.94538 0.564,0 3.03502,3.35978 5.49116,7.46618 l 4.46572,7.46618 -1.82088,3.42868 c -1.00148,1.88578 -5.72087,7.43554 -10.48754,12.33282 -4.76666,4.89727 -13.72756,12.63829 -19.91311,17.20226 -6.18554,4.56396 -17.58616,12.06131 -25.33471,16.66076 -7.74855,4.59946 -24.36012,13.5516 -36.91461,19.89366 l -22.82635,11.53101 -9.37077,8.67589 c -5.15392,4.77174 -9.69603,8.67589 -10.09358,8.67589 -0.39756,0 -1.10873,-0.62441 -1.58039,-1.38757 z m 93.43352,-23.76187 c 0.69667,-0.63219 7.03615,-5.44477 14.08774,-10.69463 l 12.82107,-9.5452 13.8456,-4.71465 c 7.61507,-2.59305 18.25502,-5.83883 23.64431,-7.21284 5.3893,-1.37401 10.6393,-2.17564 11.66667,-1.7814 l 1.86795,0.7168 -0.0204,4.19068 c -0.0112,2.30487 -0.46707,4.89284 -1.01298,5.75103 -0.54591,0.85819 -17.99265,6.70819 -38.77054,13 -20.77788,6.29181 -38.14204,11.43965 -38.58702,11.43965 -0.44497,0 -0.23905,-0.51725 0.45762,-1.14944 z m 52.05053,-41.18389 3.15284,-7.66667 0.0317,-6.44444 0.0316,-6.44445 1.43333,0.47778 c 0.78834,0.26278 1.38834,0.91278 1.33334,1.44444 -0.055,0.53167 -0.1,5.19394 -0.1,10.36061 v 9.39394 l -3.27273,3.27273 c -1.8,1.8 -3.83302,3.27272 -4.51782,3.27272 -0.68481,0 0.17368,-3.45 1.90774,-7.66666 z m -357.702476,-0.40945 -5.585272,-3.95722 3.320527,-7.25298 c 1.82629,-3.98915 5.539663,-11.71763 8.251939,-17.1744 l 4.931412,-9.92142 25.91813,-27.80893 c 14.25497,-15.29492 35.14834,-37.10894 46.42971,-48.4756 l 20.51158,-20.66667 -11.34467,16.66667 c -6.23956,9.16666 -17.13595,25.1642 -24.2142,35.55009 l -12.86953,18.88342 -6.3393,28.37367 -6.3393,28.37367 -17.17045,5.74291 c -9.443748,3.1586 -17.788042,5.71615 -18.542877,5.68345 -0.754835,-0.0327 -3.885799,-1.84019 -6.957699,-4.01666 z m 15.585272,-12.59055 c 0,-1.1 -0.9,-2 -2,-2 -1.1,0 -2,0.9 -2,2 0,1.1 0.9,2 2,2 1.1,0 2,-0.9 2,-2 z m 22.666664,-38.66667 c 0,-1.1 -0.9,-2 -2,-2 -1.1,0 -2,0.9 -2,2 0,1.1 0.9,2 2,2 1.1,0 2,-0.9 2,-2 z m 24.24784,52.00393 c -2.17623,-1.83117 -4.34886,-4.89158 -4.82807,-6.80091 -0.47921,-1.90933 -0.21439,-5.46196 0.5885,-7.89472 0.80288,-2.43277 2.90837,-5.37236 4.67885,-6.53242 l 3.21906,-2.10921 h 5.48281 5.48281 l 3.89744,3.89743 3.89743,3.89744 v 5.18106 c 0,2.84958 -0.75,6.10795 -1.66667,7.24082 -0.91666,1.13288 -3.15017,3.04755 -4.96334,4.25484 -1.81317,1.20729 -5.21713,2.19507 -7.56436,2.19507 h -4.26769 z m 13.39841,-6.51697 c 0.53877,-0.81783 0.98877,-1.93696 1,-2.48696 0.0112,-0.55 -1.22356,-2.24398 -2.74398,-3.7644 l -2.7644,-2.7644 -2.90227,1.92371 c -1.59624,1.05804 -3.08223,2.82919 -3.30219,3.93589 -0.21997,1.10671 0.59326,3.00539 1.80716,4.21929 l 2.20709,2.20709 2.85951,-0.89163 c 1.57272,-0.4904 3.30031,-1.56076 3.83908,-2.37859 z m 191.68709,5.96377 c 0,-0.69347 1.95961,-3.33864 4.35467,-5.87815 l 4.35467,-4.6173 7.20542,-2.13978 c 3.96298,-1.17687 7.45918,-1.886 7.76935,-1.57584 0.31016,0.31017 -2.04188,2.46388 -5.22675,4.78604 -3.18488,2.32216 -8.64069,5.67646 -12.12402,7.454 -3.48334,1.77754 -6.33334,2.6645 -6.33334,1.97103 z m -175.86939,-5.62096 c -0.7118,-1.73971 -1.65096,-5.36727 -2.08704,-8.06125 l -0.79286,-4.89815 -4.41958,-3.76852 c -2.43077,-2.07268 -5.46937,-4.37536 -6.75245,-5.11707 l -2.33286,-1.34855 14.14332,-11.98478 14.14332,-11.98478 18.3171,-3.02211 18.31711,-3.02211 24.36251,0.0713 24.36252,0.0713 42.30415,-8.09272 42.30415,-8.09271 12,-5.15801 12,-5.158 9.59245,-0.0581 c 5.27584,-0.032 12.77584,-1.00984 16.66666,-2.17302 l 7.07423,-2.11487 6.66667,0.77329 c 3.66666,0.42531 15.00743,-0.12643 25.2017,-1.2261 l 18.53503,-1.99939 4.46497,-4.32761 4.46496,-4.32762 v 4.72527 4.72526 l -7.87811,7.51444 -7.87811,7.51445 -22.20309,10.96915 -22.20309,10.96915 -1.03218,-1.67011 -1.03219,-1.6701 -5.74727,1.29132 c -3.161,0.71023 -6.21234,2.04383 -6.78075,2.96354 l -1.03348,1.67221 -41.10587,6.84243 -41.10586,6.84243 32.64688,0.76482 32.64688,0.76482 14.68646,-5.20186 c 8.07754,-2.86102 16.18645,-5.91432 18.01978,-6.78511 1.83334,-0.87079 3.87604,-1.85425 4.53935,-2.18547 0.6633,-0.33122 0.79248,0.0669 0.28705,0.8847 -0.50543,0.8178 -8.09223,7.49759 -16.85955,14.84398 -8.76733,7.34638 -17.2965,13.62475 -18.95372,13.95193 -1.65722,0.32717 -7.4601,1.60334 -12.89528,2.83593 l -9.88216,2.24107 -4.33284,-5.14057 -4.33284,-5.14057 4.21499,-1.56522 4.215,-1.56523 -9.33333,-0.14747 c -5.13334,-0.0811 -18.10823,-0.41888 -28.83311,-0.75061 l -19.49977,-0.60314 -5.45077,-3.0961 -5.45077,-3.09609 -36.38279,5.69394 c -20.01054,3.13168 -38.29259,6.03669 -40.62677,6.45559 l -4.24398,0.76164 -0.42269,2.10097 -0.42269,2.10097 -9.2868,2.89513 -9.28681,2.89512 -0.89197,4.36125 c -0.49058,2.39868 -1.13404,4.60332 -1.42992,4.89919 -0.29587,0.29588 -3.04484,0.93882 -6.10883,1.42878 l -5.57088,0.89082 z m -41.35763,-0.3558 -1.89369,-2.29428 6.09216,-27.06604 6.09216,-27.06604 31.86854,-46.5238 31.86854,-46.52381 20.59965,-18.49984 c 11.32982,-10.17492 24.66507,-22.02492 29.6339,-26.33334 l 9.03423,-7.83349 h 3.22274 3.22273 l 26.4097,-23.39169 26.4097,-23.39169 0.44227,4.38634 c 0.24325,2.41249 1.06672,5.13875 1.82993,6.05836 0.7632,0.91961 2.51418,1.67202 3.89106,1.67202 1.37687,0 2.5034,0.26094 2.5034,0.57986 0,0.31893 -0.5809,2.10775 -1.29088,3.97516 l -1.29089,3.39529 -3.93783,-0.78757 -3.93783,-0.78756 -5.72055,5.33606 -5.72054,5.33607 -0.0507,5.88177 -0.0507,5.88177 -8.50155,7.59457 -8.50155,7.59458 -6.16512,0.0439 -6.16511,0.0439 -24.15603,21.22832 -24.15603,21.22832 -5.76889,12.13929 -5.76889,12.13929 -5.07892,4.58851 -5.07893,4.5885 h -5.23609 -5.2361 l -5.57259,10.09504 -5.57259,10.09504 -2.93532,1.33743 -2.93533,1.33742 -8.77876,16.90087 -8.77876,16.90086 -3.61329,12.66667 c -1.9873,6.96667 -4.47862,14.03873 -5.53625,15.71571 -1.05763,1.67697 -5.61747,5.76877 -10.13297,9.09289 -4.51549,3.32412 -9.1313,7.35205 -10.25734,8.95096 -1.12604,1.59891 -2.35325,5.85497 -2.72714,9.4579 l -0.67979,6.5508 z m 314.83664,-19.01806 -4.39038,-1.84345 -8.71236,-13.42571 c -4.79179,-7.38414 -8.51612,-13.61283 -8.27628,-13.84152 0.23984,-0.2287 8.68399,-4.72557 18.76479,-9.99304 l 18.32871,-9.57724 14.66235,-15.55414 14.66235,-15.55414 -0.0255,-3.33334 c -0.014,-1.83333 -1.38057,-7.30871 -3.03678,-12.16751 l -3.0113,-8.83419 11.57868,-7.47179 11.57869,-7.47178 7.80036,-0.82018 c 4.29021,-0.45109 12.10866,-2.56341 17.37435,-4.69403 5.26569,-2.13061 11.59822,-3.87385 14.07229,-3.87385 h 4.49832 l 6.30734,-4 6.30735,-4 4.28703,0.0204 c 2.35786,0.0112 5.10907,0.54116 6.11379,1.17763 l 1.82676,1.15722 -7.71963,2.88829 c -4.2458,1.58855 -11.95936,3.78013 -17.14125,4.87018 -5.18189,1.09004 -10.00009,2.56038 -10.70713,3.26741 l -1.28551,1.28552 1.42393,1.42393 1.42393,1.42393 8.5094,-1.53294 c 4.68017,-0.84312 12.1094,-2.72933 16.5094,-4.19157 4.4,-1.46224 11.10768,-4.78376 14.90596,-7.38117 l 6.90596,-4.72256 4.42737,0.73061 c 2.43506,0.40183 14.62738,2.64142 27.09405,4.97687 12.46666,2.33544 25.66667,4.39763 29.33333,4.58263 3.66667,0.185 7.64388,0.416 8.83824,0.51332 1.19437,0.0973 2.89432,1.92182 3.77768,4.05443 l 1.60611,3.87749 -2.34244,3.575 -2.34243,3.57501 -6.78407,3.00024 c -3.73124,1.65013 -9.7771,3.38317 -13.43524,3.85121 l -6.65118,0.85098 -8,-4.39618 c -4.4,-2.4179 -11.09893,-6.3625 -14.88651,-8.76579 l -6.88652,-4.36961 -4.44682,-0.11979 c -2.44575,-0.0659 -10.14682,1.48785 -17.11349,3.45273 -6.96666,1.96489 -18.06666,4.32673 -24.66666,5.24854 l -12,1.67602 v 2 2 l 10,-0.36547 c 5.5,-0.20102 13.76362,-1.28244 18.36359,-2.40316 4.59998,-1.12073 10.82542,-2.90626 13.83431,-3.96786 3.00888,-1.0616 7.65327,-1.93018 10.32086,-1.93018 h 4.85017 l 6.64887,4.43202 c 3.65687,2.43762 12.64886,7.48668 19.9822,11.22015 7.33333,3.73347 15.73333,7.43705 18.66667,8.23018 2.93333,0.79312 6.16243,1.97835 7.17577,2.63384 l 1.84245,1.1918 -0.90224,4.80936 -0.90224,4.80935 -3.61581,1.86981 -3.6158,1.8698 -3.99107,-3.1932 c -2.19509,-1.75625 -4.67943,-3.19617 -5.52077,-3.19982 -0.84133,-0.004 -5.64133,-2.03605 -10.66666,-4.51647 -5.02534,-2.48041 -15.04045,-7.28041 -22.25581,-10.66666 -7.21536,-3.38625 -14.41536,-6.153 -16,-6.14832 -1.58464,0.005 -9.78116,1.82241 -18.21449,4.03941 -8.43334,2.217 -17.58334,4.6363 -20.33334,5.37622 l -5,1.34532 v 1.86992 c 0,1.02845 0.50128,2.17972 1.11395,2.55838 0.61268,0.37865 10.31196,-1.73826 21.55396,-4.70424 l 20.44,-5.3927 12.11271,5.52964 c 6.662,3.0413 15.71272,7.27892 20.11272,9.41692 4.4,2.13801 10.85,5.06825 14.33333,6.51165 l 6.33334,2.62436 v 4.04424 4.04424 l -3.3847,2.21774 -3.3847,2.21774 -10.28197,-0.77158 c -5.65508,-0.42437 -13.28197,-1.6301 -16.94864,-2.6794 -3.66666,-1.0493 -9.51666,-3.01566 -13,-4.36969 l -6.33333,-2.46187 -6.33333,2.45576 c -3.48334,1.35067 -9.63334,3.70871 -13.66667,5.24009 -4.03333,1.53138 -9.11199,4.42778 -11.2859,6.43644 -2.17391,2.00867 -10.27391,7.34994 -18,11.86949 -7.72609,4.51956 -18.23815,10.99748 -23.36013,14.3954 -5.12198,3.39791 -10.25303,7.07802 -11.40234,8.17802 -1.1493,1.1 -5.65859,4.72567 -10.02064,8.05706 -4.36205,3.33138 -10.33099,7.06311 -13.26433,8.29273 -2.93333,1.22963 -8.93333,3.09052 -13.33333,4.13533 -4.4,1.0448 -10.1,2.18042 -12.66667,2.5236 l -4.66666,0.62396 z M 166.92639,529.29736 c 1.50277,-5.3268 6.04041,-15.98508 10.08364,-23.68508 4.04323,-7.7 9.07539,-15.5 11.18257,-17.33334 2.10719,-1.83333 6.08845,-7.23333 8.84725,-12 l 5.01601,-8.66666 4.93306,-0.66667 4.93305,-0.66667 5.84488,-4.9045 5.84488,-4.90449 5.86031,-12.3459 5.86031,-12.3459 23.27696,-20.41627 23.27697,-20.41627 h 6.1036 6.10359 l 10.23423,-9 10.23423,-9 0.0519,-6.10091 0.0519,-6.10092 3,-2.81038 3,-2.81038 5.88032,-0.42204 5.88033,-0.42204 2.47696,-7.30933 c 1.36233,-4.02013 2.20162,-8.02686 1.86509,-8.90384 -0.33653,-0.87697 -2.28035,-1.78777 -4.3196,-2.024 l -3.70772,-0.42949 0.40066,-6.40351 0.40067,-6.40351 -1.48567,-1.79011 -1.48566,-1.79012 24.38065,-21.86317 c 13.40935,-12.02474 30.68064,-27.29864 38.38064,-33.942 7.7,-6.64336 71.9,-59.42379 142.66667,-117.28986 C 602.76569,88.263941 664.56569,37.883848 669.33236,34.174243 l 8.66667,-6.744737 6.6647,-1.466134 c 3.66558,-0.806374 6.94757,-1.183266 7.2933,-0.837538 0.34572,0.345727 -1.75339,5.145062 -4.66471,10.665188 l -5.29329,10.036592 -47.23089,40.892332 c -25.97698,22.490784 -52.67698,45.613004 -59.33333,51.382714 -6.65635,5.76972 -16.00245,13.90482 -20.76912,18.07802 -4.76667,4.1732 -28.63351,24.80252 -53.03742,45.84295 -24.40392,21.04042 -44.93576,38.25531 -45.62632,38.25531 -0.69057,0 -2.10195,2.85 -3.13642,6.33334 l -1.88085,6.33333 -2.70848,-0.29676 -2.70848,-0.29676 -1.44136,4.1347 -1.44137,4.1347 -1.88618,-1.5654 -1.88619,-1.5654 -1.54959,4.6953 -1.54959,4.6953 -2.90721,-0.30117 -2.90721,-0.30118 -0.4219,3.66667 c -0.23204,2.01667 -0.94663,3.66667 -1.58797,3.66667 -0.64135,0 -1.54295,-0.60979 -2.00357,-1.35508 -0.46062,-0.7453 -1.31853,-1.05779 -1.90648,-0.69442 -0.58794,0.36337 -1.43437,2.48763 -1.88096,4.72057 l -0.81198,4.0599 -3.30221,-0.8288 -3.30221,-0.8288 -0.8892,3.54284 -0.8892,3.54284 -1.95045,-0.74846 -1.95046,-0.74846 -1.4868,3.93898 -1.48681,3.93899 -2.72725,-0.27005 -2.72726,-0.27005 -0.43798,3.058 -0.43798,3.05801 -2.41157,-0.7654 -2.41156,-0.7654 -0.84684,3.37406 -0.84683,3.37406 h -2.67427 -2.67426 l -1.27903,3.36409 -1.27902,3.36408 -3.2151,-0.80694 -3.21509,-0.80694 -1.50226,4.55191 -1.50227,4.55191 -13.66587,13.22428 c -7.51624,7.27335 -25.59766,24.62428 -40.18094,38.55761 l -26.51506,25.33333 -2.95577,-0.22811 -2.95577,-0.22812 -1.17988,5.56145 -1.17988,5.56145 h -3.3207 -3.3207 l -0.41781,4.33333 c -0.2298,2.38334 -0.8598,4.33334 -1.4,4.33334 -0.5402,0 -1.63743,-0.65524 -2.43827,-1.45609 l -1.45609,-1.45608 -1.61968,4.90768 -1.61968,4.90768 -2.40511,-0.62895 -2.40511,-0.62895 -0.87119,4.64386 -0.87119,4.64387 -2.46627,-0.64495 -2.46626,-0.64494 -0.76346,2.8451 c -0.41991,1.56481 -0.77166,4.1951 -0.78167,5.8451 -0.01,1.65 -0.49821,3 -1.08488,3 -0.58666,0 -1.77916,-0.7125 -2.65,-1.58333 l -1.58333,-1.58334 -0.85,4.25 c -0.4675,2.3375 -1.33959,4.25 -1.93798,4.25 -0.59838,0 -1.49838,-0.66405 -2,-1.47568 l -0.91202,-1.47568 -1.14625,1.80901 c -0.63044,0.99496 -1.15544,3.42361 -1.16667,5.397 -0.0112,1.97339 -0.57895,3.93317 -1.26162,4.35508 -0.68266,0.42191 -1.65766,0.0933 -2.16666,-0.73033 l -0.92547,-1.49743 -1.14625,1.80902 c -0.63043,0.99496 -1.15543,3.15901 -1.16666,4.80901 -0.0112,1.65 -0.50042,3 -1.08709,3 -0.58666,0 -1.70562,-0.63896 -2.48658,-1.41991 l -1.41991,-1.41991 -1.53262,6.08658 c -0.84294,3.34762 -1.90783,6.08658 -2.36643,6.08658 -0.45859,0 -1.55712,-0.98919 -2.44116,-2.19819 l -1.60736,-2.19818 -0.83774,4.1887 -0.83774,4.18871 -2.85167,-0.32385 -2.85167,-0.32386 -2.77488,7.20904 -2.77488,7.20904 -17.40868,13.8879 -17.40868,13.88789 0.42753,2.2364 c 0.23514,1.23002 0.73347,3.75172 1.10741,5.60378 l 0.67988,3.36739 -6.44074,5.385 c -3.54241,2.96174 -7.14686,5.80471 -8.00988,6.31769 l -1.56914,0.9327 z m 194.17039,-216.1289 0.4311,-2.22285 h -2.76443 -2.76443 v 1.77778 c 0,0.97778 0.4125,2.19028 0.91666,2.69444 0.50417,0.50417 1.55417,0.70445 2.33334,0.44507 0.77916,-0.25938 1.61066,-1.47188 1.84776,-2.69444 z m 96.90224,-87.57444 c 0,-1.08996 -0.89178,-1.98174 -1.98174,-1.98174 -1.08996,0 -2.19445,1.10449 -2.45442,2.45442 l -0.47268,2.45441 2.45442,-0.47267 c 1.34993,-0.25998 2.45442,-1.36447 2.45442,-2.45442 z m 67.33334,303.30543 c 0,-0.1951 6.80113,-4.3041 15.11362,-9.13111 8.3125,-4.82701 16.67326,-10.22179 18.57946,-11.9884 l 3.46584,-3.21202 0.66873,1.74269 c 0.3678,0.95848 0.22503,3.44347 -0.31728,5.52218 l -0.98602,3.77949 -6.41286,4.33333 c -3.52708,2.38333 -7.70804,4.33333 -9.29104,4.33333 -1.58299,0 -6.91518,1.11944 -11.84931,2.48763 -4.93413,1.36819 -8.97114,2.32799 -8.97114,2.13288 z M 227.91329,518.15187 c -0.67748,-0.80323 -1.61128,-3.35796 -2.07513,-5.67719 l -0.84336,-4.21679 4.0352,-1.40667 c 2.21936,-0.77367 4.31594,-2.48026 4.65908,-3.79242 l 0.62389,-2.38575 12.50969,-1.56579 c 6.88033,-0.86118 35.55835,-4.61527 63.72895,-8.34241 l 51.21926,-6.77662 4.80634,1.44001 c 2.64349,0.79201 5.99482,2.32075 7.44741,3.3972 l 2.64106,1.95719 -2,1.98969 c -1.1,1.09433 -6.8,4.07557 -12.66666,6.62498 l -10.66667,4.63529 -42.65442,8.20572 -42.65443,8.20573 -18.43922,-0.41588 -18.43922,-0.41588 z m 182.7524,-29.33096 c -4.76667,-1.03914 -10.76667,-2.33854 -13.33334,-2.88757 l -4.66667,-0.99823 0.0973,-3.99475 0.0973,-3.99475 -2.4306,-1.74227 c -1.33683,-0.95825 -2.4306,-2.81724 -2.4306,-4.13108 v -2.38881 l 5,-1.92227 5,-1.92227 22.66667,1.56945 c 12.46666,0.8632 25.96666,2.0188 30,2.568 4.03333,0.54921 8.87703,1.7774 10.76377,2.72932 1.88675,0.95192 4.12151,2.56344 4.96614,3.58116 l 1.53568,1.85039 -5.09031,4.97056 -5.09031,4.97055 -17.87582,1.90713 c -9.8317,1.04892 -18.47582,1.8661 -19.20915,1.81595 -0.73334,-0.0502 -5.23334,-0.94138 -10,-1.98051 z m 63.51387,-8.38006 -0.86574,-5.41404 -5.32856,-5.12017 -5.32857,-5.12016 3.67116,-3.42419 c 2.01915,-1.8833 5.00069,-4.10764 6.62566,-4.94298 l 2.95448,-1.5188 1.90856,3.02255 c 1.0497,1.6624 2.9147,6.56803 4.14444,10.9014 l 2.23589,7.87885 -4.57579,4.57579 -4.57579,4.57578 z"
       id="path23" /></g></svg>
