<?xml version="1.0" encoding="UTF-8" standalone="no"?>
<!-- Created with Inkscape (http://www.inkscape.org/) -->

<svg
   version="1.1"
   id="svg1"
   width="649.60028"
   height="641.33331"
   viewBox="0 0 649.60028 641.33331"
   sodipodi:docname="monowire.svg"
   inkscape:export-filename="..\..\..\Foundry VTT\Foundry Data\Data\Cyberpunk\Custom SVGs\Inkscape\projectilesystem.svg"
   inkscape:export-xdpi="96"
   inkscape:export-ydpi="96"
   xml:space="preserve"
   xmlns:inkscape="http://www.inkscape.org/namespaces/inkscape"
   xmlns:sodipodi="http://sodipodi.sourceforge.net/DTD/sodipodi-0.dtd"
   xmlns="http://www.w3.org/2000/svg"
   xmlns:svg="http://www.w3.org/2000/svg"><defs
     id="defs1"><filter
       style="color-interpolation-filters:sRGB"
       inkscape:label="Drop Shadow"
       id="filter33"
       x="-0.06232684"
       y="-0.06323185"
       width="1.1246537"
       height="1.1264637"><feFlood
         result="flood"
         in="SourceGraphic"
         flood-opacity="1.000000"
         flood-color="rgb(58,63,94)"
         id="feFlood31" /><feGaussianBlur
         result="blur"
         in="SourceGraphic"
         stdDeviation="15.000000"
         id="feGaussianBlur31" /><feOffset
         result="offset"
         in="blur"
         dx="0.000000"
         dy="0.000000"
         id="feOffset31" /><feComposite
         result="comp1"
         operator="out"
         in="flood"
         in2="offset"
         id="feComposite32" /><feComposite
         result="comp2"
         operator="atop"
         in="comp1"
         in2="SourceGraphic"
         id="feComposite33" /></filter></defs><sodipodi:namedview
     id="namedview1"
     pagecolor="#1b1f21"
     bordercolor="#eeeeee"
     borderopacity="1"
     inkscape:showpageshadow="0"
     inkscape:pageopacity="0"
     inkscape:pagecheckerboard="0"
     inkscape:deskcolor="#505050"
     showgrid="false"
     inkscape:export-bgcolor="#1b1f21ff"
     inkscape:zoom="0.83410153"
     inkscape:cx="288.3342"
     inkscape:cy="279.94194"
     inkscape:window-width="1920"
     inkscape:window-height="1017"
     inkscape:window-x="-8"
     inkscape:window-y="-8"
     inkscape:window-maximized="1"
     inkscape:current-layer="g1" /><g
     inkscape:groupmode="layer"
     inkscape:label="Image"
     id="g1"
     transform="translate(-17.333334,-24.000002)"><g
       inkscape:groupmode="layer"
       id="layer2"
       inkscape:label="Image 1"
       transform="translate(-8.3407142,-14.259679)"><rect
         style="fill:#1b1f21;fill-opacity:1"
         id="rect38"
         width="787.67389"
         height="767.29266"
         x="-33.569054"
         y="-32.370159" /></g><path
       style="fill:#e64539;fill-opacity:1;filter:url(#filter33)"
       d="m 384.66668,628.05417 c -1.46667,-0.61057 -7.57005,-4.92254 -13.56307,-9.58215 C 365.11059,613.81241 351.91868,602.8 341.78827,594 331.65785,585.2 319.89761,574.7 315.6544,570.66667 L 307.93947,563.33333 307.74639,560 c -0.1062,-1.83333 1.19177,-9.81246 2.88438,-17.73138 l 3.07748,-14.39805 -3.68573,-3.84707 -3.68572,-3.84707 0.94995,-5.06367 c 0.52247,-2.78502 1.49749,-6.08676 2.16671,-7.3372 l 1.21676,-2.27353 4.26026,-0.41768 4.26026,-0.41768 2.41344,-8 2.41345,-8 -0.34214,-9.32567 -0.34215,-9.32566 -4.5859,-2.16051 c -2.52225,-1.18828 -5.03008,-3.29173 -5.57295,-4.67433 -0.54288,-1.38261 -1.02923,-5.08266 -1.08077,-8.22235 l -0.0937,-5.70851 2,-0.76747 2,-0.76747 v -4.45062 -4.45062 l 13.17296,-11.40673 C 336.4181,421.13303 342.88009,416 343.53295,416 c 0.65285,0 10.17502,8.14633 21.16037,18.10295 l 19.97336,18.10295 21.62296,13.5404 21.62297,13.54039 14.02462,34.39029 14.02462,34.39029 -3.5434,8.96637 -3.5434,8.96636 -7.53857,8.66667 c -4.14621,4.76666 -9.54133,11.66666 -11.98916,15.33333 -2.44783,3.66667 -11.67162,14.01667 -20.49731,23 l -16.04671,16.33333 -2.73498,-0.0845 c -1.50424,-0.0465 -3.93498,-0.58408 -5.40164,-1.19465 z m 3.0013,-41.22085 c 7.36624,-9.44167 14.0457,-18.38595 14.84324,-19.87618 l 1.45009,-2.70951 -2.31398,-2.62421 c -1.27269,-1.44332 -12.97435,-11.99904 -26.00369,-23.45715 -13.02934,-11.45812 -24.51674,-20.83294 -25.52755,-20.83294 -1.01081,0 -7.30044,8.36874 -13.97696,18.5972 l -12.13912,18.59719 v 3.29617 3.29617 l 22.84077,21.43997 C 359.4032,594.35201 370.71504,604 371.97819,604 h 2.29664 z m -36.17952,-10.40639 c -10.71865,-10.03186 -19.48845,-18.67461 -19.48845,-19.20611 0,-0.53151 4.21875,-7.36738 9.37501,-15.19082 5.15625,-7.82344 9.90312,-14.03069 10.54859,-13.79389 0.64548,0.23681 10.51413,8.69473 21.93035,18.79539 l 20.75677,18.36484 -11.42066,14.63516 c -6.28136,8.04934 -11.59897,14.63517 -11.8169,14.63517 -0.21794,0 -9.16606,-8.20789 -19.88471,-18.23974 z m 38.83743,-107.36405 c 0.92076,-0.76417 1.67412,-2.49482 1.67412,-3.84589 0,-1.35108 -1.19978,-3.0986 -2.66618,-3.88339 l -2.66617,-1.4269 -13.66716,0.37998 -13.66716,0.37999 -0.40074,3.44746 -0.40074,3.44746 1.79365,1.4886 c 0.98651,0.81873 6.26684,1.7078 11.73408,1.9757 5.46723,0.26791 11.43706,0.24844 13.2663,-0.0433 1.82923,-0.2917 4.07923,-1.15559 5,-1.91976 z m -44.42112,-31.15812 c 1.15238,-1.15238 2.09524,-3.53855 2.09524,-5.30259 v -3.20736 l -3.32362,-2.17772 -3.32362,-2.17772 -3.39021,0.85089 -3.3902,0.85088 -1.3216,3.47607 -1.3216,3.47607 2.06616,3.15336 2.06616,3.15336 h 3.87403 c 2.13071,0 4.81688,-0.94286 5.96926,-2.09524 z m -7.86126,-3.16771 c -0.47715,-0.77204 -0.49673,-2.00372 -0.0435,-2.73705 0.45322,-0.73333 1.73263,-1.33333 2.84312,-1.33333 h 2.01908 l -0.4311,2.22284 c -0.23711,1.22257 -1.12612,2.45424 -1.97558,2.73705 -0.84946,0.28281 -1.93487,-0.11747 -2.41202,-0.88951 z m 120.62317,128.6463 c 0,-0.33916 1.26196,-3.98954 2.80436,-8.11196 l 2.80435,-7.49531 -14.35016,-35.55471 c -7.89258,-19.55509 -14.86774,-36.23209 -15.50036,-37.06 -0.63261,-0.82792 -11.187,-7.83719 -23.4542,-15.57617 l -22.30399,-14.07086 -21.57617,-20.0905 -21.57617,-20.09051 h -2.66289 -2.66289 l -12.986,-18.99478 c -7.1423,-10.44713 -13.54424,-21.19406 -14.22653,-23.88207 l -1.24052,-4.88729 1.23619,-2.20895 1.23619,-2.20894 29.08056,30.83162 29.08056,30.83163 7.57477,3.82373 c 4.16613,2.10306 11.13311,4.46562 15.48217,5.25015 4.34907,0.78452 11.17825,1.34946 15.17595,1.25541 3.99771,-0.0941 9.39771,-1.04888 12.00001,-2.12185 2.60229,-1.07297 6.75392,-3.47768 9.22585,-5.3438 l 4.49441,-3.39295 3.35128,-7.32016 3.35128,-7.32016 -0.74198,-9.81065 -0.74198,-9.81065 -4.70598,-7.74688 c -2.58829,-4.26078 -5.79633,-8.73363 -7.12897,-9.93966 -1.33265,-1.20603 -4.87322,-3.87524 -7.86794,-5.93159 -2.99472,-2.05635 -19.02295,-15.39922 -35.61829,-29.65082 -16.59535,-14.2516 -30.02345,-26.06192 -29.84022,-26.24514 0.18323,-0.18323 7.44149,1.1104 16.12948,2.87472 l 15.79633,3.20787 5.51408,3.2789 c 3.03275,1.8034 12.71408,10.5688 21.51409,19.47868 l 16,16.19977 -3,2.05456 c -1.65,1.13001 -3,2.79299 -3,3.69552 0,0.90252 9.79491,9.04726 21.76646,18.09943 l 21.76647,16.45847 17.23353,22.47619 17.23354,22.47618 28,16.87241 c 15.4,9.27983 33.25,19.42767 39.66667,22.55075 6.41666,3.12309 11.66666,6.02809 11.66666,6.45556 0,0.42747 -0.86933,2.45832 -1.93185,4.51301 -1.06252,2.05468 -3.61252,4.80256 -5.66666,6.10639 -2.05415,1.30383 -5.23482,3.74512 -7.06815,5.42509 -1.83334,1.67998 -9.33334,6.49255 -16.66667,10.6946 -7.33333,4.20206 -24.43334,15.75791 -38,25.67967 -13.56667,9.92175 -29.16667,21.13682 -34.66667,24.92237 -5.5,3.78555 -12.03953,7.5775 -14.5323,8.42657 -2.49276,0.84907 -4.74276,1.54376 -5,1.54376 -0.25723,0 -0.4677,-0.27749 -0.4677,-0.61665 z M 567.33335,462.23036 c -7.33333,-3.91488 -23.6833,-13.37718 -36.33325,-21.02735 L 508.00018,427.29361 490.31689,404.6468 472.6336,382 l -19.73626,-15.17713 -19.73627,-15.17713 9.2546,-5.11041 9.2546,-5.11042 4.06149,1.16482 c 2.23382,0.64065 16.85801,6.87701 32.4982,13.85857 l 28.43672,12.69375 22,5.58172 c 12.1,3.06994 23.16037,6.19316 24.57859,6.94047 1.41822,0.74732 10.96846,10.01053 21.22276,20.58491 10.2543,10.57438 23.19393,22.86754 28.75475,27.31813 5.56081,4.45059 11.82063,10.13851 13.9107,12.63983 l 3.80013,4.54785 -0.80192,3.1951 -0.80191,3.19509 -7.66488,2.11445 c -4.21569,1.16295 -14.26488,4.53939 -22.33155,7.50319 -8.06667,2.9638 -15.56667,5.65801 -16.66667,5.98713 -1.1,0.32912 -8,-2.60469 -15.33333,-6.51956 z m 23.72988,-27.92776 3.60345,-2.36407 v -5.25621 -5.2562 l -4.17622,-4.75646 -4.17623,-4.75646 -7.69107,-2.13831 -7.69107,-2.1383 1.34538,-3.85936 1.34538,-3.85937 -1.64239,-3.96506 c -0.90331,-2.18079 -3.65562,-5.73272 -6.11624,-7.89317 l -4.47386,-3.9281 -4.93717,-0.92622 c -2.71545,-0.50942 -13.37828,-0.53146 -23.69518,-0.049 l -18.758,0.87726 -3.33333,2.44899 -3.33333,2.44899 -0.36333,4.53421 -0.36332,4.53421 2.56637,4.15132 2.56637,4.15132 5.88459,2.84868 c 3.23652,1.5668 7.86862,2.84871 10.29354,2.84871 h 4.40896 l -1.34263,1.66667 c -0.73844,0.91666 -1.73317,3.49639 -2.21049,5.73272 l -0.86787,4.06606 3.07382,4.60061 c 1.69059,2.53033 5.16185,5.67635 7.7139,6.99115 l 4.64009,2.39054 22.06321,-0.39054 22.06322,-0.39054 z m -45.605,-6.68352 c -2.49798,-0.89049 -5.77001,-3.27562 -7.27118,-5.30028 l -2.7294,-3.6812 1.94418,-1.94417 1.94418,-1.94418 18.21854,-1.38286 18.21854,-1.38286 3.77513,1.43038 c 2.07632,0.78672 5.12513,2.69501 6.77513,4.24066 1.65,1.54565 3,3.84149 3,5.10186 0,1.26038 -0.82444,2.60797 -1.83209,2.99464 -1.00765,0.38667 -6.85765,1.07123 -13,1.52123 -6.14235,0.45001 -14.16791,1.07642 -17.83458,1.39203 l -6.66666,0.57383 z m 22.54179,-3.75963 c 6.23333,-0.13076 12.08333,-0.51682 13,-0.85791 0.91666,-0.3411 1.66666,-1.70598 1.66666,-3.03308 0,-1.3271 -0.75,-2.67555 -1.66666,-2.99657 -0.91667,-0.32101 -9.46667,-0.2995 -19,0.0478 -9.53334,0.3473 -17.80301,1.05962 -18.37705,1.58293 -0.57404,0.5233 -0.67295,1.91763 -0.21981,3.09851 0.45315,1.18088 1.82282,2.42972 3.04371,2.7752 1.2209,0.34548 4.01981,0.4015 6.21981,0.1245 2.2,-0.27701 9.1,-0.61063 15.33334,-0.74139 z M 521.9995,400.8733 c -2.20029,-0.98891 -4.65714,-2.63996 -5.45969,-3.669 -0.80254,-1.02903 -1.82997,-2.91181 -2.28316,-4.18396 l -0.824,-2.313 2.34258,-1.25371 c 1.28842,-0.68954 10.37797,-1.89804 20.19901,-2.68557 l 17.85643,-1.43186 5.7564,2.78663 5.75641,2.78662 0.78713,3.13616 c 0.43291,1.72489 0.434,3.70752 0.002,4.40584 -0.43159,0.69832 -5.73807,1.64744 -11.79219,2.10915 -6.05412,0.46171 -14.90749,1.1255 -19.67416,1.4751 l -8.66667,0.63563 z m 32.24353,-3.53997 h 7.17401 l 0.84146,-2.19281 0.84146,-2.19281 -2.47148,-1.80719 -2.47148,-1.80719 -11.41182,0.13187 c -6.27651,0.0725 -14.71183,0.52252 -18.74517,1 l -7.33333,0.86813 v 1.96063 c 0,1.07834 1.5,2.76117 3.33333,3.73963 l 3.33334,1.779 9.86784,-0.73963 c 5.42731,-0.40679 13.09614,-0.73963 17.04184,-0.73963 z m -60.42261,-2.01279 c 0.42481,-1.10703 0.17808,-5.14653 -0.54829,-8.97665 -0.72637,-3.83013 -2.24641,-7.87437 -3.37788,-8.98721 l -2.05722,-2.02335 -1.73563,2.33807 -1.73563,2.33807 1.20713,6.99527 c 0.66392,3.84739 1.46279,7.74526 1.77527,8.66193 0.31248,0.91666 1.72279,1.66666 3.13401,1.66666 1.41123,0 2.91343,-0.90575 3.33824,-2.01279 z m -35.06609,-36.70079 c 1.41846,-0.75913 2.57902,-2.36189 2.57902,-3.56167 0,-1.19979 -0.993,-3.27868 -2.20665,-4.61976 L 456.92005,348 h -3.63009 c -1.99655,0 -4.41877,0.95029 -5.3827,2.11176 l -1.75261,2.11177 1.38689,2.22157 c 0.76279,1.22186 2.828,2.96272 4.58935,3.86858 1.76135,0.90585 3.3919,1.65585 3.62344,1.66666 0.23155,0.0108 1.58155,-0.60145 3,-1.36059 z m -4.97654,-4.84197 c 0.48889,-0.48889 1.28889,-0.48889 1.77778,0 0.48889,0.48889 0.0889,0.88889 -0.88889,0.88889 -0.97778,0 -1.37778,-0.4 -0.88889,-0.88889 z m -160.44445,67.35293 c -8.43333,-5.81547 -21.63333,-14.37305 -29.33333,-19.01683 -7.7,-4.64379 -20.8462,-13.5915 -29.21378,-19.88381 l -15.21378,-11.44054 -3.84203,2.73577 -3.84204,2.73577 -2.95279,-0.7411 c -1.62403,-0.40761 -8.49892,-5.91633 -15.27752,-12.24161 -6.7786,-6.32527 -12.32473,-12.39241 -12.32473,-13.48253 0,-1.09012 1.83407,-4.64776 4.07571,-7.90588 l 4.07572,-5.92385 -22.40905,-26.14189 C 154.75074,295.44616 143.01667,281.54691 141,278.93697 l -3.66666,-4.74534 v -4.34235 c 0,-2.38829 0.64711,-6.03141 1.43802,-8.09581 0.79092,-2.06441 2.86584,-9.07149 4.61095,-15.57129 l 3.17292,-11.81782 -4.57922,-7.15847 c -2.51857,-3.93716 -13.06057,-21.97202 -23.42667,-40.07748 L 99.701889,154.2094 89.888235,142.77136 c -5.397509,-6.29091 -13.730434,-17.10438 -18.51761,-24.02993 l -8.703957,-12.59191 v -5.30311 -5.303102 l 2.094473,-2.314366 2.094473,-2.314366 -6.761139,-8.390494 -6.76114,-8.390494 v -3.409837 -3.409836 l 6.054344,-3.656957 C 62.717568,61.645631 66.687182,60 68.209043,60 c 1.521861,0 5.847407,2.202137 9.612323,4.893638 3.764917,2.691501 8.76023,6.675207 11.100696,8.852679 l 4.255393,3.959042 5.628384,-0.754925 5.628381,-0.754924 8.11623,5.498969 c 4.46392,3.024433 13.51622,9.50918 20.11622,14.410548 6.6,4.901373 15.9,13.004923 20.66667,18.007903 l 8.66666,9.09633 25.33334,16.74881 25.33333,16.74881 10,4.17311 c 5.5,2.2952 12.80649,5.16916 16.23664,6.38657 3.43016,1.21741 10.78988,5.48047 16.35495,9.47346 L 265.37656,184 h 9.66976 9.66976 l 21.9753,16.89455 c 12.08641,9.292 27.57827,21.38461 34.42634,26.87245 6.84808,5.48785 15.63221,12.8853 19.52028,16.43879 l 7.06924,6.46088 h 7.47972 c 4.11384,0 7.47972,0.52696 7.47972,1.17102 0,0.64406 3.9,5.38338 8.66666,10.53182 4.76667,5.14844 8.66667,10.28661 8.66667,11.41815 v 2.05734 l -6.00017,1.74417 -6.00017,1.74416 11.58452,14 c 6.37148,7.7 18.91489,21.30068 27.87424,30.22374 l 16.28974,16.22373 -3.64314,1.50903 -3.64313,1.50904 -19.89761,-19.84238 -19.89761,-19.84237 -5.73764,-1.63185 c -3.1557,-0.89751 -10.6557,-2.49737 -16.66667,-3.55523 -6.01096,-1.05787 -14.22903,-1.9146 -18.26236,-1.90384 l -7.33333,0.0196 -13.21393,9.93436 c -7.26766,5.4639 -14.82904,11.90429 -16.80307,14.31196 -1.97402,2.40768 -5.45127,9.4776 -7.72722,15.71093 -2.27595,6.23333 -4.73435,14.03715 -5.46312,17.34183 l -1.32503,6.00849 1.10358,4.89312 1.10358,4.89313 13.44457,19.94427 c 7.39451,10.96936 13.61768,20.5425 13.82927,21.27365 0.21158,0.73115 -4.81384,5.9005 -11.16761,11.48744 -6.35377,5.58694 -12.05377,10.09153 -12.66667,10.01021 -0.61289,-0.0813 -8.01435,-4.90596 -16.44769,-10.72143 z m -58.04166,-69.69404 4.53936,-1.89667 1.57765,-5.2657 1.57764,-5.2657 -1.56754,-4.74968 -1.56753,-4.74967 -5.17941,-4.67928 -5.1794,-4.67929 -4.89456,-0.91822 -4.89455,-0.91822 -4.4393,2.11695 -4.4393,2.11696 -1.30489,4.72592 -1.30489,4.72593 1.24592,4.51237 c 0.68526,2.4818 2.53974,6.15718 4.12106,8.1675 1.58133,2.01033 5.3223,4.76659 8.31327,6.12502 2.99097,1.35843 6.2074,2.48306 7.14762,2.49916 0.94022,0.0161 3.7522,-0.82422 6.24885,-1.86738 z m -15.46571,-7.30949 -3.13613,-2.53948 2.32175,-2.5655 c 1.27696,-1.41103 2.32175,-3.52472 2.32175,-4.69708 0,-1.17237 -1.46846,-3.28666 -3.26324,-4.69844 l -3.26324,-2.56686 1.52991,-1.52991 C 217.17821,324.68846 219.51614,324 221.53215,324 h 3.66548 l 3.40119,4.45919 3.40119,4.45919 v 4.7789 4.77891 l -2.09524,2.09524 c -1.15238,1.15238 -3.18591,2.09524 -4.51896,2.09524 -1.33304,0 -3.83497,-1.14277 -5.55984,-2.53949 z m 141.46046,-74.70619 c 0.75914,-1.41846 1.37038,-4.26846 1.35831,-6.33333 -0.0121,-2.06488 -1.36453,-6.15433 -3.00549,-9.08766 l -2.98355,-5.33333 -5.74422,-2.9017 -5.74422,-2.90169 -3.92499,1.36826 -3.925,1.36826 -0.80318,3.2001 c -0.44174,1.76006 -0.45535,4.58591 -0.0302,6.27968 l 0.77292,3.07957 10.37162,6.89487 c 5.70439,3.79217 10.80051,6.90636 11.32471,6.92042 0.5242,0.0141 1.5742,-1.135 2.33333,-2.55345 z m -10.95309,-8.19446 c -1.28333,-0.74747 -2.33333,-2.18567 -2.33333,-3.19601 0,-1.01034 -1.60279,-3.09773 -3.56176,-4.63865 l -3.56176,-2.80168 1.46414,-1.46414 1.46414,-1.46414 3.4067,0.85503 3.4067,0.85503 2.02426,3.91447 c 1.11333,2.15295 2.02425,5.14426 2.02425,6.64735 0,1.50308 -0.45,2.71463 -1,2.69233 -0.55,-0.0223 -2.05,-0.65211 -3.33334,-1.39959 z m -166.6,-20.15986 c 0.88,-0.88 1.6,-3.26617 1.6,-5.3026 v -3.7026 l -3,-1.82565 c -1.65,-1.00411 -6.80563,-2.92978 -11.45696,-4.27927 l -8.45696,-2.45362 -2.20971,1.38302 c -1.21534,0.76066 -2.38811,2.8538 -2.60615,4.65143 l -0.39644,3.26842 2.39644,2.16041 c 1.31804,1.18822 5.39644,3.37419 9.06311,4.85772 3.66667,1.48353 8.19667,2.73004 10.06667,2.77003 1.87,0.04 4.12,-0.64729 5,-1.52729 z m 86.39974,-39.20069 c -0.4504,-1.17372 -2.16459,-3.76597 -3.80932,-5.76057 -1.64473,-1.9946 -5.39499,-5.44368 -8.33392,-7.66462 -2.93892,-2.22094 -7.34468,-5.07293 -9.79057,-6.33775 -2.44589,-1.26482 -4.70938,-2.03736 -5.02998,-1.71677 -0.3206,0.3206 5.28516,5.74273 12.45724,12.04919 7.17208,6.30645 13.55434,11.48839 14.1828,11.51541 0.62845,0.027 0.77414,-0.91118 0.32375,-2.08489 z m 132.49355,213.80069 -5.93843,-3 -3.0136,-4.53472 c -1.65747,-2.4941 -3.61904,-6.78319 -4.35904,-9.53133 l -1.34545,-4.99661 1.40956,-6.57255 1.40956,-6.57255 3.89248,-4.72226 c 2.14087,-2.59724 5.95397,-5.70049 8.47356,-6.89612 2.5196,-1.19562 6.70135,-2.17386 9.29278,-2.17386 2.59143,0 6.40076,0.63996 8.46516,1.42215 2.06441,0.78218 5.18262,2.73218 6.92936,4.33333 1.74674,1.60115 4.28356,5.31118 5.63738,8.24452 l 2.4615,5.33333 0.0293,6.68641 0.0293,6.68641 -2.73507,5.10305 c -1.50429,2.80668 -4.35429,6.5361 -6.33333,8.28761 -1.97905,1.75151 -5.69826,3.79291 -8.26493,4.53644 -2.56667,0.74353 -5.88953,1.35522 -7.38415,1.35931 -1.49461,0.004 -5.38977,-1.34256 -8.6559,-2.99256 z m 20.73489,-9.42818 4.42817,-4.42817 0.94435,-5.03378 0.94434,-5.03377 -1.56099,-5.21011 -1.56098,-5.21011 -3.38332,-2.21683 c -1.86082,-1.21926 -5.07032,-2.21683 -7.13223,-2.21683 -2.0619,0 -5.64622,0.78589 -7.96516,1.74642 l -4.21624,1.74643 -2.59639,5.08935 c -1.42802,2.79914 -2.59305,6.16324 -2.58896,7.47579 0.004,1.31255 0.64091,4.66766 1.41516,7.45581 l 1.40772,5.06936 4.25151,2.59232 c 2.33833,1.42578 6.26151,2.59457 8.71818,2.59731 l 4.46667,0.005 z m -17.2859,-5.20183 c -1.14159,-1.62984 -2.07561,-4.60161 -2.07561,-6.60393 0,-2.00232 0.69631,-5.16882 1.54735,-7.03666 0.85105,-1.86784 2.55806,-3.39607 3.79335,-3.39607 1.2353,0 3.29899,1.16354 4.58598,2.58565 l 2.33999,2.58566 v 5.02743 5.02744 l -2.94771,2.38691 c -1.62125,1.3128 -3.44722,2.38691 -4.05773,2.38691 -0.61051,0 -2.04404,-1.3335 -3.18562,-2.96334 z m -59.64541,-21.94254 -29.76353,-31.57255 0.19605,-3.42745 c 0.10783,-1.8851 1.40643,-6.20729 2.88579,-9.60487 l 2.68973,-6.17743 12.87183,-10.82257 c 7.07951,-5.95242 13.32771,-10.82258 13.88488,-10.82258 0.55717,0 12.34603,10.0431 26.19746,22.31801 l 25.18443,22.31802 -4.62175,0.83178 c -2.54197,0.45748 -6.35012,1.52931 -8.46256,2.38186 -2.11245,0.85254 -5.59563,2.79961 -7.7404,4.32683 -2.14478,1.52721 -5.47194,5.26227 -7.39371,8.30012 l -3.49411,5.52338 -0.59787,10.2367 -0.59788,10.2367 3.06294,6.32718 c 1.68461,3.47995 4.15918,7.42343 5.49905,8.7633 1.33986,1.33986 1.87971,2.43612 1.19965,2.43612 -0.68005,0 -14.63005,-14.20765 -31,-31.57255 z"
       id="path31" /></g></svg>
