<?xml version="1.0" encoding="UTF-8" standalone="no"?>
<svg
   width="240"
   height="240"
   version="1.1"
   id="svg40"
   sodipodi:docname="power-rebuild.svg"
   inkscape:version="1.3.2 (091e20e, 2023-11-25, custom)"
   xml:space="preserve"
   xmlns:inkscape="http://www.inkscape.org/namespaces/inkscape"
   xmlns:sodipodi="http://sodipodi.sourceforge.net/DTD/sodipodi-0.dtd"
   xmlns="http://www.w3.org/2000/svg"
   xmlns:svg="http://www.w3.org/2000/svg"><defs
     id="defs40"><filter
       style="color-interpolation-filters:sRGB;"
       inkscape:label="Drop Shadow"
       id="filter4"
       x="-0.20236493"
       y="-0.17708941"
       width="1.4047299"
       height="1.3541788"><feFlood
         result="flood"
         in="SourceGraphic"
         flood-opacity="1.000000"
         flood-color="rgb(58,63,94)"
         id="feFlood3" /><feGaussianBlur
         result="blur"
         in="SourceGraphic"
         stdDeviation="15.000000"
         id="feGaussianBlur3" /><feOffset
         result="offset"
         in="blur"
         dx="0.000000"
         dy="0.000000"
         id="feOffset3" /><feComposite
         result="comp1"
         operator="out"
         in="flood"
         in2="offset"
         id="feComposite3" /><feComposite
         result="comp2"
         operator="atop"
         in="comp1"
         in2="SourceGraphic"
         id="feComposite4" /></filter><filter
       style="color-interpolation-filters:sRGB;"
       inkscape:label="Drop Shadow"
       id="filter6"
       x="-0.20163867"
       y="-0.17783277"
       width="1.4032773"
       height="1.3556655"><feFlood
         result="flood"
         in="SourceGraphic"
         flood-opacity="1.000000"
         flood-color="rgb(58,63,94)"
         id="feFlood4" /><feGaussianBlur
         result="blur"
         in="SourceGraphic"
         stdDeviation="15.000000"
         id="feGaussianBlur4" /><feOffset
         result="offset"
         in="blur"
         dx="0.000000"
         dy="0.000000"
         id="feOffset4" /><feComposite
         result="comp1"
         operator="out"
         in="flood"
         in2="offset"
         id="feComposite5" /><feComposite
         result="comp2"
         operator="atop"
         in="comp1"
         in2="SourceGraphic"
         id="feComposite6" /></filter><filter
       style="color-interpolation-filters:sRGB;"
       inkscape:label="Drop Shadow"
       id="filter8"
       x="-0.2053087"
       y="-0.17966306"
       width="1.4106174"
       height="1.3593261"><feFlood
         result="flood"
         in="SourceGraphic"
         flood-opacity="1.000000"
         flood-color="rgb(58,63,94)"
         id="feFlood6" /><feGaussianBlur
         result="blur"
         in="SourceGraphic"
         stdDeviation="15.000000"
         id="feGaussianBlur6" /><feOffset
         result="offset"
         in="blur"
         dx="0.000000"
         dy="0.000000"
         id="feOffset6" /><feComposite
         result="comp1"
         operator="out"
         in="flood"
         in2="offset"
         id="feComposite7" /><feComposite
         result="comp2"
         operator="atop"
         in="comp1"
         in2="SourceGraphic"
         id="feComposite8" /></filter></defs><sodipodi:namedview
     id="namedview40"
     pagecolor="#505050"
     bordercolor="#eeeeee"
     borderopacity="1"
     inkscape:showpageshadow="0"
     inkscape:pageopacity="0"
     inkscape:pagecheckerboard="0"
     inkscape:deskcolor="#505050"
     inkscape:zoom="2.3747003"
     inkscape:cx="108.64529"
     inkscape:cy="105.9081"
     inkscape:window-width="1920"
     inkscape:window-height="1017"
     inkscape:window-x="-8"
     inkscape:window-y="-8"
     inkscape:window-maximized="1"
     inkscape:current-layer="svg40" /><path
     style="fill:#1b1f21;stroke:none"
     d="M0 0v240h240V0H0z"
     id="path1" /><path
     style="fill:#e64539;fill-opacity:1;filter:url(#filter8)"
     d="m 114.91762,217.91281 c -2.19631,-1.23788 -6.93382,-3.97076 -10.52779,-6.07306 C 87.350983,201.87282 78.870409,196.98866 59.1806,185.80269 47.493414,179.16309 36.629822,172.90919 35.039284,171.90512 l -2.891888,-1.82556 0,-41.255 c 0,-22.69025 0.177302,-41.432298 0.394004,-41.649 0.216703,-0.216702 5.362615,0.852214 11.43536,2.37537 10.628372,2.66579 78.67595,17.79564 88.36617,19.64754 2.59565,0.49605 5.00316,1.14239 5.35003,1.43632 0.34687,0.29392 -1.64199,3.25647 -4.4197,6.58343 -10.70098,12.81698 -16.85445,21.6592 -15.07305,21.6592 0.72196,0 18.05926,-13.81107 25.17397,-20.05385 11.05906,-9.70373 12.0536,-11.24622 9.44047,-14.64184 -1.0273,-1.33492 -2.76682,-1.92663 -8.87802,-3.0199 C 134.24875,99.428712 45.67083,87.055681 35.959183,86.078976 l -3.811787,-0.383354 0,-7.784164 c 0,-8.949013 -0.422701,-8.257793 7.986601,-13.060064 8.101302,-4.626382 57.72856,-33.162387 68.733403,-39.522163 5.25797,-3.03862 10.09017,-5.524764 10.73823,-5.524764 1.90129,0 4.79787,1.576793 32.7038,17.802787 3.59397,2.089725 9.9651,5.739404 14.15807,8.110399 11.34759,6.416717 30.9321,17.744575 36.30273,20.997827 l 4.71935,2.858743 v 50.416987 50.41698 l -33.03548,18.91185 c -18.16952,10.40151 -37.70668,21.60367 -43.41593,24.89367 -5.70924,3.29001 -10.77347,5.97462 -11.25385,5.96581 -0.48037,-0.009 -2.67038,-1.02883 -4.8667,-2.26671 z M 76.601666,182.17838 c 6.449587,-2.42784 13.765632,-6.23555 20.637994,-10.74126 7.83901,-5.13947 25.11837,-20.75447 24.38976,-22.04052 -0.91624,-1.61727 -12.80503,-14.8755 -13.339,-14.8755 -2.1455,0 -21.261239,18.16066 -26.720481,25.38545 -5.506088,7.28678 -10.977683,16.53689 -13.129216,22.19586 -0.628316,1.65259 -0.515716,1.7904 1.462908,1.7904 1.17899,0 4.193106,-0.77149 6.698035,-1.71443 z M 202.34166,130.70931 c -0.42732,-1.0126 -20.58987,-13.06537 -24.79737,-14.82338 -3.23651,-1.35229 -11.27409,-2.57775 -12.87581,-1.96311 -0.78142,0.29986 -1.00031,0.93535 -0.68489,1.98835 0.59583,1.98917 5.16829,6.80682 7.74284,8.15805 1.61545,0.84786 10.11891,3.00516 27.77655,7.04684 2.62123,0.59997 3.2269,0.51319 2.83868,-0.40675 z M 176.04865,97.64329 c 10.70759,-5.559254 24.71705,-15.398126 21.92523,-15.398126 -0.24201,0 -6.16318,1.485091 -13.15815,3.300203 -14.18477,3.680774 -18.13785,5.39555 -22.25735,9.654829 -3.98138,4.11647 -3.33275,5.196334 3.12121,5.196334 4.44781,0 5.71329,-0.33601 10.36906,-2.75324 z M 151.05806,86.591133 c 3.18344,-4.698759 3.86066,-8.846837 3.08025,-18.867061 -0.38876,-4.991626 -0.71426,-11.261791 -0.72332,-13.933702 -0.0143,-4.214353 -0.82064,-6.559733 -1.88822,-5.492152 -0.17767,0.177665 -1.81033,6.173106 -3.62815,13.3232 -3.60917,14.196123 -3.94353,19.680104 -1.53801,25.225535 1.39879,3.224601 2.37548,3.171411 4.69745,-0.25582 z"
     id="path6" /></svg>
