<?xml version="1.0" encoding="UTF-8" standalone="no"?>
<!-- Created with Inkscape (http://www.inkscape.org/) -->

<svg
   version="1.1"
   id="svg1"
   width="745.38782"
   height="655.77704"
   viewBox="0 0 745.38782 655.77704"
   sodipodi:docname="projectilesystem.svg"
   inkscape:export-filename="..\..\..\Foundry VTT\Foundry Data\Data\Cyberpunk\Custom SVGs\Inkscape\kereznikov.svg"
   inkscape:export-xdpi="96"
   inkscape:export-ydpi="96"
   xml:space="preserve"
   xmlns:inkscape="http://www.inkscape.org/namespaces/inkscape"
   xmlns:sodipodi="http://sodipodi.sourceforge.net/DTD/sodipodi-0.dtd"
   xmlns="http://www.w3.org/2000/svg"
   xmlns:svg="http://www.w3.org/2000/svg"><defs
     id="defs1"><filter
       style="color-interpolation-filters:sRGB"
       inkscape:label="Drop Shadow"
       id="filter31"
       x="-0.053461017"
       y="-0.061667377"
       width="1.106922"
       height="1.1233348"><feFlood
         result="flood"
         in="SourceGraphic"
         flood-opacity="1.000000"
         flood-color="rgb(58,63,94)"
         id="feFlood29" /><feGaussianBlur
         result="blur"
         in="SourceGraphic"
         stdDeviation="15.000000"
         id="feGaussianBlur29" /><feOffset
         result="offset"
         in="blur"
         dx="0.000000"
         dy="0.000000"
         id="feOffset29" /><feComposite
         result="comp1"
         operator="out"
         in="flood"
         in2="offset"
         id="feComposite30" /><feComposite
         result="comp2"
         operator="atop"
         in="comp1"
         in2="SourceGraphic"
         id="feComposite31" /></filter></defs><sodipodi:namedview
     id="namedview1"
     pagecolor="#1b1f21"
     bordercolor="#eeeeee"
     borderopacity="1"
     inkscape:showpageshadow="0"
     inkscape:pageopacity="0"
     inkscape:pagecheckerboard="0"
     inkscape:deskcolor="#505050"
     showgrid="false"
     inkscape:export-bgcolor="#1b1f21ff"
     inkscape:zoom="0.83410153"
     inkscape:cx="288.3342"
     inkscape:cy="279.94194"
     inkscape:window-width="1920"
     inkscape:window-height="1017"
     inkscape:window-x="-8"
     inkscape:window-y="-8"
     inkscape:window-maximized="1"
     inkscape:current-layer="g1" /><g
     inkscape:groupmode="layer"
     inkscape:label="Image"
     id="g1"
     transform="translate(9.333332,-46.222942)"><g
       inkscape:groupmode="layer"
       id="layer2"
       inkscape:label="Image 1"
       transform="translate(1.0866352,23.29474)"><rect
         style="fill:#1b1f21;fill-opacity:1"
         id="rect38"
         width="787.67389"
         height="767.29266"
         x="-33.569054"
         y="-32.370159" /></g><path
       style="fill:#e64539;fill-opacity:1;filter:url(#filter31)"
       d="m 566.96713,664.19174 c -0.38193,-0.99454 -0.22713,-10.89454 0.34401,-22 0.57114,-11.10546 1.02228,-22.39984 1.00254,-25.09862 l -0.0359,-4.90688 -3.62359,-4.75077 c -1.99297,-2.61292 -7.30547,-7.42177 -11.80555,-10.68634 -4.50008,-3.26457 -11.48196,-8.96128 -15.51529,-12.65936 l -7.33334,-6.72377 3.20126,-2.72635 3.20125,-2.72636 2.79875,2.61019 c 1.53931,1.4356 3.54167,2.80511 4.44968,3.04335 0.90802,0.23824 14.4982,-12.4144 30.20041,-28.11698 l 28.54947,-28.55016 3.79959,1.55483 c 2.08978,0.85515 18.72729,4.27502 36.97226,7.59972 18.24496,3.32469 33.33462,5.87259 33.53258,5.66199 0.19796,-0.21059 5.19268,-6.56006 11.09938,-14.10994 l 10.73945,-13.72704 0.43322,23.06038 c 0.23827,12.6832 0.57812,48.11037 0.75522,78.72704 l 0.322,55.66666 -6.36059,0.18496 c -3.49832,0.10172 -33.28674,0.25172 -66.19649,0.33333 L 567.66154,666 Z m -27.15187,-95.08188 -3.51808,-2.742 -2.44972,1.37093 -2.44971,1.37093 -4.41566,-5.15871 c -2.42862,-2.83729 -7.39311,-7.08802 -11.0322,-9.44608 -3.6391,-2.35805 -6.61654,-4.67805 -6.61654,-5.15555 0,-0.4775 -8.7202,-8.21983 -19.37822,-17.20519 -10.65802,-8.98535 -20.93292,-18.68633 -22.83312,-21.55772 l -3.4549,-5.22071 0.65906,-7.01621 c 0.36249,-3.85892 1.0699,-7.98366 1.57204,-9.16609 l 0.91297,-2.14988 -27.73892,-17.69972 -27.73892,-17.69972 -12.66666,-15.13243 c -6.96667,-8.32284 -15.73951,-20.2016 -19.49519,-26.39725 l -6.82853,-11.26481 -2.41091,-9.08649 c -1.326,-4.99757 -3.77929,-10.75416 -5.45176,-12.79241 -1.67246,-2.03825 -3.39285,-5.93825 -3.82309,-8.66667 -0.43024,-2.72841 -1.07424,-6.87311 -1.43112,-9.21045 l -0.64886,-4.2497 25.67295,8.58304 L 409.92311,372 h 10.28796 10.28795 l -0.71261,4.39135 -0.71262,4.39136 9.33509,15.45709 c 5.1343,8.5014 9.94379,16.59446 10.68776,17.98458 l 1.35267,2.52749 -4.41833,7.00746 -4.41833,7.00747 1.9938,7.6166 1.9938,7.6166 -2.22541,6.66667 c -1.22397,3.66666 -2.51556,7.36128 -2.8702,8.21026 l -0.64481,1.54361 29.52856,21.12306 c 16.2407,11.61769 38.62224,28.4698 49.73675,37.44915 11.11452,8.97934 20.65489,16.32934 21.20084,16.33333 0.54594,0.004 4.90177,-5.86406 9.67961,-13.04011 l 8.68699,-13.04736 9.79274,-4.84557 9.79275,-4.84558 23.86097,-1.58863 23.86098,-1.58863 6.66666,-7.10004 c 3.66667,-3.90503 11.16667,-10.45153 16.66667,-14.54778 5.5,-4.09625 12.28347,-8.13952 15.07436,-8.98505 l 5.07437,-1.53732 3.8347,3.89999 3.8347,3.9 5.4988,19.15412 5.4988,19.15411 -3.42655,4.84589 c -1.88461,2.66523 -5.06815,6.78816 -7.07453,9.16205 l -3.64798,4.31618 -32,-5.9208 c -17.6,-3.25644 -33.95961,-6.68389 -36.35468,-7.61655 l -4.35468,-1.69575 -28.32336,28.30038 c -15.57784,15.5652 -28.61824,28.26704 -28.97865,28.2263 -0.36042,-0.0408 -2.23844,-1.30798 -4.17339,-2.81607 z m -57.50991,-32.77653 c -9.68598,-9.35 -19.40992,-19.04183 -21.60874,-21.5374 -2.19882,-2.49557 -9.10508,-8.31429 -15.34723,-12.93048 -6.24215,-4.61619 -14.34937,-10.54575 -18.01603,-13.17679 -3.66667,-2.63104 -14.76667,-10.86047 -24.66667,-18.28763 -9.9,-7.42715 -20.255,-15.31019 -23.0111,-17.51787 l -5.0111,-4.01397 -1.4016,-5.43459 c -0.77087,-2.98903 -1.70631,-6.4846 -2.07875,-7.76793 l -0.67715,-2.33334 h 1.57502 c 0.86627,0 20.97222,12.42749 44.6799,27.61664 l 43.10487,27.61664 -0.7668,8.2115 -0.76681,8.21149 3.56491,6.54991 3.56491,6.54991 19.20555,15.95529 c 10.56305,8.77541 19.23839,16.70529 19.27852,17.62196 0.0401,0.91666 -0.84589,1.66666 -1.96892,1.66666 -1.12304,0 -9.96679,-7.65 -19.65278,-17 z m 37.29435,-21.3584 c -10.67151,-8.60288 -31.19697,-24.02966 -45.61214,-34.28174 -14.41518,-10.25208 -26.50215,-19.11381 -26.85994,-19.69273 -0.3578,-0.57893 0.0387,-3.14086 0.881,-5.69319 0.84234,-2.55233 1.935,-4.63214 2.42813,-4.62179 0.49313,0.0104 6.58782,2.08913 13.54375,4.61951 6.95594,2.53038 13.03862,4.17192 13.51706,3.64785 0.47845,-0.52406 3.8344,-4.55284 7.45766,-8.95284 l 6.58775,-8 18.88715,-11.66667 c 10.38794,-6.41666 19.23509,-11.66666 19.66035,-11.66666 0.42525,0 6.98294,4.22692 14.57264,9.39315 l 13.79946,9.39315 16.8073,4.60685 c 9.24402,2.53377 17.40496,4.60685 18.13542,4.60685 0.73046,0 7.0131,-4.27311 13.96142,-9.4958 6.94832,-5.22268 12.63331,-10.09396 12.63331,-10.82506 0,-0.7311 -3.3,-6.03872 -7.33334,-11.79472 -4.03333,-5.756 -7.33333,-11.38472 -7.33333,-12.50827 0,-1.12355 0.75,-2.03317 1.66667,-2.02137 0.91666,0.0118 7.66666,2.72528 15,6.02997 7.33333,3.30469 13.93465,6.74504 14.66959,7.64522 0.73494,0.90018 6.65942,6.41071 13.16551,12.24561 l 11.82926,10.60892 2.30473,5.39108 c 1.2676,2.9651 2.59749,8.46241 2.9553,12.21625 l 0.65056,6.82516 -6.12081,2.61091 c -3.36644,1.43599 -9.42081,4.96467 -13.45414,7.8415 -4.03334,2.87683 -11.02529,8.95138 -15.53769,13.499 l -8.20435,8.2684 -23.12898,1.61823 -23.12898,1.61823 -11.42898,5.67404 -11.42898,5.67404 -7.1003,10.81507 c -3.90517,5.94829 -7.53658,11.08471 -8.06981,11.41427 -0.53323,0.32955 -9.70074,-6.43953 -20.37225,-15.04242 z m 171.72414,-9.89042 c -0.36154,-0.96315 -2.68068,-8.79365 -5.15366,-17.40112 l -4.49631,-15.64994 -4.83693,-5.3539 -4.83692,-5.3539 V 450.66283 440 h 1.33333 1.33334 v 7.61045 7.61045 l 4.77653,4.89161 4.77653,4.89162 5.19419,17.83127 c 2.8568,9.8072 5.20736,18.84586 5.22346,20.08591 0.0161,1.24005 -0.57495,2.62808 -1.31346,3.08451 -0.73852,0.45643 -1.63856,0.0418 -2.0001,-0.92131 z m 2.26285,-26.09167 -4.41332,-15.65951 -4.43942,-4.66666 -4.43941,-4.66667 -0.9088,-8 -0.9088,-8 10.13434,10.05022 10.13434,10.05022 -0.3728,18.27596 -0.3728,18.27596 z M 364.00001,453.39347 c -3.3,-2.03935 -12.3,-7.18874 -20,-11.4431 -7.7,-4.25435 -19.4,-10.82235 -26,-14.59556 -6.6,-3.77321 -15.9,-8.55741 -20.66667,-10.63156 -4.76667,-2.07415 -13.16667,-5.83452 -18.66667,-8.35638 -5.5,-2.52185 -15.4,-6.69895 -22,-9.28244 -6.6,-2.58349 -18,-6.7586 -25.33333,-9.27803 -7.33333,-2.51942 -23.14486,-7.58359 -35.13673,-11.25369 -11.99187,-3.67011 -31.19187,-10.48854 -42.66667,-15.15207 -11.4748,-4.66353 -28.66327,-11.26103 -38.1966,-14.66112 -9.53334,-3.40009 -22.133337,-8.22383 -28.000004,-10.71942 -5.866667,-2.49559 -16.336775,-6.72011 -23.266908,-9.38783 -6.930132,-2.66772 -15.009321,-6.07943 -17.953753,-7.58156 -2.944432,-1.50214 -8.524324,-5.12515 -12.39976,-8.05113 l -7.046248,-5.31997 v -28.10966 -28.10966 l 3.871132,-4.06348 3.871131,-4.06348 L 40.642357,228 c 3.428385,-8.43333 7.236376,-16.44944 8.462203,-17.81357 1.225826,-1.36412 4.449473,-4.24133 7.163659,-6.39379 l 4.934884,-3.91357 27.377775,18.79295 27.377772,18.79296 7.02068,8.01716 7.02067,8.01716 5.56731,-0.81645 5.56731,-0.81645 9.20198,4.63404 9.20197,4.63404 4.98634,22.43276 c 2.74249,12.33802 5.20273,23.11826 5.4672,23.95609 0.26448,0.83783 26.88914,10.32604 59.16592,21.0849 l 58.68505,19.56157 16.15143,-2.99899 16.15143,-2.99899 16.04598,5.22399 16.04597,5.22399 1.04958,2.02343 c 0.57726,1.11289 1.47638,6.22344 1.99804,11.35677 l 0.94848,9.33333 3.12906,3.33334 3.12905,3.33333 2.69769,9.77016 2.69769,9.77015 8.07956,12.89651 c 4.44376,7.09308 10.91908,16.16687 14.3896,20.16396 l 6.31004,7.26746 -5.33334,-3.18176 c -2.93333,-1.74997 -8.75041,-5.47033 -12.92684,-8.26746 -4.17643,-2.79713 -8.52643,-5.08569 -9.66666,-5.08569 h -2.07316 v 6.07624 c 0,3.34194 0.68134,8.89194 1.51409,12.33334 0.83274,3.4414 3.045,7.90709 4.91612,9.92376 l 3.40203,3.66666 -3.24945,-0.11598 c -1.7872,-0.0638 -5.94946,-1.78454 -9.24946,-3.82388 z m -210.92213,-177.81539 -0.41121,-4.24475 -3.07339,-0.43568 c -1.69036,-0.23963 -3.94036,0.28384 -5,1.16326 -1.05963,0.87942 -1.92661,2.69145 -1.92661,4.02674 0,1.3353 1.29276,3.33329 2.87281,4.44 l 2.87281,2.01219 2.53839,-1.35851 2.5384,-1.3585 z m 309.08326,173.80986 c -5.77805,-2.08331 -11.01054,-4.59786 -11.62776,-5.58789 -0.61722,-0.99003 -1.51204,-4.37799 -1.9885,-7.52881 l -0.86627,-5.72876 4.1607,-6.69317 c 2.28839,-3.68124 4.1607,-7.01469 4.1607,-7.40767 0,-0.39298 -4.8448,-8.76618 -10.76623,-18.60711 l -10.76623,-17.8926 0.87217,-3.97096 c 0.4797,-2.18404 0.9745,-3.95949 1.09957,-3.94545 0.12506,0.014 7.70474,2.40668 16.84373,5.31699 9.13899,2.91031 17.04685,4.84883 17.57301,4.30781 0.52617,-0.54101 1.78286,-4.28365 2.79264,-8.31699 L 475.48464,366 l 4.62221,-0.39581 4.62221,-0.39581 13.38807,15.72915 c 7.36344,8.65102 13.8451,16.49578 14.40369,17.43279 l 1.01562,1.70365 -14.43488,15.43356 -14.43488,15.43356 -4.69322,10.76053 c -2.58128,5.91829 -5.28128,10.9211 -6,11.11734 -0.71873,0.19625 -6.03427,-1.34771 -11.81232,-3.43102 z m 113.17221,-12.32779 -14.66667,-4.01318 -14.27435,-9.85682 c -7.8509,-5.42125 -15.08295,-9.85682 -16.07124,-9.85682 -0.98829,0 -10.16483,5.14805 -20.39232,11.4401 -10.22748,6.29205 -19.64542,12.38504 -20.92876,13.53998 -1.28333,1.15494 -2.33017,1.5569 -2.32631,0.89324 0.004,-0.66366 1.05386,-2.82312 2.33333,-4.79881 1.27948,-1.97568 8.89386,-10.57227 16.92087,-19.10351 l 14.59455,-15.51136 -1.26122,-1.79784 c -0.69367,-0.98882 -4.47058,-5.44223 -8.39314,-9.89649 C 506.94553,383.64439 504.08264,380 504.50611,380 c 0.42347,0 18.02549,6.63954 39.11561,14.75454 21.09011,8.115 40.29519,15.67966 42.67794,16.81035 l 4.33228,2.0558 5.39176,-2.81035 C 598.98917,409.26466 601.62652,408 601.88446,408 c 0.25795,0 2.93948,3.79183 5.95895,8.42629 3.01947,4.63446 5.48994,8.76176 5.48994,9.17179 0,0.41002 -4.48103,4.11819 -9.95785,8.24037 -5.47682,4.12219 -10.72682,7.43638 -11.66667,7.36488 -0.93985,-0.0715 -8.30881,-1.93593 -16.37548,-4.14318 z m 14.80932,-31.1692 c -0.44513,-1.15998 -0.80932,-4.17881 -0.80932,-6.70851 v -4.59947 l 1.87966,-0.72129 c 1.03381,-0.39671 3.77781,0.26028 6.09778,1.45999 l 4.21812,2.18127 -2.33093,3.58186 c -1.28201,1.97003 -3.27601,4.31278 -4.43111,5.20613 -1.1551,0.89334 -2.48599,1.64334 -2.95753,1.66667 -0.47155,0.0233 -1.22155,-0.90667 -1.66667,-2.06665 z M 543.0795,389.1767 c -22.13961,-8.56546 -41.24317,-15.48427 -42.45234,-15.37513 -1.20918,0.10913 -3.72185,-1.75157 -5.58371,-4.1349 l -3.38519,-4.33334 h 8.67471 8.67471 l 4.94944,-2.068 4.94944,-2.06801 32.88006,14.25031 c 18.08404,7.83767 32.9711,14.31828 33.08238,14.40134 0.11127,0.0831 -0.18873,3.46984 -0.66667,7.52617 l -0.86898,7.37513 z m 78.25385,10.91024 c -3.3,-1.27925 -24.3,-10.30775 -46.66667,-20.06332 -22.36666,-9.75557 -42.46667,-18.56249 -44.66667,-19.57093 l -4,-1.83354 8.9094,0.83605 8.90939,0.83605 1.35007,-5.14562 c 0.74254,-2.8301 1.73619,-6.74715 2.20811,-8.70457 l 0.85805,-3.55893 -3.11751,-1.94707 c -1.71463,-1.07088 -10.7675,-5.41844 -20.11751,-9.66123 l -17,-7.71417 0.0293,-2.77983 c 0.0161,-1.52891 1.18847,-5.33364 2.60526,-8.45496 1.41679,-3.12132 4.25362,-7.87794 6.30405,-10.57028 2.05044,-2.69233 6.39554,-6.58852 9.65578,-8.6582 3.26024,-2.06968 6.7252,-3.76306 7.69991,-3.76306 0.97471,0 12.10724,4.75914 24.73896,10.57585 l 22.96676,10.57586 9.62689,1.5379 9.62689,1.53791 26.37311,12.00747 c 14.50521,6.60411 26.94311,12.55292 27.63978,13.21958 l 1.26666,1.2121 -2.6,0.0443 c -1.43,0.0244 -4.98274,1.69162 -7.89498,3.70501 -2.91224,2.0134 -6.93921,6.04347 -8.94882,8.95571 -2.0096,2.91224 -4.99021,9.49498 -6.62356,14.62831 l -2.96973,9.33334 -0.0815,12.99806 c -0.0448,7.14893 -0.0815,12.94182 -0.0815,12.87309 0,-0.0687 -2.7,-1.17164 -6,-2.45088 z m 12.74768,0.47026 -2.08101,-2.08101 v -7.72278 c 0,-4.24752 0.59772,-10.87457 1.32828,-14.72677 0.73055,-3.8522 2.91809,-10.54656 4.86118,-14.87636 l 3.5329,-7.87235 5.38116,-3.95734 c 2.95963,-2.17654 7.37867,-4.33208 9.82009,-4.7901 l 4.43895,-0.83275 1.98539,1.64772 1.98538,1.64773 -0.0475,6.83674 c -0.0261,3.7602 -0.84577,10.13674 -1.82144,14.17007 -0.97568,4.03333 -2.70855,9.5471 -3.85083,12.25282 -1.14229,2.70571 -4.64567,7.70628 -7.7853,11.11238 -3.13962,3.40609 -7.94893,7.33592 -10.68733,8.73295 l -4.97892,2.54006 z m 12.80401,-14.12429 c 2.17521,-2.32856 4.73542,-5.77856 5.68936,-7.66666 0.95395,-1.88811 2.47735,-6.59351 3.38533,-10.45646 0.90799,-3.86295 1.27708,-8.51295 0.82019,-10.33333 l -0.83071,-3.30979 h -2.57341 -2.5734 l -3.36119,4.40674 c -1.84865,2.4237 -4.55218,7.09919 -6.00785,10.38997 -1.45567,3.29078 -3.04668,8.48477 -3.53559,11.5422 -0.4889,3.05743 -0.53473,6.48194 -0.10184,7.61003 0.43288,1.12808 1.76517,2.05106 2.96063,2.05106 1.19546,0 3.95328,-1.90519 6.12848,-4.23376 z m -196.88503,-15.26652 -13.33333,-4.57939 -11.17344,0.72761 -11.17345,0.72761 -52.60421,-17.48686 -52.60421,-17.48687 -10.44956,-21.8277 -10.44957,-21.8277 -8.66831,-4.27454 -8.66831,-4.27453 5.89284,-11.73336 5.89285,-11.73336 3.00268,1.15959 c 1.65148,0.63778 25.15024,10.82339 52.21947,22.63469 l 49.21678,21.47509 20.78322,0.0141 20.78322,0.0141 16.66667,2.58653 16.66666,2.58653 39.30223,18.10157 c 21.61622,9.95587 39.68284,18.53557 40.14805,19.06602 0.4652,0.53044 0.29523,2.97933 -0.37771,5.44197 l -1.22354,4.47754 -7.09752,-0.88678 -7.09753,-0.88678 -8.49365,3.51985 -8.49366,3.51985 -18.55923,0.88939 -18.55923,0.8894 -0.99081,3.33333 c -0.54494,1.83334 -1.35472,4.98334 -1.7995,7 l -0.8087,3.66667 -2.30793,-0.12711 c -1.26936,-0.0699 -8.30793,-2.18784 -15.64127,-4.7065 z m -219.1727,-47.22117 c -30.34499,-10.18206 -55.4642,-18.80434 -55.82048,-19.16062 -0.35629,-0.35628 -1.7164,-5.32857 -3.02249,-11.04953 -1.30609,-5.72095 -3.69888,-16.30772 -5.31731,-23.52614 l -2.94261,-13.1244 -11.38315,-5.23415 -11.38315,-5.23416 -4.1956,0.7871 -4.1956,0.7871 -7.20637,-7.61967 -7.20637,-7.61967 -23.410421,-16.0226 c -12.875733,-8.81244 -23.580695,-16.1467 -23.788805,-16.29837 -0.208109,-0.15167 3.450405,-2.6764 8.130032,-5.61052 l 8.508413,-5.33475 4.908443,-8.08017 4.908443,-8.08017 5.981345,-2.2843 5.98135,-2.28429 2.4809,2.24518 2.4809,2.24519 15.59137,-2.93546 15.59136,-2.93546 24.93567,8.45727 24.93568,8.45727 11.30557,-8.93975 c 6.21807,-4.91686 11.30558,-9.66871 11.30558,-10.55966 0,-0.89095 -9.6,-7.50024 -21.33334,-14.6873 -11.73333,-7.18706 -22.09761,-13.52728 -23.03172,-14.08937 -0.93411,-0.5621 -2.05584,-4.04016 -2.49274,-7.72902 l -0.79434,-6.70702 1.82607,-0.052 c 1.00433,-0.0286 6.32607,-0.69049 11.82607,-1.47092 l 10,-1.41897 6.66666,1.21489 6.66667,1.2149 30.93415,15.30593 30.93414,15.30593 19.06586,12.44961 c 10.48622,6.84729 22.36585,14.32742 26.39919,16.62253 4.03333,2.29511 13.93333,6.29655 22,8.8921 8.06666,2.59555 19.09772,5.40175 24.51346,6.23598 5.41574,0.83424 11.48468,1.18923 13.48653,0.78886 l 3.63973,-0.72795 2.83799,3.26397 c 1.56089,1.79519 3.41901,3.26398 4.12916,3.26398 0.71014,0 10.16411,3.66664 21.00882,8.1481 10.8447,4.48146 28.31777,11.98146 38.82904,16.66667 10.51127,4.68521 20.29107,8.51856 21.73288,8.51856 1.44182,0 4.54169,0.98944 6.8886,2.19875 2.34692,1.20931 9.36712,5.72681 15.60046,10.03888 6.23333,4.31207 13.73333,9.59357 16.66666,11.73665 2.93334,2.14309 7.13334,4.30554 9.33334,4.80543 2.2,0.4999 8.5,3.075 14,5.72243 5.5,2.64744 10.23127,4.94878 10.51394,5.11408 0.28267,0.16531 -0.494,1.83889 -1.72594,3.71906 -1.23194,1.88018 -5.40552,4.97107 -9.27461,6.86866 l -7.03472,3.45014 -63.23934,-28.31938 c -34.78163,-15.57566 -65.48934,-29.46003 -68.23934,-30.85414 l -5,-2.53476 v -3.05139 c 0,-1.67827 -0.81524,-4.16631 -1.81165,-5.52899 -0.99642,-1.36267 -16.74642,-9.19874 -35.00001,-17.41348 l -33.18834,-14.93589 -8.97504,4.49617 -8.97504,4.49617 -2.50842,4.9958 -2.50842,4.99581 -1.69404,13.04472 c -0.93172,7.1746 -1.46417,13.24224 -1.18321,13.48364 0.28096,0.24141 7.44414,5.54408 15.91817,11.78371 l 15.40734,11.34478 43.926,20.8264 43.926,20.82641 -10.66667,0.0118 -10.66667,0.0118 -51.96082,-22.66667 C 306.79407,262.2 282.45231,252 281.27971,252 h -2.13198 l -6.92031,15 c -3.80617,8.25 -6.91441,15.44246 -6.9072,15.98324 0.007,0.54078 4.21345,3.09849 9.34718,5.68379 l 9.33406,4.70056 10.82852,21.64954 c 5.95568,11.90724 11.48798,22.06691 12.29399,22.57704 0.80601,0.51013 1.18285,1.1565 0.83742,1.43639 -0.34542,0.27988 -4.59723,1.2125 -9.44844,2.07249 -4.85122,0.85999 -9.65122,1.51668 -10.66667,1.45931 -1.01545,-0.0574 -26.67399,-8.43508 -57.01897,-18.61714 z m 251.83937,-11.96784 -19.33333,-8.88732 -14.66667,-2.38426 c -8.06667,-1.31135 -17.66667,-2.51583 -21.33333,-2.67663 l -6.66667,-0.29236 -49.02802,-23.42782 -49.02801,-23.42781 -14.088,-10.44059 L 294.43466,230 l 0.83752,-8 c 0.46063,-4.4 1.72905,-11.14811 2.8187,-14.99579 l 1.98118,-6.9958 6.58631,-3.33754 c 3.62248,-1.83564 7.45364,-3.33754 8.5137,-3.33754 1.06006,0 14.43,5.62676 29.71099,12.50392 15.28099,6.87715 29.36178,13.24072 31.29065,14.14128 l 3.50702,1.63737 1.15964,5.42094 1.15964,5.42093 57.33334,25.70155 c 31.53333,14.13585 62.09067,27.83798 67.90519,30.44918 l 10.57187,4.74764 -3.42518,3.65526 c -1.88384,2.0104 -4.76316,6.32246 -6.39849,9.58236 -1.63532,3.25991 -3.65133,7.80447 -4.48002,10.09902 l -1.50671,4.17192 z m 105.33334,-5.92171 c -4.03334,-0.86261 -14.23334,-4.74837 -22.66667,-8.63501 -8.43333,-3.88665 -17.65089,-8.24295 -20.48345,-9.68066 l -5.15012,-2.61403 3.7329,-3.89632 c 2.0531,-2.14297 4.97066,-3.88323 6.48346,-3.86722 1.5128,0.016 12.03462,4.666 23.38182,10.33333 L 593.92923,298 l 0.93332,4.65763 c 0.51333,2.5617 0.82925,4.7271 0.70206,4.81202 -0.12719,0.0849 -3.53126,-0.55138 -7.56459,-1.41398 z M 26.666667,224.90793 v -19.6254 l 3.666667,0.86952 c 2.016667,0.47824 5.577034,1.6425 7.911928,2.58724 l 4.24526,1.71771 -6.543405,15.66964 c -3.598874,8.61831 -7.159241,16.28548 -7.911928,17.03817 l -1.368522,1.36852 z M 41.32173,204.46481 c -2.560284,-1.08069 -6.755062,-2.40438 -9.321729,-2.94154 l -4.666667,-0.97665 0.460736,-58.60664 c 0.253405,-32.23366 0.853405,-58.977932 1.333333,-59.431725 0.479929,-0.453793 4.772598,-0.355531 9.539265,0.218361 4.766667,0.573891 14.066667,2.241951 20.666667,3.706798 6.6,1.464847 19.142363,5.457894 27.871918,8.873438 8.729555,3.415544 22.395947,9.481998 30.369747,13.481018 l 14.49784,7.27093 3.33083,-3.59403 3.33083,-3.59402 7.63275,3.1422 c 4.19802,1.72822 10.14077,4.24181 13.20612,5.58575 l 5.57336,2.44354 0.82416,7.64555 c 0.45328,4.20505 1.29862,8.52646 1.87853,9.60313 0.57991,1.07668 9.70102,7.25648 20.26915,13.73289 10.56812,6.47642 20.11477,12.32559 21.21477,12.99816 l 2,1.22286 -4,3.34362 c -2.2,1.83899 -6.12785,4.85585 -8.72856,6.70414 l -4.72857,3.36053 -23.9381,-8.04791 L 146,162.55729 l -14.61026,2.69361 -14.61027,2.69361 -3.02382,-2.84073 -3.02382,-2.84074 -8.99715,4.53515 -8.997159,4.53514 -4.702093,7.65001 -4.702092,7.65 -8.397649,5.36249 -8.397648,5.36249 -2.514697,-1.34583 c -1.383083,-0.7402 -3.179846,-1.34582 -3.992806,-1.34582 -0.812961,0 -4.307628,2.64668 -7.765927,5.88151 l -6.287816,5.88152 z M 341.33334,186 c 0,-0.36667 0.3,-0.66667 0.66667,-0.66667 0.36667,0 0.66667,0.3 0.66667,0.66667 0,0.36667 -0.3,0.66667 -0.66667,0.66667 -0.36667,0 -0.66667,-0.3 -0.66667,-0.66667 z m -10.66666,-3.19981 c -4.03334,-1.31435 -11.13347,-4.64021 -15.77807,-7.39079 -4.64461,-2.75058 -15.53955,-9.70588 -24.21098,-15.45622 l -15.76623,-10.45516 -30.4557,-15.3032 -30.45569,-15.3032 3.9448,-0.9935 3.94481,-0.99349 14.72186,5.03053 c 8.09702,2.7668 21.32186,8.0572 29.38853,11.75645 8.06666,3.69926 16.16666,7.76334 18,9.0313 1.83333,1.26796 5.43333,3.18663 8,4.26372 2.56666,1.07709 7.50483,4.13273 10.9737,6.79031 3.46887,2.65758 8.41887,5.71434 11,6.79281 2.58113,1.07846 4.69297,2.56983 4.69297,3.31415 0,0.74431 1.96648,2.72493 4.36995,4.40137 2.40348,1.67643 7.28558,6.19806 10.84912,10.04806 3.56355,3.85 5.94707,6.96774 5.29672,6.9283 -0.65036,-0.0394 -4.48246,-1.14708 -8.51579,-2.46144 z"
       id="path29" /></g></svg>
