<?xml version="1.0" encoding="UTF-8" standalone="no"?>
<svg
   style="height: 512px; width: 512px;"
   viewBox="0 0 512 512"
   version="1.1"
   id="svg3"
   sodipodi:docname="sandevistanalt.svg"
   inkscape:version="1.3.2 (091e20e, 2023-11-25, custom)"
   xml:space="preserve"
   xmlns:inkscape="http://www.inkscape.org/namespaces/inkscape"
   xmlns:sodipodi="http://sodipodi.sourceforge.net/DTD/sodipodi-0.dtd"
   xmlns="http://www.w3.org/2000/svg"
   xmlns:svg="http://www.w3.org/2000/svg"><sodipodi:namedview
     id="namedview3"
     pagecolor="#505050"
     bordercolor="#eeeeee"
     borderopacity="1"
     inkscape:showpageshadow="0"
     inkscape:pageopacity="0"
     inkscape:pagecheckerboard="0"
     inkscape:deskcolor="#505050"
     inkscape:zoom="1.1338568"
     inkscape:cx="210.34403"
     inkscape:cy="246.5038"
     inkscape:window-width="1920"
     inkscape:window-height="1017"
     inkscape:window-x="-8"
     inkscape:window-y="-8"
     inkscape:window-maximized="1"
     inkscape:current-layer="svg3" /><defs
     id="defs2"><filter
       id="shadow-1"
       height="1.161164"
       width="1.1535856"
       x="-0.076792785"
       y="-0.080581981"><feFlood
         flood-color="rgba(58, 63, 94, 1)"
         result="flood"
         id="feFlood1" /><feComposite
         in="flood"
         in2="SourceGraphic"
         operator="atop"
         result="composite"
         id="feComposite1" /><feGaussianBlur
         in="composite"
         stdDeviation="15"
         result="blur"
         id="feGaussianBlur1" /><feOffset
         dx="0"
         dy="0"
         result="offset"
         id="feOffset1" /><feComposite
         in="SourceGraphic"
         in2="offset"
         operator="over"
         id="feComposite2" /></filter><filter
       style="color-interpolation-filters:sRGB;"
       inkscape:label="Drop Shadow"
       id="filter4"
       x="-0.076792785"
       y="-0.080581981"
       width="1.1535856"
       height="1.161164"><feFlood
         result="flood"
         in="SourceGraphic"
         flood-opacity="1.000000"
         flood-color="rgb(58,63,94)"
         id="feFlood3" /><feGaussianBlur
         result="blur"
         in="SourceGraphic"
         stdDeviation="15.000000"
         id="feGaussianBlur3" /><feOffset
         result="offset"
         in="blur"
         dx="0.000000"
         dy="0.000000"
         id="feOffset3" /><feComposite
         result="comp1"
         operator="out"
         in="flood"
         in2="offset"
         id="feComposite3" /><feComposite
         result="comp2"
         operator="atop"
         in="comp1"
         in2="SourceGraphic"
         id="feComposite4" /></filter><filter
       style="color-interpolation-filters:sRGB;"
       inkscape:label="Drop Shadow"
       id="filter14"
       x="-0.026908938"
       y="-0.026124475"
       width="1.0538179"
       height="1.0522489"><feFlood
         result="flood"
         in="SourceGraphic"
         flood-opacity="1.000000"
         flood-color="rgb(58,63,94)"
         id="feFlood13" /><feGaussianBlur
         result="blur"
         in="SourceGraphic"
         stdDeviation="5.000000"
         id="feGaussianBlur13" /><feOffset
         result="offset"
         in="blur"
         dx="0.000000"
         dy="0.000000"
         id="feOffset13" /><feComposite
         result="comp1"
         operator="out"
         in="flood"
         in2="offset"
         id="feComposite13" /><feComposite
         result="comp2"
         operator="atop"
         in="comp1"
         in2="SourceGraphic"
         id="feComposite14" /></filter></defs><path
     d="M0 0h512v512H0z"
     fill="#1b1f21"
     fill-opacity="1"
     id="path2" /><path
     style="fill:#e64539;fill-opacity:1;filter:url(#filter14)"
     d="m 430.63228,479.87137 c -1.75123,-0.76116 -3.18404,-1.11061 -3.18404,-0.77656 0,1.00936 -13.81464,-20.42827 -14.75063,-22.89012 -0.92464,-2.43199 -0.3136,-5.24354 1.13959,-5.24354 0.48118,0 0.89296,0.33065 0.91506,0.73477 0.0221,0.40413 1.77403,2.65216 3.89318,4.99563 l 3.853,4.26085 5.0701,-1.29943 5.07011,-1.29943 5.24066,5.85592 c 2.88236,3.22076 5.24145,6.23314 5.24243,6.6942 0.003,1.64949 -4.73727,6.49786 -5.15226,5.26921 -0.22459,-0.66493 -1.15204,0.22385 -2.06099,1.97507 -0.90895,1.75122 -1.75154,3.16678 -1.87241,3.14569 -0.12087,-0.0211 -1.65258,-0.66111 -3.4038,-1.42226 z m 10.23068,-17.2885 -5.40701,-6.07004 2.96306,-3.68713 2.96306,-3.68712 -6.47707,-6.05898 c -6.03275,-5.64334 -7.60357,-7.79372 -5.6932,-7.79372 0.43112,0 3.51941,2.20433 6.86286,4.89852 6.6572,5.36443 7.53139,5.65212 10.10304,3.32481 1.62033,-1.46638 2.13764,-1.22274 7.58522,3.57241 4.29254,3.77846 5.6735,5.58921 5.19614,6.81333 -0.35757,0.91696 -3.3589,4.61262 -6.66961,8.21258 l -6.01947,6.54537 z m -22.0774,-8.73967 c -1.80087,-2.0955 -3.12347,-4.19948 -2.93911,-4.67549 0.61131,-1.57844 9.43633,-10.94272 10.31256,-10.94272 0.47339,0 3.39854,2.56459 6.50033,5.69908 l 5.63962,5.69909 -1.96975,2.50413 c -2.44598,3.10956 -7.78524,5.71859 -11.4783,5.60886 -1.96955,-0.0585 -3.75478,-1.20434 -6.06535,-3.89295 z m 10.43775,-5.09764 c 0.21896,-1.13699 -0.293,-1.70323 -1.53995,-1.70323 -2.39853,0 -3.17774,0.81031 -2.49361,2.59314 0.72738,1.89551 3.62004,1.25731 4.03356,-0.88991 z m 26.60508,-4.26197 c -5.82601,-6.06719 -6.07002,-6.51905 -5.56274,-10.30108 0.42943,-3.20165 0.14781,-4.26704 -1.47759,-5.58984 -6.31563,-5.13985 -7.10047,-5.98171 -5.60471,-6.01199 0.84116,-0.017 5.95888,3.67959 11.37269,8.2147 7.75421,6.49565 9.97933,8.9258 10.48423,11.4503 0.35251,1.76254 0.229,3.61656 -0.27447,4.12002 -0.50346,0.50347 -0.70407,1.46608 -0.44579,2.13914 0.25828,0.67307 -0.17569,1.47137 -0.96436,1.77402 -0.90991,0.34916 -3.66079,-1.76875 -7.52726,-5.79527 z m -47.97424,2.49706 c -6.024,-4.968 -18.28613,-11.75139 -26.45201,-14.63321 -1.88593,-0.66556 -4.8182,-1.81972 -6.51614,-2.5648 -1.69795,-0.74508 -4.02666,-1.35469 -5.17492,-1.35469 -1.14825,0 -3.61661,-0.63881 -5.48523,-1.41957 -1.86863,-0.78076 -3.3975,-1.23254 -3.3975,-1.00395 0,0.22859 -1.21238,-0.0596 -2.69419,-0.64036 -1.4818,-0.58079 -5.7796,-1.92438 -9.55066,-2.98577 -19.93871,-5.61188 -35.90197,-18.32115 -41.62304,-33.13852 -0.72817,-1.88593 -1.63413,-3.86983 -2.01326,-4.40867 -1.64961,-2.34453 -3.81771,-16.67367 -4.29885,-28.41142 -0.69472,-16.94819 -2.07269,-22.33124 -9.51228,-37.15981 -4.93581,-9.83805 -12.41486,-19.90565 -20.83603,-28.04754 l -6.46309,-6.24876 5.03606,-5.0994 5.03605,-5.0994 -4.54586,-7.75401 c -2.50023,-4.26471 -4.54587,-8.19802 -4.54587,-8.7407 0,-1.23746 3.24326,-4.22948 4.58464,-4.22948 0.55076,0 3.91324,2.20434 7.47218,4.89853 3.55894,2.69418 7.02041,4.89852 7.69217,4.89852 0.67176,0 2.60846,-1.34442 4.30379,-2.9876 l 3.08242,-2.9876 7.07987,7.3015 c 9.37161,9.66499 14.6168,17.02521 20.52962,28.80789 6.64336,13.23844 7.96223,19.05565 8.92673,39.37361 0.91485,19.27192 2.18055,25.21576 7.38622,34.6863 6.37922,11.60558 18.67904,21.38353 31.32146,24.89955 2.15535,0.59943 6.20195,1.77621 8.99244,2.61506 2.7905,0.83886 6.75216,1.7401 8.80371,2.00276 3.38837,0.43382 9.95335,2.32391 15.80481,4.55028 1.23774,0.47094 2.86229,0.85625 3.61012,0.85625 0.74782,0 2.60076,0.51414 4.11764,1.14253 1.51688,0.6284 2.9784,1.17973 3.24782,1.22519 4.46667,0.7536 25.46289,13.36288 25.42165,15.26695 -0.006,0.26942 -6.05875,6.77194 -13.45091,14.45005 l -13.4403,13.9602 z m -89.58881,-94.04974 c 1.11283,-1.22966 1.4467,-2.28315 0.85384,-2.69419 -1.12831,-0.78228 -1.25901,-6.52871 -0.17319,-7.61453 0.40413,-0.40413 0.73478,-1.40909 0.73478,-2.23324 0,-0.99399 -1.16742,-0.36695 -3.46771,1.86258 -3.15913,3.06195 -3.31883,3.4699 -1.79465,4.5844 1.39911,1.02306 1.48566,1.63464 0.52859,3.73518 -0.62945,1.38149 -1.14445,2.93193 -1.14445,3.44541 0,1.63183 2.56913,1.00687 4.46279,-1.08561 z m 0.4321,-15.12174 c 3.4489,-3.67119 1.40519,-4.30685 -2.21327,-0.6884 -2.14697,2.14697 -2.65362,3.1338 -1.60893,3.1338 0.83868,0 2.55867,-1.10043 3.8222,-2.4454 z m 2.94274,-7.95937 c 0,-0.15388 -0.51163,-1.40269 -1.13696,-2.77514 -1.35123,-2.96562 -3.23419,-3.3512 -2.49124,-0.51014 0.32624,1.24753 -0.3594,3.02932 -1.84514,4.79502 -3.65873,4.34816 -2.79495,5.41463 1.55452,1.9193 2.15535,-1.73209 3.91882,-3.27515 3.91882,-3.42904 z m -6.37787,-6.23999 c 1.54333,-1.61089 2.50295,-3.232 2.13248,-3.60246 -0.7166,-0.71661 -6.53136,4.38912 -6.53136,5.73495 0,1.54944 1.62705,0.76068 4.39888,-2.13249 z m -1.02205,-9.69611 c -0.2147,-0.2147 -1.09812,0.19702 -1.96315,0.91493 -1.28487,1.06635 -1.94042,1.0757 -3.58106,0.0511 -1.88725,-1.17861 -1.96627,-1.08683 -1.31124,1.52302 1.3161,5.24374 2.57293,5.64397 5.01533,1.59708 1.22677,-2.03267 2.05483,-3.87144 1.84012,-4.08614 z m -3.44793,-3.67223 c 2.4447,-3.10795 2.52905,-4.56432 0.44828,-7.73999 -1.72007,-2.62515 -3.89484,-3.32645 -2.93125,-0.94523 2.04295,5.04859 2.03711,4.97651 0.28824,3.55393 -1.45878,-1.18662 -1.65298,-1.08754 -1.65298,0.84331 v 2.18791 l -1.92682,-2.31287 c -2.37836,-2.85489 -2.54814,-1.09632 -0.34099,3.53212 1.97121,4.13366 3.39547,4.3388 6.11552,0.88082 z m -6.61904,-9.81677 c 2.31926,-2.0989 2.27451,-4.49584 -0.12447,-6.66688 -1.87411,-1.69605 -1.9035,-1.65644 -1.34137,1.80756 0.63746,3.92822 0.23688,4.29989 -2.10758,1.95542 -2.27467,-2.27467 -3.032,-0.88305 -1.11316,2.04547 1.91542,2.92329 2.32254,2.99786 4.68658,0.85843 z m -4.39467,-7.36671 c 2.85894,-2.68584 2.8789,-3.78967 0.0631,-3.49157 -1.8039,0.19098 -2.14536,-0.18651 -1.87968,-2.07805 0.34394,-2.4488 -0.55842,-2.30146 -3.99854,0.65288 -2.35414,2.02171 -2.15335,3.39943 0.37833,2.59591 1.86247,-0.59112 2.02216,-0.38273 1.45089,1.89339 -0.8021,3.1958 0.85043,3.37302 3.98586,0.42744 z m 136.97681,145.04376 c -2.69419,-2.18467 -5.02145,-4.49182 -5.17169,-5.12701 -0.15023,-0.63518 1.49673,-2.88313 3.65994,-4.99544 l 3.93309,-3.84056 4.1777,3.01786 c 3.42729,2.47578 4.23312,3.66636 4.48623,6.62816 0.35336,4.1348 -1.93732,8.37693 -4.49485,8.32409 -0.93055,-0.0192 -3.89624,-1.82242 -6.59042,-4.0071 z m 7.67458,-4.2138 c 0.74706,-1.94681 -2.02298,-4.1557 -3.43752,-2.74116 -1.35282,1.35282 -0.33931,4.13909 1.5056,4.13909 0.76752,0 1.63688,-0.62907 1.93192,-1.39793 z M 183.99173,289.36292 c -13.01309,-4.72212 -15.72843,-6.04157 -15.98833,-7.76909 -0.1847,-1.22772 0.21666,-2.08093 0.97891,-2.08093 3.06051,0 34.11366,11.04333 34.11366,12.13173 0,1.24309 -1.95519,3.59393 -2.89013,3.47499 -0.29636,-0.0377 -7.59271,-2.62821 -16.21411,-5.7567 z m 2.20434,-6.73131 c -17.86984,-6.01622 -17.387,-5.61638 -15.46003,-12.80208 0.52251,-1.94845 3.8899,-15.80049 7.48308,-30.78232 4.14524,-17.28358 6.93122,-27.09729 7.6224,-26.85008 0.59913,0.21429 9.79645,3.38426 20.43849,7.04439 10.75525,3.69907 19.34915,7.17898 19.34915,7.83501 0,0.64913 -3.51741,11.05961 -7.81648,23.13441 -12.43426,34.92418 -13.42433,37.53011 -14.33979,37.74343 -0.47672,0.1111 -8.2513,-2.28415 -17.27682,-5.32276 z m 14.13657,-20.83239 c 1.99131,-6.15317 3.64811,-11.65816 3.68179,-12.2333 0.0552,-0.94303 -10.58725,-4.94445 -11.10398,-4.17494 -1.21112,1.80359 -7.57184,23.54907 -7.04298,24.07793 1.0687,1.06869 8.7676,3.98093 9.87281,3.73454 0.5345,-0.11915 2.60106,-5.25105 4.59236,-11.40423 z m 49.78913,23.59191 c -3.98576,-2.18211 -7.90994,-2.37389 -17.96718,-0.87806 -8.40599,1.25023 -11.88397,0.17 -17.00911,-5.28292 l -2.95709,-3.14621 9.06461,-25.47231 c 6.76937,-19.02249 8.78112,-25.74914 7.94502,-26.5656 -1.71818,-1.67782 -45.95155,-16.1985 -46.72447,-15.33845 -0.37391,0.41606 -3.92574,14.16993 -7.89296,30.56415 -6.26669,25.8966 -7.60078,30.29272 -10.16759,33.50431 -1.62495,2.03314 -3.45156,3.71937 -4.05913,3.74719 -0.60757,0.0278 -1.6535,0.71186 -2.3243,1.52012 -1.66001,2.0002 -3.648,1.84675 -4.83613,-0.37328 -0.83542,-1.561 0.26151,-3.09679 7.17243,-10.04197 5.5199,-5.54726 8.34298,-9.17003 8.72849,-11.201 0.55053,-2.90029 0.38955,-3.06314 -4.75764,-4.81272 -5.51957,-1.87616 -5.9785,-2.59176 -4.37199,-6.8172 0.668,-1.75697 1.68005,-2.51304 3.36389,-2.51304 6.04202,0 1.82103,-9.97151 -8.91633,-21.06364 -3.51913,-3.6354 -6.25351,-8.14874 -10.60425,-17.50325 -4.88075,-10.49407 -6.6234,-13.24193 -10.40704,-16.41005 -4.21613,-3.53025 -4.9951,-3.80807 -10.77674,-3.84343 l -6.23212,-0.0381 -6.613,-7.51988 c -3.63715,-4.13594 -6.613,-8.34918 -6.613,-9.36276 0,-1.01358 0.80876,-3.0131 1.79726,-4.44338 0.9885,-1.43027 4.92809,-8.57193 8.75465,-15.87034 l 6.95738,-13.26985 -2.45021,-3.13078 c -2.68509,-3.43091 -2.74916,-3.18527 2.80963,-10.77192 l 3.79032,-5.17305 2.52861,1.98901 c 3.55135,2.79349 5.34837,2.48222 7.97981,-1.38222 1.25755,-1.84681 4.6757,-5.61748 7.59588,-8.37926 4.66593,-4.41285 5.17803,-5.26691 4.22538,-7.046957 -0.83328,-1.557007 -0.77736,-2.22533 0.24175,-2.889302 2.51311,-1.637337 5.89107,-2.073698 8.01427,-1.035274 1.17087,0.572653 4.55362,1.009676 7.51722,0.971161 6.68504,-0.08688 24.74701,1.140808 29.4887,2.004369 2.57327,0.468646 4.62568,1.916293 7.59271,5.355433 4.32157,5.00923 4.61782,5.95463 3.10924,9.92249 -1.64774,4.33389 0.74802,7.15233 16.10607,18.9476 8.10251,6.22288 17.52854,14.32816 20.94673,18.01173 6.1505,6.62802 6.26787,6.69741 11.33007,6.69741 4.90969,0 5.18284,-0.14189 6.79937,-3.53178 1.60291,-3.36133 1.85952,-3.49888 5.31744,-2.85017 5.17083,0.97005 5.37729,1.23614 4.66172,6.00793 l -0.64375,4.29283 h 4.29792 c 3.36012,0 4.81617,-0.55377 6.67303,-2.53793 1.30631,-1.39586 5.10413,-4.4487 8.43958,-6.78409 5.07705,-3.55481 6.25139,-4.02095 7.21246,-2.86292 1.71517,2.06664 0.68203,3.66591 -5.9147,9.15576 l -5.99439,4.98859 -16.84904,0.14242 c -9.26697,0.0783 -18.17164,0.0725 -19.78815,-0.013 -5.8649,-0.31007 -5.8778,-0.13056 -1.50773,20.9878 2.21295,10.69406 4.23296,19.65316 4.48891,19.90911 0.25596,0.25596 7.40508,-0.0704 15.88693,-0.72527 l 15.42154,-1.19066 5.07155,5.50674 c 3.08603,3.35083 6.0008,7.82929 7.44509,11.43917 l 2.37353,5.93244 -2.3015,7.459 c -2.69509,8.73457 -2.83691,11.62955 -0.80765,16.48626 l 1.49413,3.57596 -3.65236,3.74036 c -2.00881,2.0572 -4.15845,3.74036 -4.77699,3.74036 -0.61855,0 -4.03649,-2.20433 -7.59542,-4.89852 -3.55894,-2.69419 -7.09493,-4.89852 -7.85774,-4.89852 -0.76282,0 -3.25481,1.65758 -5.53775,3.68351 l -4.1508,3.68352 5.0288,8.31786 5.0288,8.31786 -6.93178,6.613 c -3.81247,3.63716 -7.46056,6.59453 -8.10685,6.57194 -0.64629,-0.0226 -2.71811,-0.88584 -4.60404,-1.91834 z m 2.44926,-19.59408 c -0.474,-0.76696 -1.03757,-0.82387 -1.69071,-0.17073 -0.53884,0.53883 -0.65975,1.4974 -0.2687,2.13013 0.47401,0.76696 1.03758,0.82387 1.69071,0.17073 0.53884,-0.53884 0.65975,-1.4974 0.2687,-2.13013 z m -11.49111,-16.83867 c -0.60553,-1.81659 -2.7146,-2.11789 -2.7146,-0.3878 0,0.85316 0.69804,1.5512 1.5512,1.5512 0.85316,0 1.37669,-0.52353 1.1634,-1.1634 z m 46.08284,-11.64624 c -0.19309,-0.57925 -0.76989,-1.05318 -1.28178,-1.05318 -0.5119,0 -1.0887,0.47393 -1.28178,1.05318 -0.19309,0.57925 0.38371,1.05319 1.28178,1.05319 0.89806,0 1.47486,-0.47394 1.28178,-1.05319 z m -30.65495,-6.88226 c 2.68431,-2.20914 5.02336,-4.63527 5.1979,-5.3914 0.32481,-1.4071 -25.93703,-29.78014 -27.56424,-29.78014 -1.66769,0 -12.37374,8.31527 -12.40257,9.63294 -0.04,1.82849 26.58243,29.51684 28.40083,29.53796 0.81813,0.01 3.68377,-1.79021 6.36808,-3.99936 z m 19.08627,-11.16879 c 0,-0.80825 -0.6613,-1.46955 -1.46956,-1.46955 -0.80825,0 -1.46955,0.6613 -1.46955,1.46955 0,0.80826 0.6613,1.46956 1.46955,1.46956 0.80826,0 1.46956,-0.6613 1.46956,-1.46956 z m -98.51272,-12.57665 c 0.98539,-0.72054 1.62074,-1.76011 1.41188,-2.31018 -0.20885,-0.55006 -6.91512,-6.64717 -14.90281,-13.54915 -13.46842,-11.63773 -14.71347,-12.48208 -17.14482,-11.62702 -1.44196,0.50711 -2.62175,1.43989 -2.62175,2.07285 0,1.18204 29.35188,26.72356 30.71027,26.72356 0.41559,0 1.56184,-0.58953 2.54723,-1.31006 z m 43.09763,-11.1088 c 8.9248,-6.83036 16.22203,-12.89228 16.21605,-13.47093 -0.0124,-1.2023 -31.16263,-38.24177 -34.66599,-41.21995 -1.26772,-1.07768 -2.83353,-3.60652 -3.4796,-5.61966 -0.64606,-2.01313 -1.58336,-3.91284 -2.08289,-4.22156 -0.49952,-0.30872 -0.94496,-2.62942 -0.98985,-5.15709 -0.0704,-3.96115 -0.85497,-5.67807 -5.68195,-12.43341 l -5.60033,-7.83764 h -13.17736 c -12.00335,0 -13.61377,0.21408 -18.07587,2.40287 -6.42255,3.15044 -12.96111,9.95784 -17.05933,17.76072 -1.81653,3.45864 -3.81079,6.94973 -4.43168,7.75798 -0.62089,0.80826 -2.37004,5.39141 -3.887,10.18479 l -2.75811,8.71522 7.10824,6.80491 c 7.05277,6.75181 7.14152,6.79991 11.37484,6.16509 3.75746,-0.56347 4.77646,-0.27368 8.53906,2.42842 2.34984,1.68753 5.87561,3.61938 7.83504,4.293 3.06868,1.05496 34.47171,27.46126 40.24763,33.84358 1.00669,1.11238 2.39551,2.02252 3.08626,2.02252 0.69075,0 8.55803,-5.58849 17.48284,-12.41886 z m -33.67654,-5.938 -16.10367,-14.36849 2.75333,-1.12542 2.75332,-1.12542 -3.18216,-0.63644 c -1.7502,-0.35004 -4.55988,-0.64074 -6.24375,-0.646 -4.17161,-0.013 -12.21403,-3.90524 -16.10102,-7.79223 -10.76517,-10.76517 -10.41714,-27.48938 0.78157,-37.55799 11.90586,-10.70439 30.19604,-9.61222 40.49217,2.41795 3.28877,3.84264 4.30877,6.2609 7.36854,17.46953 0.71147,2.60631 0.96004,2.88053 1.03606,1.14299 0.055,-1.25729 0.52817,-2.13902 1.05147,-1.95941 1.89264,0.64961 31.49307,36.36097 30.71146,37.05176 -2.82107,2.49328 -27.17889,20.79959 -28.09221,21.11293 -0.61679,0.2116 -8.36809,-6.08109 -17.22511,-13.98376 z m -9.18852,-30.57296 c 11.55397,-5.24567 12.94387,-22.03629 2.41165,-29.13395 -3.3564,-2.26188 -12.25898,-3.86552 -16.10314,-2.9007 -3.59138,0.90138 -8.77006,4.7796 -11.20285,8.38962 -3.98396,5.91179 -2.75192,16.23282 2.50572,20.99091 5.01761,4.54088 15.49671,5.78315 22.38862,2.65412 z m -18.27525,-2.28845 c -3.10008,-1.56866 -6.88733,-7.17178 -6.88733,-10.1896 0,-3.1547 2.25541,-8.27829 4.51838,-10.26433 1.01733,-0.89284 3.69266,-2.11394 5.94518,-2.71357 3.34589,-0.89068 4.82178,-0.79961 8.06374,0.49756 10.87847,4.3527 10.32481,19.8437 -0.81988,22.93961 -4.65952,1.29438 -7.88814,1.21392 -10.82009,-0.26967 z m 10.50228,-6.17621 c -0.93361,-0.93361 -2.80537,0.57862 -2.1096,1.70439 0.41355,0.66915 0.96154,0.65224 1.66515,-0.0514 0.57681,-0.57681 0.77681,-1.32067 0.44445,-1.65303 z m 3.62322,-5.22438 c 0.83916,-1.35779 -1.18248,-5.93127 -2.91585,-6.59643 -2.46343,-0.94531 -2.79057,0.32916 -1.03445,4.02992 1.63822,3.45228 2.89729,4.2703 3.9503,2.56651 z m -39.02932,11.69053 -5.95712,-5.75771 3.75683,-11.32021 c 6.11943,-18.43926 15.11295,-29.10033 26.86183,-31.84248 2.96685,-0.69245 7.95018,-0.81238 13.9184,-0.33495 l 9.29685,0.7437 4.66394,6.79434 c 5.73813,8.35923 6.01202,10.28842 0.99004,6.97352 -12.80703,-8.45365 -28.50085,-6.92074 -39.03516,3.8128 -7.74153,7.88794 -10.31001,18.86811 -6.65862,28.46544 2.62931,6.9109 2.63465,7.04268 0.30998,7.6506 -1.7295,0.45227 -3.44214,-0.63772 -8.14697,-5.18505 z m 94.39436,6.39885 c 0.64931,-0.78237 1.03394,-2.00721 0.85474,-2.72187 -0.17921,-0.71465 -4.94594,-7.76643 -10.59273,-15.67061 -9.63678,-13.48921 -10.37336,-14.2749 -12.00138,-12.80156 -0.95396,0.86332 -1.73447,2.14356 -1.73447,2.84498 0,1.40864 20.62808,29.77155 21.65256,29.77155 0.3524,0 1.17197,-0.64012 1.82128,-1.42249 z m 59.48074,41.76736 c -1.45545,-1.51916 -2.34619,-3.06219 -1.97942,-3.42896 0.36677,-0.36677 4.6714,-0.65557 9.56584,-0.64178 l 8.89898,0.0251 -5.34298,3.40389 c -2.93864,1.87214 -6.05244,3.40389 -6.91956,3.40389 -0.86712,0 -2.76741,-1.24295 -4.22286,-2.76212 z m -37.35607,-6.7246 c -1.73858,-6.9249 -6.37379,-31.04428 -6.03176,-31.38632 0.66068,-0.66067 54.21095,-1.05015 55.23204,-0.40171 1.38925,0.88223 7.44869,28.58705 6.45122,29.49608 -0.45668,0.4162 -11.41114,1.48782 -24.34323,2.38139 -12.9321,0.89357 -25.11097,1.85991 -27.06417,2.14741 -3.25579,0.47924 -3.60892,0.29312 -4.2441,-2.23685 z m 45.35512,-11.58135 c 0.21369,-0.21369 0.003,-2.50445 -0.46903,-5.09057 l -0.85755,-4.70205 -11.80411,-0.27356 -11.80411,-0.27356 0.99861,6.03819 0.99862,6.03819 11.27452,-0.67406 c 6.20099,-0.37073 11.44936,-0.84889 11.66305,-1.06258 z M 95.197146,135.97596 C 84.054499,120.10759 83.852747,119.72488 84.568044,115.81322 c 0.401026,-2.19304 1.133866,-4.39207 1.628534,-4.88674 0.871511,-0.87151 26.766602,27.42859 26.766602,29.25256 0,0.79584 -5.80336,11.97231 -6.2166,11.97231 -0.10516,0 -5.3024,-7.27892 -11.549434,-16.17539 z m 5.683644,-15.18152 c -8.248189,-9.46136 -14.060272,-15.35016 -14.850794,-15.0468 -0.714364,0.27412 -1.833561,1.78933 -2.487104,3.36712 -0.653544,1.5778 -1.384192,2.86872 -1.623663,2.86872 -1.700466,0 -4.225403,-2.36233 -4.225403,-3.95329 0,-1.25229 -0.664487,-1.92493 -1.90159,-1.92493 -2.979901,0 -3.305168,-1.67513 -1.194167,-6.149992 1.073366,-2.275299 2.240644,-7.443409 2.59395,-11.484689 0.938103,-10.730458 1.051739,-10.963899 5.164614,-10.609554 2.445182,0.210665 3.646815,-0.139948 3.965665,-1.157102 0.444055,-1.416564 1.294421,-2.324634 5.891914,-6.291725 l 2.194116,-1.893262 4.692627,4.622065 4.692625,4.622065 2.62539,-2.065132 c 3.28979,-2.587749 3.32566,-4.842317 0.12487,-7.849299 -2.69267,-2.529634 -2.6535,-5.184789 0.14019,-9.503961 1.247,-1.927906 2.25225,-2.203266 8.01622,-2.195819 3.62473,0.0047 8.85686,0.280829 11.62696,0.613655 4.59076,0.551579 5.35593,1.02395 8.64502,5.336883 1.98466,2.602458 4.56775,5.025472 5.7402,5.384475 1.17245,0.359003 2.75173,1.149859 3.50952,1.757458 1.11754,0.896052 0.85522,1.197254 -1.38873,1.594577 -1.52159,0.269419 -2.92091,0.954112 -3.10961,1.52154 -0.18869,0.567428 2.97123,4.900174 7.02204,9.628323 4.05081,4.72815 7.36511,8.755377 7.36511,8.949393 0,0.194017 -0.77152,0.297895 -1.71449,0.23084 -0.94296,-0.06705 -3.8086,0.68154 -6.36807,1.663545 -4.79491,1.839678 -5.98484,4.093328 -3.32628,6.299739 1.06882,0.887037 0.0245,2.446387 -5.36189,8.006507 l -6.68921,6.90492 -2.87246,-2.1237 c -1.57985,-1.16804 -3.35871,-1.82318 -3.95302,-1.45587 -1.50402,0.92953 -11.84187,15.01374 -11.84187,16.13327 0,0.5027 1.14684,2.27694 2.54853,3.94275 2.2861,2.71688 2.66423,6.04876 0.66626,5.87071 -0.42104,-0.0375 -6.8639,-7.06357 -14.31747,-15.61343 z m 10.9252,-7.64748 2.27177,-4.08096 -4.13962,-4.90934 c -2.27678,-2.70013 -4.72294,-4.909334 -5.4359,-4.909334 -1.69986,0 -5.536247,7.558304 -4.616804,9.095864 2.017834,3.37436 7.759834,9.49626 8.639774,9.21139 0.55495,-0.17966 2.0313,-2.16309 3.28078,-4.40762 z m 17.46633,-16.414485 c 2.34556,-1.922006 4.26465,-4.00637 4.26465,-4.631921 0,-1.616391 -14.86228,-16.36613 -16.49101,-16.36613 -2.03375,0 -8.9813,5.82731 -8.9813,7.533131 0,1.904179 13.7543,16.834265 15.57436,16.905735 0.75276,0.0296 3.28775,-1.51881 5.6333,-3.440815 z m -36.099168,0.359502 c 1.927588,-1.927588 1.346654,-4.649421 -1.518541,-7.114776 -1.944235,-1.672916 -3.035074,-2.035508 -3.918817,-1.302605 -1.734254,1.438246 -1.518254,5.685326 0.396768,7.801401 1.883828,2.081607 3.390805,2.265765 5.04059,0.61598 z m 48.446378,-8.672911 c 2.02064,-0.56116 3.67389,-1.529663 3.67389,-2.15223 0,-0.622567 -1.40909,-2.585745 -3.1313,-4.362619 -2.67563,-2.760552 -3.80775,-3.23068 -7.77982,-3.23068 -2.55668,0 -4.87161,0.360974 -5.14428,0.802164 -0.59655,0.965251 6.33354,9.863045 7.72791,9.922136 0.53884,0.02284 2.63296,-0.417612 4.6536,-0.978771 z m -9.5073,-20.594801 c 0.98763,-1.598005 -3.21817,-5.509651 -6.66521,-6.19906 -4.61881,-0.92376 -5.38821,0.781787 -1.91811,4.251888 3.01535,3.015352 7.31967,3.991809 8.58332,1.947172 z M 23.498594,113.14935 c -3.691326,-3.85292 -2.143063,-4.88506 6.496146,-4.33063 6.964575,0.44696 7.137424,0.39976 11.313432,-3.08919 2.33244,-1.9487 4.853434,-3.54309 5.602207,-3.54309 0.748774,0 2.80118,1.30968 4.560902,2.91039 l 3.199495,2.9104 -3.108871,0.0287 c -1.791175,0.0165 -4.282661,1.00514 -5.878225,2.33242 -1.523145,1.26704 -3.732322,2.81007 -4.909282,3.42897 -2.569901,1.35135 -8.076295,1.4497 -10.084,0.18011 -0.975424,-0.61682 -1.955964,-0.4547 -3.007948,0.49734 -1.377095,1.24625 -1.869453,1.09027 -4.183856,-1.32544 z m -1.860628,-8.80654 c 2.95643,-2.61306 3.082671,-2.95347 1.562722,-4.21402 -2.640185,-2.189586 -4.475227,-7.588124 -3.747533,-11.024921 0.656382,-3.099998 4.496043,-8.989848 7.200752,-11.045599 1.274594,-0.968772 1.249533,-1.309569 -0.203121,-2.762223 -1.266221,-1.266221 -1.418336,-2.103247 -0.644873,-3.548476 1.084234,-2.025909 3.384033,-2.510648 4.366849,-0.920419 0.37928,0.613688 1.88652,0.433445 4.096281,-0.489852 4.938322,-2.063363 7.572469,-1.824835 10.915875,0.988455 1.907442,1.605007 4.108482,2.449261 6.385426,2.449261 1.911055,0 3.771586,0.48046 4.134513,1.067688 0.393116,0.636074 1.969791,0.821945 3.900239,0.459791 3.479356,-0.652731 5.612376,0.88619 2.5677,1.852532 -1.396168,0.443127 -2.100757,2.199531 -2.953339,7.36211 -1.798241,10.888765 -1.632794,11.692714 3.473063,16.876513 l 4.592779,4.6629 -5.327557,-0.58968 c -4.096427,-0.45341 -6.050114,-1.27176 -8.454327,-3.54129 -2.720915,-2.568491 -3.644308,-2.882194 -7.113966,-2.416815 -2.517173,0.337624 -5.259878,1.652225 -7.439141,3.565645 -3.707267,3.25502 -6.864115,3.76482 -12.07168,1.94945 -2.520534,-0.87866 -3.604012,-0.7774 -5.779494,0.54013 -2.285281,1.38403 -2.206363,1.20518 0.538832,-1.22118 z M 39.560722,93.444462 c 3.214248,-3.214247 3.740099,-7.205557 1.391156,-10.559142 -4.730921,-6.754336 -16.162081,-3.52195 -16.162081,4.570147 0,8.176635 8.953154,11.806766 14.770925,5.988995 z m -9.382552,-0.26635 c -2.646218,-1.500576 -3.396202,-2.770403 -3.413963,-5.780321 -0.03153,-5.343553 7.703359,-7.863823 11.741449,-3.825733 2.734198,2.734198 2.48019,6.306069 -0.621974,8.746231 -2.893151,2.275753 -4.827856,2.491638 -7.705512,0.859823 z m 34.321086,4.9953 c -2.568659,-2.843198 -3.479159,-4.628144 -3.12342,-6.123151 0.27616,-1.160569 0.806077,-4.216506 1.177593,-6.790971 0.733328,-5.08168 2.345092,-6.59603 6.993429,-6.570751 5.063343,0.02754 5.411714,0.805733 4.306503,9.619962 -0.965865,7.702915 -3.140806,13.877939 -4.888032,13.877939 -0.462299,0 -2.472032,-1.80586 -4.466073,-4.013028 z m 87.781764,-14.84628 c -6.49942,-7.67975 -6.71905,-8.098287 -4.4069,-8.398138 2.54306,-0.329796 5.56486,1.826714 16.03368,11.442464 l 5.38837,4.949291 -5.08741,0.04447 -5.08742,0.04447 z M 100.80748,54.553627 c -0.33488,-0.872693 -0.0917,-4.090865 0.54051,-7.151494 1.54564,-7.48326 0.66778,-10.320574 -4.130344,-13.349495 -3.270836,-2.064788 -3.834541,-2.867034 -3.270308,-4.654197 1.630519,-5.164535 8.316162,-7.958254 17.626192,-7.365435 5.16096,0.328625 6.73996,0.863645 9.03329,3.06079 1.5285,1.464405 3.05866,2.383002 3.40033,2.041327 1.30461,-1.304608 5.17374,0.652924 6.34578,3.210557 1.49752,3.267896 1.60304,11.500539 0.18146,14.156794 -0.96472,1.802603 -1.90017,1.926688 -12.43955,1.650076 l -11.39638,-0.299105 -2.00431,5.143448 c -2.11599,5.430051 -2.89444,6.142424 -3.88667,3.556734 z m 17.47409,-22.48602 c 2.04795,-2.047948 1.94102,-3.671665 -0.38011,-5.772267 -2.38535,-2.158709 -9.81628,-3.089487 -12.63246,-1.58231 -3.5663,1.908625 -2.02593,6.42621 2.79566,8.199076 3.05161,1.122058 8.71879,0.653627 10.21691,-0.844499 z m -11.33301,-2.359379 c -1.98499,-1.664559 -2.10454,-2.08691 -0.84331,-2.979318 1.7904,-1.266831 8.35246,-0.605431 10.3374,1.041921 1.09602,0.909622 1.17576,1.520016 0.33147,2.537332 -1.63382,1.968629 -7.1653,1.630884 -9.82556,-0.599935 z m 1.3026,21.778517 c 0.2852,-1.480922 1.5277,-1.714483 9.12069,-1.714483 7.59299,0 8.83548,0.233561 9.12068,1.714483 0.29603,1.537173 -0.64722,1.714482 -9.12068,1.714482 -8.47347,0 -9.41672,-0.177309 -9.12069,-1.714482 z m -10.879041,-3.90567 c -0.04631,-0.666315 -1.626257,-1.855791 -3.510983,-2.64328 -2.091107,-0.87372 -3.850579,-2.501762 -4.514086,-4.176891 -0.598022,-1.509801 -1.480742,-3.510628 -1.9616,-4.446282 -1.263645,-2.458803 -1.073932,-8.973882 0.301359,-10.349173 2.584859,-2.584859 3.647793,-1.321159 3.0604,3.638448 l -0.570158,4.814092 4.029607,2.055752 c 4.454329,2.272429 5.574024,4.798232 4.158048,9.379704 -0.499609,1.616512 -0.946273,2.393946 -0.992587,1.72763 z"
     id="path4" /></svg>
