<?xml version="1.0" encoding="UTF-8" standalone="no"?>
<!-- Created with Inkscape (http://www.inkscape.org/) -->

<svg
   version="1.1"
   id="svg1"
   width="722.66669"
   height="696"
   viewBox="0 0 722.66669 696"
   sodipodi:docname="gorilla_arms_icon.png"
   inkscape:export-filename="..\..\..\Foundry VTT\Foundry Data\Data\Cyberpunk\Custom SVGs\Inkscape\davidsandevistan.svg"
   inkscape:export-xdpi="96"
   inkscape:export-ydpi="96"
   xml:space="preserve"
   xmlns:inkscape="http://www.inkscape.org/namespaces/inkscape"
   xmlns:sodipodi="http://sodipodi.sourceforge.net/DTD/sodipodi-0.dtd"
   xmlns="http://www.w3.org/2000/svg"
   xmlns:svg="http://www.w3.org/2000/svg"><defs
     id="defs1"><filter
       style="color-interpolation-filters:sRGB"
       inkscape:label="Drop Shadow"
       id="filter40"
       x="-0.067196905"
       y="-0.062860768"
       width="1.1343938"
       height="1.1257215"><feFlood
         result="flood"
         in="SourceGraphic"
         flood-opacity="1.000000"
         flood-color="rgb(58,63,94)"
         id="feFlood38" /><feGaussianBlur
         result="blur"
         in="SourceGraphic"
         stdDeviation="15.000000"
         id="feGaussianBlur38" /><feOffset
         result="offset"
         in="blur"
         dx="0.000000"
         dy="0.000000"
         id="feOffset38" /><feComposite
         result="comp1"
         operator="out"
         in="flood"
         in2="offset"
         id="feComposite39" /><feComposite
         result="comp2"
         operator="atop"
         in="comp1"
         in2="SourceGraphic"
         id="feComposite40" /></filter></defs><sodipodi:namedview
     id="namedview1"
     pagecolor="#1b1f21"
     bordercolor="#eeeeee"
     borderopacity="1"
     inkscape:showpageshadow="0"
     inkscape:pageopacity="0"
     inkscape:pagecheckerboard="0"
     inkscape:deskcolor="#505050"
     showgrid="false"
     inkscape:export-bgcolor="#1b1f21ff"
     inkscape:zoom="0.83410153"
     inkscape:cx="288.3342"
     inkscape:cy="279.94194"
     inkscape:window-width="1920"
     inkscape:window-height="1017"
     inkscape:window-x="-8"
     inkscape:window-y="-8"
     inkscape:window-maximized="1"
     inkscape:current-layer="g1" /><g
     inkscape:groupmode="layer"
     id="layer2"
     inkscape:label="Image 1"><rect
       style="fill:#1b1f21;fill-opacity:1"
       id="rect38"
       width="787.67389"
       height="767.29266"
       x="-33.569054"
       y="-32.370159" /></g><g
     inkscape:groupmode="layer"
     inkscape:label="Image"
     id="g1"><path
       style="fill:#e64539;fill-opacity:1;filter:url(#filter40)"
       d="m 158.66667,643.84845 c -4.76667,-3.6966 -9.17977,-7.63424 -9.8069,-8.75029 -0.62712,-1.11606 -0.77416,-3.85955 -0.32674,-6.09663 0.44742,-2.23709 4.98253,-10.19217 10.07803,-17.67795 l 9.26455,-13.61052 -3.70208,-3.54682 -3.70209,-3.54681 -14.44306,12.02362 -14.44307,12.02362 -2.79265,-0.0838 c -1.53596,-0.0461 -6.98954,-1.72261 -12.11907,-3.72557 l -9.32642,-3.64174 -0.41352,-2.14723 c -0.22744,-1.18099 6.03842,-12.488 13.92412,-25.12669 l 14.33764,-22.97945 1.18575,2.65736 1.18575,2.65736 -6.90901,12.15155 -6.90902,12.15155 1.23605,3.71001 c 0.67983,2.04051 2.2078,3.89852 3.3955,4.12891 l 2.15945,0.41889 46.73007,-70.07605 c 25.70153,-38.54183 46.73006,-71.04463 46.73006,-72.22846 0,-1.18382 -2.23991,-6.24819 -4.97757,-11.25416 -2.73767,-5.00596 -4.68767,-9.32902 -4.33334,-9.60679 0.35433,-0.27777 7.47062,-3.3824 15.81398,-6.89919 l 15.16975,-6.39414 10.16359,2.96788 c 5.58997,1.63234 10.68512,3.44859 11.32254,4.03613 l 1.15895,1.06824 -8.16007,17.53258 -8.16007,17.53257 0.82416,5.15402 0.82416,5.15401 12.63316,7.64335 c 6.94824,4.20384 13.41286,7.64334 14.36583,7.64334 0.95296,0 12.64719,-4.69334 25.98717,-10.42964 l 24.25451,-10.42964 6.66939,6.66939 6.66938,6.66938 -0.97775,21.82345 -0.97775,21.82344 -0.98586,-2.66504 c -0.54222,-1.46577 -1.80298,-3.32776 -2.80168,-4.13777 -0.9987,-0.81 -7.85664,-3.93917 -15.23988,-6.95371 C 315.85937,506.46644 309.09842,504 308.21826,504 c -0.88015,0 -32.48932,26.72978 -70.2426,59.3995 -37.75328,32.66973 -68.64232,60.21103 -68.64232,61.2029 0,0.99187 1.88953,2.46209 4.19896,3.26717 2.30943,0.80507 4.58024,1.46376 5.04624,1.46376 0.466,0 7.40566,-4.8 15.42147,-10.66666 C 202.01581,612.8 209.525,608 210.6871,608 c 1.1621,0 2.83291,0.72 3.71291,1.6 0.88,0.88 1.6,2.65228 1.6,3.93839 v 2.33839 l -22.08828,17.06161 c -12.14855,9.38389 -23.09855,17.18976 -24.33334,17.34639 -1.23478,0.15663 -6.14505,-2.73972 -10.91172,-6.43633 z m 22,-23.43073 c 1.46667,-1.47735 29.36667,-25.6674 62,-53.75567 32.63334,-28.08827 60.83334,-52.42595 62.66667,-54.08374 l 3.33334,-3.01417 12.66666,5.13449 12.66667,5.13449 0.32142,3.7501 0.32142,3.75011 -52.65274,40 c -28.95901,22 -54.30365,41.04684 -56.32143,42.32632 -2.01777,1.27947 -4.11867,2.32947 -4.66867,2.33333 -0.55,0.004 -1,-0.78839 -1,-1.76056 0,-0.97217 -1.35,-3.00321 -3,-4.51342 -1.65,-1.51021 -4.34507,-3.15367 -5.98904,-3.65212 l -2.98903,-0.90628 -7.67763,5.81643 c -4.2227,3.19904 -10.97764,8.13626 -15.01097,10.97161 -4.03333,2.83534 -6.13333,3.94643 -4.66667,2.46908 z m -38.96933,-54.96746 1.4657,-3.88308 -2.05436,-5.22988 -2.05436,-5.22989 30.82917,-49.22037 c 16.95605,-27.07121 32.98393,-52.74392 35.61751,-57.05048 l 4.78834,-7.8301 4.21292,7.77832 4.21291,7.77832 -38.90277,58.38512 c -21.39652,32.11181 -39.05531,58.38511 -39.24176,58.38511 -0.18645,0 0.32057,-1.74738 1.1267,-3.88307 z m 236.96934,-51.67223 -26,-24.7786 -0.68301,-7.17197 -0.68301,-7.17197 -10.14047,-10.14047 -10.14047,-10.14047 -24.92783,10.81272 C 292.38159,471.13427 280.65173,476 280.02554,476 c -0.62619,0 -5.8381,-2.767 -11.58203,-6.14888 -5.74393,-3.38189 -10.59536,-6.28375 -10.78096,-6.44858 -0.18561,-0.16482 4.22262,-10.0596 9.79605,-21.98839 l 10.13353,-21.6887 -1.1294,-1.07687 c -0.62116,-0.59228 -7.27857,-2.68616 -14.79423,-4.65307 l -13.66484,-3.57621 -6.48673,1.6625 -6.48673,1.6625 -21.84843,-7.20548 -21.84843,-7.20549 -0.39426,-6.03632 -0.39426,-6.03632 4.90596,-6.29701 4.90596,-6.29701 2.82163,0.0306 c 1.5519,0.0168 13.62164,2.34392 26.82164,5.17129 l 24,5.14067 7.70826,-3.87815 7.70826,-3.87815 5.62507,1.44567 c 3.09379,0.79511 13.12507,3.89399 22.29174,6.88639 9.16667,2.9924 17.06388,5.66272 17.54935,5.93404 0.48548,0.27132 -0.35484,3.42245 -1.86737,7.00251 -1.51253,3.58006 -2.41517,7.38189 -2.00587,8.44852 0.4093,1.06662 5.72747,4.76266 11.81814,8.21341 l 11.07395,6.27409 7.95251,-5.60825 7.9525,-5.60826 4.50383,5.2128 c 2.4771,2.86704 9.62572,11.37164 15.88581,18.89911 l 11.38198,13.68631 -0.8956,6.51181 -0.8956,6.5118 22.10652,21.65938 22.10652,21.65938 v 5.15675 5.15675 l -7.41408,11.98575 -7.41408,11.98576 -2.25259,-0.055 c -1.23892,-0.0303 -13.95258,-11.20539 -28.25258,-24.83362 z M 362.1183,416.05324 C 356.44859,409.42396 351.06091,404 350.14568,404 c -0.91523,0 -4.88078,2.4 -8.81234,5.33333 -3.93155,2.93334 -7.36103,5.33334 -7.62105,5.33334 -0.26002,0 0.23714,-1.35 1.1048,-3 0.86767,-1.65 3.41214,-5.7 5.65438,-9 2.24224,-3.3 9.16128,-10.92746 15.37563,-16.9499 l 11.29883,-10.94989 -2.18805,-0.83963 -2.18805,-0.83963 -6.7767,5.7142 c -3.72719,3.14281 -9.36586,8.74809 -12.53039,12.45619 -3.16453,3.70809 -7.68446,9.88349 -10.04429,13.7231 l -4.29059,6.98111 -3.96363,-2.04967 -3.96363,-2.04967 2.9551,-4.93144 C 325.781,400.21915 329.66166,394.4 332.77939,390 c 3.11773,-4.4 10.9678,-13.16337 17.44461,-19.47415 6.47681,-6.31079 16.27601,-15.32417 21.77601,-20.02973 5.5,-4.70557 17.8,-14.51806 27.33333,-21.80554 9.53334,-7.28747 17.74375,-13.84545 18.24536,-14.57327 0.50161,-0.72783 0.6162,-1.80197 0.25465,-2.38698 -0.36156,-0.58502 -1.17518,-1.06366 -1.80804,-1.06366 -0.63286,0 -9.44745,6.37968 -19.58797,14.17707 -10.14053,7.79739 -24.13733,19.13131 -31.104,25.18648 -6.96666,6.05518 -18.06666,16.62784 -24.66666,23.4948 l -12,12.48538 -5.20315,9.04166 c -2.86173,4.97291 -5.72287,9.36287 -6.35808,9.75545 -0.63522,0.39259 0.35619,-2.70315 2.20314,-6.87943 1.84695,-4.17628 3.35809,-8.07204 3.35809,-8.65725 0,-0.58521 -2.1,-1.75709 -4.66667,-2.60416 -2.56667,-0.84708 -4.66667,-1.85099 -4.66667,-2.23091 0,-0.37993 1.31269,-2.58339 2.91709,-4.8966 1.6044,-2.3132 6.68573,-8.77137 11.29185,-14.35148 4.60611,-5.5801 14.24342,-15.44458 21.41624,-21.92106 7.17282,-6.47647 13.23322,-12.86093 13.46756,-14.18768 0.23434,-1.32675 -0.14685,-2.41227 -0.84708,-2.41227 -0.70024,0 -7.07846,5.17855 -14.17383,11.50789 -7.09537,6.32935 -17.06811,16.32263 -22.16163,22.2073 -5.09353,5.88467 -10.90704,13.3397 -12.91891,16.56673 l -3.65795,5.86733 -3.95834,-0.76629 c -2.17708,-0.42146 -4.41727,-1.22523 -4.97819,-1.78615 -0.56092,-0.56092 3.32033,-6.81177 8.625,-13.89078 5.30467,-7.07901 15.64486,-18.98308 22.97819,-26.4535 7.33334,-7.47041 18.73334,-18.49648 25.33334,-24.50237 6.6,-6.00589 17.1,-15.14159 23.33333,-20.30155 6.23333,-5.15995 17.33333,-13.77288 24.66667,-19.13983 7.33333,-5.36695 31.13406,-23.75044 52.8905,-40.8522 l 39.55716,-31.09411 13.13084,-14.3479 c 7.22197,-7.89135 18.52125,-20.8357 25.10951,-28.76524 6.58826,-7.92953 14.31243,-18.63071 17.16482,-23.78041 l 5.18617,-9.36308 0.65997,-9.22397 0.65997,-9.22397 -2.26521,-5.93139 -2.26522,-5.931383 -7.89662,-7.310876 -7.89662,-7.310876 4.98237,0.685665 c 2.7403,0.377116 9.81379,1.535233 15.71886,2.573592 5.90507,1.03836 13.89082,2.824662 17.74612,3.969561 l 7.00962,2.081633 5.11682,4.622747 c 2.81426,2.542511 6.07851,6.649327 7.25389,9.126257 l 2.13705,4.50351 -0.0293,7.13183 -0.0293,7.13183 L 596.11535,130 c -1.37102,2.93333 -4.05784,7.3999 -5.97072,9.92571 -1.91287,2.5258 -3.47795,5.3758 -3.47795,6.33333 0,0.95753 0.80027,1.74096 1.77838,1.74096 0.97811,0 3.90987,-3.15 6.51503,-7 2.60516,-3.85 5.37046,-8.24622 6.14511,-9.76937 0.77464,-1.52315 1.8023,-5.73837 2.28367,-9.36715 l 0.87523,-6.59779 -1.60323,-5.95395 c -0.88178,-3.27468 -2.84734,-7.70114 -4.36792,-9.836593 l -2.76467,-3.882635 3.71634,0.932742 c 2.04398,0.513008 6.36653,2.178481 9.60566,3.701046 3.23912,1.52257 7.99507,5.22841 10.56878,8.23521 l 4.67946,5.46689 2.08282,7.16465 2.08282,7.16465 -0.89796,5.98803 -0.89796,5.98802 2.43255,-0.47376 2.43256,-0.47377 -0.036,-9.30977 c -0.0198,-5.12038 -0.52894,-11.10978 -1.13145,-13.30978 l -1.09546,-4 3.53475,4 c 1.94411,2.2 4.9974,7 6.78509,10.66666 l 3.25033,6.66667 0.013,9.42915 0.013,9.42915 -2.15632,6.57085 -2.15632,6.57085 -23.41296,22.66667 c -12.87712,12.46666 -40.55678,39.46966 -61.51034,60.00666 -20.95357,20.53699 -45.55682,43.56012 -54.6739,51.1625 -9.11707,7.60238 -28.01707,22.37944 -42,32.83791 l -25.42349,19.01539 -11.82069,11.73501 -11.82068,11.735 -16.7142,25.42043 c -9.19282,13.98124 -17.12747,25.89439 -17.63256,26.47367 -0.5051,0.57928 -5.55721,-4.37072 -11.22692,-11 z m 29.22168,-60.47705 5.1176,-4.42381 -0.97414,-1.57619 c -0.53578,-0.86691 -1.38873,-1.57332 -1.89545,-1.56982 -0.50672,0.003 -3.20599,2.10468 -5.99838,4.66929 -2.79239,2.56461 -4.70698,5.26174 -4.25464,5.99363 0.45233,0.73189 1.28704,1.33071 1.85492,1.33071 0.56787,0 3.33541,-1.99072 6.15009,-4.42381 z M 388.66668,304 c 0.45322,-0.73333 0.18863,-1.33333 -0.58798,-1.33333 -0.77661,0 -1.41202,0.6 -1.41202,1.33333 0,0.73333 0.26459,1.33333 0.58797,1.33333 0.32339,0 0.9588,-0.6 1.41203,-1.33333 z m 55.42042,-8.86546 c 6.91877,-4.876 17.3674,-12.50788 23.21918,-16.95973 5.85179,-4.45185 14.70179,-11.59048 19.66667,-15.86363 4.96489,-4.27314 9.02706,-8.64126 9.02706,-9.70693 0,-1.06567 -0.63263,-1.93758 -1.40585,-1.93758 -0.77322,0 -5.72322,3.71611 -11,8.25802 -5.27678,4.54192 -17.39415,14.05098 -26.92748,21.13125 -9.53333,7.08027 -19.88333,14.54389 -23,16.58582 -3.11667,2.04193 -5.66667,4.53287 -5.66667,5.53542 0,1.00255 0.78919,1.82282 1.75375,1.82282 0.96456,0 7.41456,-3.98946 14.33334,-8.86546 z M 565.2596,182.33333 c 2.23377,-2.38333 4.06419,-4.74792 4.06758,-5.25464 0.003,-0.50672 -0.64259,-1.32226 -1.43551,-1.81232 l -1.44168,-0.89101 -3.89165,3.72844 c -2.14041,2.05065 -3.89166,4.81619 -3.89166,6.14565 0,1.32947 0.56959,2.41722 1.26575,2.41722 0.69617,0 3.09339,-1.95 5.32717,-4.33334 z m 51.5362,-19.9735 c 1.76232,-2.73543 3.20422,-5.58543 3.20422,-6.33333 0,-0.74791 -0.831,-1.35983 -1.84666,-1.35983 -1.01566,0 -2.91561,1.65 -4.22211,3.66666 -1.30651,2.01667 -6.55025,7.98918 -11.65278,13.27224 l -9.27731,9.60558 0.88515,2.30667 0.88516,2.30668 9.41005,-9.24558 c 5.17553,-5.08507 10.85196,-11.48366 12.61428,-14.21909 z M 286.27109,328.62477 c -1.31756,-1.81029 -3.33754,-3.29144 -4.48884,-3.29144 h -2.09326 l 0.69735,2.66667 0.69735,2.66667 h -4.33519 -4.33519 L 270.00001,328 c -1.32732,-1.46667 -3.22031,-2.66667 -4.20665,-2.66667 h -1.79335 v 2.83708 2.83708 l -5.63184,-0.90057 c -3.0975,-0.49531 -6.59475,-1.77199 -7.77165,-2.83708 -1.1769,-1.06508 -2.84258,-1.93651 -3.7015,-1.93651 -0.85892,0 -1.56168,0.9 -1.56168,2 v 2 h -4.46002 -4.46001 l -2.4133,-2.66666 C 232.67269,325.2 230.4797,324 229.12669,324 h -2.46002 v 2 2 h -4.2474 -4.24739 l -2.98724,-2.80636 -2.98723,-2.80636 -1.52293,0.94123 c -0.83762,0.51767 -1.20086,1.78053 -0.80722,2.80636 L 210.58298,328 h -3.06934 -3.06934 l -5.22215,-4.53072 -5.22214,-4.53071 16.66666,0.63778 c 9.16667,0.35078 31.06667,1.08255 48.66667,1.62616 l 32,0.98839 5.38016,-2.98375 5.38015,-2.98374 3.8745,-12.12372 3.8745,-12.12372 1.30863,1.30863 1.30862,1.30863 -2.46753,13.70338 -2.46753,13.70339 -5.3176,5 -5.3176,5 -4.11148,-0.0419 -4.11149,-0.0419 z m -57.60442,-14.02608 c -13.93333,-0.50474 -27.80232,-0.99592 -30.81996,-1.09153 l -5.48663,-0.17383 2.6355,-13 c 1.44953,-7.15 3.31329,-13.42488 4.14169,-13.94419 0.8284,-0.51931 4.39287,-1.6367 7.92104,-2.48309 l 6.41486,-1.5389 6.42635,5.41877 6.42634,5.41877 28.58919,0.20452 28.5892,0.20452 6.72868,-4.1402 c 3.70077,-2.27711 7.27881,-4.1402 7.9512,-4.1402 0.67239,0 2.51597,0.90597 4.09685,2.01325 l 2.87431,2.01325 -3.88234,11.48549 c -2.13529,6.31702 -4.94522,12.29198 -6.24431,13.27768 l -2.36197,1.79219 -19.33333,-0.1994 c -10.63333,-0.10966 -30.73333,-0.61236 -44.66667,-1.1171 z m -5.05276,-30.93144 -5.05276,-4.33392 15.9013,-48 c 8.74571,-26.4 17.4456,-52.05806 19.33308,-57.01791 1.88749,-4.95986 6.20758,-13.30885 9.60021,-18.55331 3.39262,-5.24446 9.5544,-13.08524 13.69283,-17.42396 4.13843,-4.33871 11.90371,-10.81761 17.25616,-14.39755 5.35246,-3.57994 17.66454,-10.36313 27.36018,-15.07375 9.69564,-4.71062 23.32843,-10.670817 30.2951,-13.244879 6.96667,-2.574062 17.76667,-5.930769 24,-7.459348 6.23333,-1.528579 20.03333,-4.310631 30.66667,-6.182337 10.63333,-1.871705 26.23333,-3.760353 34.66667,-4.196995 8.43333,-0.436642 27.93333,-0.08081 43.33333,0.790738 15.4,0.871549 30.7,2.241412 34,3.044142 3.3,0.80273 9.3,2.897079 13.33333,4.654109 4.03334,1.75703 9.63279,5.414552 12.44323,8.127827 2.81045,2.713274 5.92733,6.489393 6.92642,8.391383 0.99909,1.90199 2.15302,6.40199 2.5643,10 l 0.74779,6.54184 -2.34087,6.66667 -2.34086,6.66667 -3.33334,-0.24694 c -1.83333,-0.13582 -8.43333,-1.41437 -14.66667,-2.84124 -6.23333,-1.42686 -20.03855,-3.35035 -30.67826,-4.27443 l -19.34494,-1.68013 -23.9884,0.74834 -23.9884,0.74834 -10.66666,2.70527 c -5.86667,1.4879 -14.86667,4.1748 -20.00001,5.97089 -5.13333,1.79608 -12.83839,4.84336 -17.12235,6.77172 -4.28396,1.92836 -11.18396,5.67457 -15.33333,8.32491 -4.14938,2.65034 -13.54432,9.80398 -20.87765,15.89696 -7.33333,6.09299 -15.64604,14.01247 -18.47267,17.59886 -2.82664,3.58638 -7.16151,11.10602 -9.63306,16.71031 -2.47155,5.60428 -7.78337,21.74955 -11.80404,35.87837 -4.02067,14.12882 -8.19682,29.49979 -9.28032,34.15771 -1.08351,4.65791 -2.15899,8.60771 -2.38996,8.77733 -0.23097,0.16962 -4.20514,2.57341 -8.83147,5.34176 -4.62634,2.76835 -8.76698,4.67792 -9.20142,4.24347 -0.43444,-0.43444 1.4521,-11.06789 4.19233,-23.62989 l 4.98221,-22.84001 -1.42524,-1.42524 c -0.78389,-0.78389 -1.83822,-1.01228 -2.34296,-0.50754 -0.50474,0.50474 -3.23936,11.53936 -6.07694,24.52138 -2.83757,12.98202 -5.36504,23.80948 -5.61659,24.06103 -0.25155,0.25156 -4.05744,0.27694 -8.45753,0.0564 l -8.00016,-0.40097 7.19309,-30 c 3.95619,-16.5 9.59013,-37.97178 12.51985,-47.71507 2.92973,-9.74329 7.35811,-21.74329 9.84086,-26.66666 2.48276,-4.92338 7.27933,-12.70329 10.65906,-17.28868 3.37973,-4.58539 6.14496,-8.93539 6.14496,-9.66666 0,-0.73128 -0.90124,-1.32959 -2.00276,-1.32959 -1.10151,0 -4.78437,3.75 -8.18412,8.33333 -3.39975,4.58333 -8.47627,13.13333 -11.28116,19 -2.80489,5.86667 -7.43166,18.46772 -10.28171,28.00235 -2.85004,9.53463 -8.42012,30.98463 -12.37794,47.66667 L 252.67629,288 h -7.69688 -7.69688 l 0.84972,-3.66667 c 0.46734,-2.01666 4.40861,-17.68682 8.75838,-34.82258 4.34976,-17.13575 7.6047,-31.45987 7.23319,-31.83138 -0.37151,-0.37151 -1.51603,-0.35292 -2.54339,0.0413 -1.02735,0.39424 -2.25502,2.41836 -2.72815,4.49806 -0.47313,2.07969 -4.36932,17.58126 -8.65819,34.44793 l -7.79797,30.66666 -1.86472,0.33392 c -1.0256,0.18365 -4.13847,-1.61635 -6.91749,-4 z m 69.67252,-54.24626 c 0.75913,-1.41846 1.38024,-3.81846 1.38024,-5.33333 0,-1.51488 -0.76845,-2.75433 -1.70768,-2.75433 -0.93922,0 -2.42029,1.88793 -3.29126,4.19539 -0.87097,2.30747 -1.26711,4.70747 -0.8803,5.33334 0.38681,0.62587 1.24677,1.13794 1.91102,1.13794 0.66426,0 1.82885,-1.16056 2.58798,-2.57901 z m -34.01884,-26.64794 c 0.41707,-0.67482 2.18179,-5.92482 3.92161,-11.66667 1.73982,-5.74184 3.9569,-12.36681 4.92683,-14.72216 0.96994,-2.35535 1.32396,-4.72201 0.78672,-5.25926 -0.53725,-0.53725 -2.09065,0.18985 -3.45201,1.61578 -1.36136,1.42593 -3.70884,6.49259 -5.21663,11.25926 -1.50779,4.76667 -3.31775,10.8762 -4.02213,13.57675 -0.70438,2.70054 -0.94023,5.25054 -0.52411,5.66667 0.41612,0.41612 1.22117,0.75658 1.789,0.75658 0.56784,0 1.37366,-0.55213 1.79072,-1.22695 z m 58.06575,-57.43972 c 0,-0.73333 -0.6,-1.33333 -1.33333,-1.33333 -0.73333,0 -1.33333,0.6 -1.33333,1.33333 0,0.73334 0.6,1.33334 1.33333,1.33334 0.73333,0 1.33333,-0.6 1.33333,-1.33334 z"
       id="path38" /></g></svg>
