<?xml version="1.0" encoding="UTF-8" standalone="no"?>
<svg
   width="240"
   height="240"
   version="1.1"
   id="svg40"
   sodipodi:docname="smart-rebuild.svg"
   inkscape:version="1.3.2 (091e20e, 2023-11-25, custom)"
   xml:space="preserve"
   xmlns:inkscape="http://www.inkscape.org/namespaces/inkscape"
   xmlns:sodipodi="http://sodipodi.sourceforge.net/DTD/sodipodi-0.dtd"
   xmlns="http://www.w3.org/2000/svg"
   xmlns:svg="http://www.w3.org/2000/svg"><defs
     id="defs40"><filter
       style="color-interpolation-filters:sRGB;"
       inkscape:label="Drop Shadow"
       id="filter4"
       x="-0.20236493"
       y="-0.17708941"
       width="1.4047299"
       height="1.3541788"><feFlood
         result="flood"
         in="SourceGraphic"
         flood-opacity="1.000000"
         flood-color="rgb(58,63,94)"
         id="feFlood3" /><feGaussianBlur
         result="blur"
         in="SourceGraphic"
         stdDeviation="15.000000"
         id="feGaussianBlur3" /><feOffset
         result="offset"
         in="blur"
         dx="0.000000"
         dy="0.000000"
         id="feOffset3" /><feComposite
         result="comp1"
         operator="out"
         in="flood"
         in2="offset"
         id="feComposite3" /><feComposite
         result="comp2"
         operator="atop"
         in="comp1"
         in2="SourceGraphic"
         id="feComposite4" /></filter></defs><sodipodi:namedview
     id="namedview40"
     pagecolor="#505050"
     bordercolor="#eeeeee"
     borderopacity="1"
     inkscape:showpageshadow="0"
     inkscape:pageopacity="0"
     inkscape:pagecheckerboard="0"
     inkscape:deskcolor="#505050"
     inkscape:zoom="2.3747003"
     inkscape:cx="125.48952"
     inkscape:cy="100.43373"
     inkscape:window-width="1920"
     inkscape:window-height="1017"
     inkscape:window-x="-8"
     inkscape:window-y="-8"
     inkscape:window-maximized="1"
     inkscape:current-layer="svg40" /><path
     style="fill:#1b1f21;stroke:none"
     d="M0 0v240h240V0H0z"
     id="path1" /><path
     style="fill:#e64539;fill-opacity:1;filter:url(#filter4)"
     d="m 106.5638,214.29475 c -6.790726,-3.98174 -13.654084,-7.94235 -15.251903,-8.80136 -6.370103,-3.42465 -6.419889,-3.33648 3.808185,-6.7443 9.351728,-3.11585 31.274478,-12.18434 39.531548,-16.3525 7.76947,-3.92201 23.53565,-13.57276 29.42682,-18.01267 6.94359,-5.23306 17.32872,-15.90951 20.10311,-20.66701 4.65481,-7.98207 5.93104,-17.77442 3.38866,-26.00081 -1.80145,-5.82899 -4.54577,-10.12938 -9.53434,-14.94049 -5.96052,-5.748481 -16.10567,-12.60112 -17.13368,-11.573109 -0.22531,0.225311 1.83675,2.850001 4.58235,5.832645 12.03398,13.072924 15.9724,25.295974 11.77862,36.555394 -5.28977,14.20188 -21.2505,29.18929 -47.52634,44.62805 -8.96141,5.26541 -30.530522,16.1028 -39.514355,19.85396 -1.797546,0.75056 -3.824041,1.8296 -4.503323,2.39785 -1.097483,0.91811 -2.096564,0.53888 -8.969149,-3.40453 -4.25375,-2.44076 -7.977772,-4.43773 -8.275605,-4.43773 -0.297832,0 -1.103749,-0.62127 -1.790926,-1.38059 -1.201283,-1.3274 -1.142669,-1.41476 1.521568,-2.26769 10.318355,-3.30331 27.977472,-10.52993 39.08505,-15.99471 27.82684,-13.69045 43.92011,-27.4251 49.00207,-41.82035 1.36233,-3.85898 1.59794,-5.74632 1.3373,-10.71233 -0.26658,-5.07895 -0.73091,-6.87557 -2.94913,-11.41092 -2.90732,-5.9443 -3.99386,-7.28247 -10.35742,-12.756063 -4.38887,-3.775072 -11.88275,-8.577315 -12.46941,-7.990663 -0.1745,0.174504 1.16014,2.068626 2.96588,4.209161 9.02703,10.700715 13.53483,19.859135 13.48189,27.390955 -0.0536,7.61979 -4.76859,16.35606 -13.77564,25.52425 -11.46198,11.66705 -26.93439,21.72864 -52.354368,34.04564 -21.309024,10.32507 -18.703328,9.86605 -27.659988,4.87267 -4.126394,-2.30048 -7.981103,-4.64446 -8.566018,-5.20884 -0.928258,-0.89567 -0.866355,-1.02615 0.486842,-1.02615 4.975773,0 36.072762,-13.32761 49.230566,-21.09933 18.905056,-11.16636 26.959426,-20.96839 26.824966,-32.64548 -0.0663,-5.75421 -1.7464,-9.35653 -6.3379,-13.58882 -2.85272,-2.62955 -6.92844,-5.2945 -8.0973,-5.2945 -0.89507,0 -0.29635,1.68433 1.37996,3.88209 2.92725,3.83782 4.72432,8.56634 4.74142,12.47577 0.023,5.25306 -3.70508,11.15477 -12.31044,19.4881 -10.599265,10.26421 -23.888583,18.91403 -46.502396,30.26771 -4.993184,2.50692 -9.610898,5.01308 -10.261586,5.56924 -1.029184,0.87968 -1.671014,0.72351 -4.93436,-1.20063 -2.063209,-1.21651 -3.982027,-2.21346 -4.26404,-2.21545 -0.282012,-0.002 -1.493229,-0.78794 -2.691593,-1.74657 l -2.178844,-1.74297 -0.207895,-49.27468 C 30.708314,93.875911 30.785119,71.011284 30.993333,70.166705 31.266959,69.056795 37.263943,65.255965 52.626525,56.4558 64.316567,49.75938 84.036099,38.439522 96.447707,31.30056 108.85932,24.161597 119.45372,18.320628 119.99083,18.320628 c 0.53711,0 5.08936,2.403095 10.1161,5.340211 5.02674,2.937116 24.17355,13.938511 42.54847,24.447546 18.37492,10.509034 34.0089,19.663671 34.74219,20.343637 1.27052,1.178134 1.32895,3.607025 1.24178,51.623318 -0.0503,27.71286 -0.32345,50.61771 -0.60697,50.89967 -0.28352,0.28197 -7.8691,4.72586 -16.85683,9.87533 -8.98773,5.14946 -26.47295,15.18558 -38.85605,22.30249 -12.38309,7.11691 -24.71077,14.19685 -27.39484,15.73319 -2.68406,1.53635 -5.13526,2.76071 -5.44711,2.7208 -0.31184,-0.0399 -6.12304,-3.33034 -12.91377,-7.31207 z M 150.40524,73.12366 c 2.45095,-5.010347 4.45627,-9.28184 4.45627,-9.492207 0,-0.509021 -18.62494,-9.344988 -25.05671,-11.8873 -6.8663,-2.714073 -16.47467,-4.86093 -26.30824,-5.878212 -9.458069,-0.978437 -10.843719,-0.738227 -9.56154,1.657547 2.399054,4.482674 14.42375,15.174156 24.20044,21.517267 4.92194,3.193349 25.3861,13.192626 26.99956,13.192626 0.44767,0 2.81927,-4.099375 5.27022,-9.109721 z"
     id="path2" /></svg>
