<?xml version="1.0" encoding="UTF-8" standalone="no"?>
<svg
   width="240"
   height="240"
   version="1.1"
   id="svg40"
   sodipodi:docname="tech-rebuild.svg"
   inkscape:version="1.3.2 (091e20e, 2023-11-25, custom)"
   xml:space="preserve"
   xmlns:inkscape="http://www.inkscape.org/namespaces/inkscape"
   xmlns:sodipodi="http://sodipodi.sourceforge.net/DTD/sodipodi-0.dtd"
   xmlns="http://www.w3.org/2000/svg"
   xmlns:svg="http://www.w3.org/2000/svg"><defs
     id="defs40"><filter
       style="color-interpolation-filters:sRGB;"
       inkscape:label="Drop Shadow"
       id="filter4"
       x="-0.20236493"
       y="-0.17708941"
       width="1.4047299"
       height="1.3541788"><feFlood
         result="flood"
         in="SourceGraphic"
         flood-opacity="1.000000"
         flood-color="rgb(58,63,94)"
         id="feFlood3" /><feGaussianBlur
         result="blur"
         in="SourceGraphic"
         stdDeviation="15.000000"
         id="feGaussianBlur3" /><feOffset
         result="offset"
         in="blur"
         dx="0.000000"
         dy="0.000000"
         id="feOffset3" /><feComposite
         result="comp1"
         operator="out"
         in="flood"
         in2="offset"
         id="feComposite3" /><feComposite
         result="comp2"
         operator="atop"
         in="comp1"
         in2="SourceGraphic"
         id="feComposite4" /></filter><filter
       style="color-interpolation-filters:sRGB;"
       inkscape:label="Drop Shadow"
       id="filter6"
       x="-0.20163867"
       y="-0.17783277"
       width="1.4032773"
       height="1.3556655"><feFlood
         result="flood"
         in="SourceGraphic"
         flood-opacity="1.000000"
         flood-color="rgb(58,63,94)"
         id="feFlood4" /><feGaussianBlur
         result="blur"
         in="SourceGraphic"
         stdDeviation="15.000000"
         id="feGaussianBlur4" /><feOffset
         result="offset"
         in="blur"
         dx="0.000000"
         dy="0.000000"
         id="feOffset4" /><feComposite
         result="comp1"
         operator="out"
         in="flood"
         in2="offset"
         id="feComposite5" /><feComposite
         result="comp2"
         operator="atop"
         in="comp1"
         in2="SourceGraphic"
         id="feComposite6" /></filter></defs><sodipodi:namedview
     id="namedview40"
     pagecolor="#505050"
     bordercolor="#eeeeee"
     borderopacity="1"
     inkscape:showpageshadow="0"
     inkscape:pageopacity="0"
     inkscape:pagecheckerboard="0"
     inkscape:deskcolor="#505050"
     inkscape:zoom="2.3747003"
     inkscape:cx="89.274424"
     inkscape:cy="110.96137"
     inkscape:window-width="1920"
     inkscape:window-height="1017"
     inkscape:window-x="-8"
     inkscape:window-y="-8"
     inkscape:window-maximized="1"
     inkscape:current-layer="svg40" /><path
     style="fill:#1b1f21;stroke:none"
     d="M0 0v240h240V0H0z"
     id="path1" /><path
     style="fill:#e64539;fill-opacity:1;filter:url(#filter6)"
     d="m 109.15385,215.20567 c -5.76654,-3.30256 -25.126926,-14.37924 -43.02308,-24.61485 -17.896154,-10.2356 -33.107885,-19.2788 -33.803846,-20.09599 -1.178235,-1.38348 -1.265385,-4.88209 -1.265385,-50.79827 0,-38.373133 0.200506,-49.559862 0.903846,-50.427688 0.497115,-0.613373 2.368077,-1.916716 4.157692,-2.896316 2.908931,-1.592292 57.158704,-32.745941 75.561543,-43.392213 3.97692,-2.3007 7.57908,-4.189395 8.00481,-4.197101 0.89226,-0.01615 18.30798,9.812403 19.62868,11.077441 0.68405,0.655214 0.27759,1.48537 -1.82787,3.733254 -1.48914,1.589874 -5.46992,5.981833 -8.84616,9.75991 -17.91354,20.045548 -24.05065,26.77292 -24.2458,26.577768 -0.20659,-0.206597 3.05176,-12.465988 7.65858,-28.815027 1.18719,-4.213185 2.15853,-8.076296 2.15853,-8.584691 0,-1.522924 -1.74689,0.273824 -11.14609,11.464248 -4.806193,5.72211 -10.818086,12.880572 -13.359766,15.907693 -2.54168,3.02712 -7.277892,8.595009 -10.524915,12.373086 -3.247024,3.778077 -9.775822,11.424616 -14.508441,16.992308 -4.732619,5.567693 -12.442369,14.573338 -17.132777,20.012548 -4.690409,5.4392 -8.528016,10.17367 -8.528016,10.52104 0,0.34737 1.561772,2.4048 3.470604,4.57207 1.908832,2.16727 8.979603,10.44819 15.712824,18.40204 6.73322,7.95384 20.545872,24.22705 30.694781,36.16267 10.148909,11.93563 19.902256,23.44905 21.674106,25.58537 1.77185,2.13633 3.34411,3.51653 3.49391,3.06712 0.14981,-0.44941 -0.40363,-3.17744 -1.22986,-6.06229 -0.82623,-2.88485 -2.97146,-10.678 -4.76717,-17.3181 -1.79572,-6.64011 -3.4589,-12.57838 -3.69597,-13.19616 -0.23706,-0.61777 -0.26386,-1.12323 -0.0596,-1.12323 0.20432,0 5.03855,5.10321 10.74275,11.34047 5.7042,6.23726 13.53833,14.77861 17.40918,18.98077 3.87085,4.20217 7.03949,8.12838 7.04142,8.72491 0.002,0.59654 -2.01868,2.22347 -4.49023,3.61539 -9.02898,5.0849 -11.7115,6.64612 -13.14632,7.65111 -0.80551,0.5642 -1.6362,1.02121 -1.84598,1.01559 -0.20978,-0.006 -5.09949,-2.71232 -10.86603,-6.01488 z m 34.32617,-9.22246 c -0.26343,-0.83001 -2.18885,-9.94484 -4.27871,-20.25518 l -3.79975,-18.74607 1.99872,1.63595 c 1.0993,0.89976 4.71106,3.95598 8.02614,6.79158 10.28836,8.8003 16.04333,13.60214 18.86204,15.73814 1.49135,1.13013 2.71154,2.27433 2.71154,2.54267 0,0.26834 -4.71015,3.17643 -10.467,6.46242 -5.75686,3.286 -10.65683,6.28168 -10.88883,6.65707 -0.70176,1.13547 -1.65724,0.77053 -2.16415,-0.82658 z m 27.7441,-17.47167 c -3.64621,-3.3483 -27.21805,-24.23794 -32.78566,-29.05502 -3.18153,-2.75266 -7.80937,-6.96267 -10.28407,-9.35558 -2.4747,-2.39291 -4.64177,-4.20626 -4.8157,-4.02968 -0.26465,0.26867 5.03672,27.13699 7.37516,37.37874 0.38591,1.6902 0.46727,3.07308 0.1808,3.07308 -0.28647,0 -2.73824,-2.52173 -5.44837,-5.60385 -2.71013,-3.08211 -10.3344,-11.46077 -16.94282,-18.61923 -6.60842,-7.15846 -13.793237,-15.07609 -15.966265,-17.59473 -2.173028,-2.51865 -4.044556,-4.29857 -4.158951,-3.95538 -0.114395,0.34318 0.449255,3.05466 1.252557,6.0255 3.841299,14.20625 7.230739,27.37868 7.230739,28.10093 0,1.51008 -1.087062,0.74088 -3.40115,-2.40665 -1.274094,-1.73297 -8.118856,-9.93624 -15.210583,-18.22949 -23.583868,-27.57959 -28.388268,-33.4227 -28.388268,-34.52577 0,-0.60176 3.1725,-4.74513 7.05,-9.2075 3.8775,-4.46236 9.978462,-11.611716 13.557693,-15.88745 20.021457,-23.917544 26.052441,-30.803874 26.246277,-29.968666 0.228639,0.985169 -2.708404,12.725911 -6.457503,25.81368 -1.244002,4.342697 -2.035071,8.122564 -1.75793,8.399704 0.27714,0.277141 1.69599,-0.954885 3.153,-2.737835 1.457009,-1.782949 5.258617,-6.007735 8.448014,-9.388413 5.14058,-5.448868 10.18314,-11.05666 26.04507,-28.964515 2.46042,-2.77778 4.43573,-4.475264 4.56316,-3.921368 0.21455,0.932539 -1.36234,9.225158 -5.35982,28.186416 -1.00611,4.772308 -1.9925,9.246346 -2.19197,9.942308 -0.19947,0.695961 -0.0274,1.265384 0.38232,1.265384 0.40974,0 5.72112,-4.474038 11.80305,-9.942308 6.08194,-5.468269 13.6592,-12.211557 16.83836,-14.985084 3.17915,-2.773527 9.07213,-8.061027 13.09551,-11.75 4.02337,-3.688973 7.78147,-6.707224 8.35132,-6.707224 1.18981,0 32.18356,17.503654 33.53155,18.936873 0.63431,0.674413 1.03895,6.682479 1.40307,20.832359 0.28143,10.936539 0.56245,21.674229 0.62449,23.861539 0.13363,4.71111 2.25167,4.40692 -17.79155,2.5552 -15.64534,-1.44542 -20.49587,-1.13577 -26.95327,1.72064 -4.28319,1.89466 -3.67175,2.91188 3.15465,5.24827 5.95717,2.03889 13.06357,2.10112 28.82417,0.25243 6.04051,-0.70854 11.53026,-1.07815 12.19946,-0.82135 1.0663,0.40917 1.16021,1.29243 0.75968,7.14432 -0.25137,3.67257 -0.64939,14.32395 -0.88449,23.66972 -0.2351,9.34577 -0.63842,17.21684 -0.89626,17.49127 -0.73965,0.78721 -33.38578,19.38565 -34.02793,19.38565 -0.31673,0 -1.37312,-0.73211 -2.34754,-1.62692 z m 22.52973,-18.54822 c 0,-1.02274 -9.39723,-12.88736 -14.89302,-18.80342 -5.27848,-5.68213 -10.34076,-8.72465 -14.53778,-8.73745 l -2.31541,-0.007 0.98907,3.28645 c 1.90915,6.34361 4.61757,8.83341 20.9605,19.2686 8.88484,5.67309 9.79664,6.13779 9.79664,4.99288 z m -46.27351,-46.34793 c 0.20073,-3.77808 0.23899,-8.61118 0.085,-10.74023 l -0.27993,-3.87099 -16.7158,0.35465 c -18.53916,0.39333 -22.06133,0.94652 -35.823009,5.62634 -9.186767,3.12407 -10.165592,3.7256 -9.019353,5.54276 1.35208,2.1435 19.812852,8.07314 29.670122,9.53012 2.33259,0.34478 10.42337,0.5818 17.97953,0.52672 l 13.73846,-0.10014 z m 22.8868,-26.627206 c 3.62875,-1.851248 7.2015,-5.846816 15.12514,-16.915113 8.8102,-12.306721 8.5665,-12.777041 -2.51258,-4.849038 -14.79072,10.583996 -17.48956,13.269283 -20.03499,19.934396 -1.00885,2.64164 -1.06847,3.386999 -0.30848,3.8567 1.13038,0.698614 3.71847,0.02005 7.73091,-2.026945 z M 135.49311,70.916598 c 0.21661,-0.350487 1.58225,-6.451448 3.03475,-13.557692 5.15381,-25.214596 4.97217,-24.505429 6.22194,-24.29135 0.95287,0.16322 16.98578,9.217235 20.80405,11.74834 1.2522,0.830077 2.67405,-0.552697 -16.15502,15.711028 -11.0688,9.560739 -15.38775,12.787649 -13.90572,10.389674 z"
     id="path4" /></svg>
